<?xml version="1.0" standalone="no"?>
 <!DOCTYPE svg PUBLIC "-//W3C//DTD SVG 1.1//EN" 
 "http://www.w3.org/Graphics/SVG/1.1/DTD/svg11.dtd"> 
<svg xmlns="http://www.w3.org/2000/svg" version="1.1" 
    width="29.7002cm" height="21.0007cm" viewBox="0 0 116930 82680 ">
<title>SVG Picture created as 10knobs-F.Fab.svg date 2020/12/11 10:23:38 </title>
  <desc>Picture generated by PCBNEW </desc>
<g style="fill:#000000; fill-opacity:1;stroke:#000000; stroke-opacity:1;
stroke-linecap:round; stroke-linejoin:round; "
 transform="translate(0 0) scale(1 1)">
</g>
<g style="fill:#000000; fill-opacity:0.0; 
stroke:#000000; stroke-width:-0.000393701; stroke-opacity:1; 
stroke-linecap:round; stroke-linejoin:round;">
</g>
<g style="fill:#000000; fill-opacity:0.0; 
stroke:#000000; stroke-width:39.3701; stroke-opacity:1; 
stroke-linecap:round; stroke-linejoin:round;">
</g>
<g style="fill:#000000; fill-opacity:0.0; 
stroke:#000000; stroke-width:59.0551; stroke-opacity:1; 
stroke-linecap:round; stroke-linejoin:round;">
<rect x="69685.9" y="65357.2" width="42519.7" height="12598.4" rx="0" />
</g>
<g style="fill:#000000; fill-opacity:0.0; 
stroke:#000000; stroke-width:39.3701; stroke-opacity:1; 
stroke-linecap:round; stroke-linejoin:round;">
</g>
<g style="fill:#000000; fill-opacity:0.0; 
stroke:#000000; stroke-width:59.0551; stroke-opacity:1; 
stroke-linecap:round; stroke-linejoin:round;">
<rect x="3937.01" y="3937.01" width="109056" height="74806" rx="0" />
</g>
<g style="fill:#000000; fill-opacity:0.0; 
stroke:#000000; stroke-width:39.3701; stroke-opacity:1; 
stroke-linecap:round; stroke-linejoin:round;">
</g>
<g style="fill:#000000; fill-opacity:0.0; 
stroke:#000000; stroke-width:59.0551; stroke-opacity:1; 
stroke-linecap:round; stroke-linejoin:round;">
<rect x="4724.41" y="4724.41" width="107481" height="73231.2" rx="0" />
</g>
<g style="fill:#000000; fill-opacity:0.0; 
stroke:#000000; stroke-width:39.3701; stroke-opacity:1; 
stroke-linecap:round; stroke-linejoin:round;">
</g>
<g style="fill:#000000; fill-opacity:0.0; 
stroke:#000000; stroke-width:59.0551; stroke-opacity:1; 
stroke-linecap:round; stroke-linejoin:round;">
<path d="M23622 4724
L23622 3937
" />
</g>
<g style="fill:#000000; fill-opacity:0.0; 
stroke:#000000; stroke-width:39.3701; stroke-opacity:1; 
stroke-linecap:round; stroke-linejoin:round;">
</g>
<g style="fill:#000000; fill-opacity:0.0; 
stroke:#000000; stroke-width:59.0551; stroke-opacity:1; 
stroke-linecap:round; stroke-linejoin:round;">
<path d="M43307 4724
L43307 3937
" />
</g>
<g style="fill:#000000; fill-opacity:0.0; 
stroke:#000000; stroke-width:39.3701; stroke-opacity:1; 
stroke-linecap:round; stroke-linejoin:round;">
</g>
<g style="fill:#000000; fill-opacity:0.0; 
stroke:#000000; stroke-width:59.0551; stroke-opacity:1; 
stroke-linecap:round; stroke-linejoin:round;">
<path d="M62992 4724
L62992 3937
" />
</g>
<g style="fill:#000000; fill-opacity:0.0; 
stroke:#000000; stroke-width:39.3701; stroke-opacity:1; 
stroke-linecap:round; stroke-linejoin:round;">
</g>
<g style="fill:#000000; fill-opacity:0.0; 
stroke:#000000; stroke-width:59.0551; stroke-opacity:1; 
stroke-linecap:round; stroke-linejoin:round;">
<path d="M82677 4724
L82677 3937
" />
</g>
<g style="fill:#000000; fill-opacity:0.0; 
stroke:#000000; stroke-width:39.3701; stroke-opacity:1; 
stroke-linecap:round; stroke-linejoin:round;">
</g>
<g style="fill:#000000; fill-opacity:0.0; 
stroke:#000000; stroke-width:59.0551; stroke-opacity:1; 
stroke-linecap:round; stroke-linejoin:round;">
<path d="M102362 4724
L102362 3937
" />
</g>
<g style="fill:#000000; fill-opacity:0.0; 
stroke:#000000; stroke-width:39.3701; stroke-opacity:1; 
stroke-linecap:round; stroke-linejoin:round;">
</g>
<g style="fill:#000000; fill-opacity:0.0; 
stroke:#000000; stroke-width:59.0551; stroke-opacity:1; 
stroke-linecap:round; stroke-linejoin:round;">
<path d="M14199 4562
L13906 4562
" />
<path d="M14052 4562
L14052 4050
L14004 4123
L13955 4172
L13906 4196
" />
</g>
<g style="fill:#000000; fill-opacity:0.0; 
stroke:#000000; stroke-width:39.3701; stroke-opacity:1; 
stroke-linecap:round; stroke-linejoin:round;">
</g>
<g style="fill:#000000; fill-opacity:0.0; 
stroke:#000000; stroke-width:59.0551; stroke-opacity:1; 
stroke-linecap:round; stroke-linejoin:round;">
<path d="M33591 4099
L33615 4074
L33664 4050
L33786 4050
L33835 4074
L33859 4099
L33884 4147
L33884 4196
L33859 4269
L33567 4562
L33884 4562
" />
</g>
<g style="fill:#000000; fill-opacity:0.0; 
stroke:#000000; stroke-width:39.3701; stroke-opacity:1; 
stroke-linecap:round; stroke-linejoin:round;">
</g>
<g style="fill:#000000; fill-opacity:0.0; 
stroke:#000000; stroke-width:59.0551; stroke-opacity:1; 
stroke-linecap:round; stroke-linejoin:round;">
<path d="M53252 4050
L53569 4050
L53398 4245
L53471 4245
L53520 4269
L53544 4294
L53569 4342
L53569 4464
L53544 4513
L53520 4537
L53471 4562
L53325 4562
L53276 4537
L53252 4513
" />
</g>
<g style="fill:#000000; fill-opacity:0.0; 
stroke:#000000; stroke-width:39.3701; stroke-opacity:1; 
stroke-linecap:round; stroke-linejoin:round;">
</g>
<g style="fill:#000000; fill-opacity:0.0; 
stroke:#000000; stroke-width:59.0551; stroke-opacity:1; 
stroke-linecap:round; stroke-linejoin:round;">
<path d="M73205 4221
L73205 4562
" />
<path d="M73083 4026
L72961 4391
L73278 4391
" />
</g>
<g style="fill:#000000; fill-opacity:0.0; 
stroke:#000000; stroke-width:39.3701; stroke-opacity:1; 
stroke-linecap:round; stroke-linejoin:round;">
</g>
<g style="fill:#000000; fill-opacity:0.0; 
stroke:#000000; stroke-width:59.0551; stroke-opacity:1; 
stroke-linecap:round; stroke-linejoin:round;">
<path d="M92914 4050
L92671 4050
L92646 4294
L92671 4269
L92719 4245
L92841 4245
L92890 4269
L92914 4294
L92939 4342
L92939 4464
L92914 4513
L92890 4537
L92841 4562
L92719 4562
L92671 4537
L92646 4513
" />
</g>
<g style="fill:#000000; fill-opacity:0.0; 
stroke:#000000; stroke-width:39.3701; stroke-opacity:1; 
stroke-linecap:round; stroke-linejoin:round;">
</g>
<g style="fill:#000000; fill-opacity:0.0; 
stroke:#000000; stroke-width:59.0551; stroke-opacity:1; 
stroke-linecap:round; stroke-linejoin:round;">
<path d="M112575 4050
L112477 4050
L112429 4074
L112404 4099
L112356 4172
L112331 4269
L112331 4464
L112356 4513
L112380 4537
L112429 4562
L112526 4562
L112575 4537
L112599 4513
L112624 4464
L112624 4342
L112599 4294
L112575 4269
L112526 4245
L112429 4245
L112380 4269
L112356 4294
L112331 4342
" />
</g>
<g style="fill:#000000; fill-opacity:0.0; 
stroke:#000000; stroke-width:39.3701; stroke-opacity:1; 
stroke-linecap:round; stroke-linejoin:round;">
</g>
<g style="fill:#000000; fill-opacity:0.0; 
stroke:#000000; stroke-width:59.0551; stroke-opacity:1; 
stroke-linecap:round; stroke-linejoin:round;">
<path d="M23622 77955
L23622 78742
" />
</g>
<g style="fill:#000000; fill-opacity:0.0; 
stroke:#000000; stroke-width:39.3701; stroke-opacity:1; 
stroke-linecap:round; stroke-linejoin:round;">
</g>
<g style="fill:#000000; fill-opacity:0.0; 
stroke:#000000; stroke-width:59.0551; stroke-opacity:1; 
stroke-linecap:round; stroke-linejoin:round;">
<path d="M43307 77955
L43307 78742
" />
</g>
<g style="fill:#000000; fill-opacity:0.0; 
stroke:#000000; stroke-width:39.3701; stroke-opacity:1; 
stroke-linecap:round; stroke-linejoin:round;">
</g>
<g style="fill:#000000; fill-opacity:0.0; 
stroke:#000000; stroke-width:59.0551; stroke-opacity:1; 
stroke-linecap:round; stroke-linejoin:round;">
<path d="M62992 77955
L62992 78742
" />
</g>
<g style="fill:#000000; fill-opacity:0.0; 
stroke:#000000; stroke-width:39.3701; stroke-opacity:1; 
stroke-linecap:round; stroke-linejoin:round;">
</g>
<g style="fill:#000000; fill-opacity:0.0; 
stroke:#000000; stroke-width:59.0551; stroke-opacity:1; 
stroke-linecap:round; stroke-linejoin:round;">
<path d="M82677 77955
L82677 78742
" />
</g>
<g style="fill:#000000; fill-opacity:0.0; 
stroke:#000000; stroke-width:39.3701; stroke-opacity:1; 
stroke-linecap:round; stroke-linejoin:round;">
</g>
<g style="fill:#000000; fill-opacity:0.0; 
stroke:#000000; stroke-width:59.0551; stroke-opacity:1; 
stroke-linecap:round; stroke-linejoin:round;">
<path d="M102362 77955
L102362 78742
" />
</g>
<g style="fill:#000000; fill-opacity:0.0; 
stroke:#000000; stroke-width:39.3701; stroke-opacity:1; 
stroke-linecap:round; stroke-linejoin:round;">
</g>
<g style="fill:#000000; fill-opacity:0.0; 
stroke:#000000; stroke-width:59.0551; stroke-opacity:1; 
stroke-linecap:round; stroke-linejoin:round;">
<path d="M14199 78580
L13906 78580
" />
<path d="M14052 78580
L14052 78069
L14004 78142
L13955 78190
L13906 78215
" />
</g>
<g style="fill:#000000; fill-opacity:0.0; 
stroke:#000000; stroke-width:39.3701; stroke-opacity:1; 
stroke-linecap:round; stroke-linejoin:round;">
</g>
<g style="fill:#000000; fill-opacity:0.0; 
stroke:#000000; stroke-width:59.0551; stroke-opacity:1; 
stroke-linecap:round; stroke-linejoin:round;">
<path d="M33591 78117
L33615 78093
L33664 78069
L33786 78069
L33835 78093
L33859 78117
L33884 78166
L33884 78215
L33859 78288
L33567 78580
L33884 78580
" />
</g>
<g style="fill:#000000; fill-opacity:0.0; 
stroke:#000000; stroke-width:39.3701; stroke-opacity:1; 
stroke-linecap:round; stroke-linejoin:round;">
</g>
<g style="fill:#000000; fill-opacity:0.0; 
stroke:#000000; stroke-width:59.0551; stroke-opacity:1; 
stroke-linecap:round; stroke-linejoin:round;">
<path d="M53252 78069
L53569 78069
L53398 78263
L53471 78263
L53520 78288
L53544 78312
L53569 78361
L53569 78483
L53544 78532
L53520 78556
L53471 78580
L53325 78580
L53276 78556
L53252 78532
" />
</g>
<g style="fill:#000000; fill-opacity:0.0; 
stroke:#000000; stroke-width:39.3701; stroke-opacity:1; 
stroke-linecap:round; stroke-linejoin:round;">
</g>
<g style="fill:#000000; fill-opacity:0.0; 
stroke:#000000; stroke-width:59.0551; stroke-opacity:1; 
stroke-linecap:round; stroke-linejoin:round;">
<path d="M73205 78239
L73205 78580
" />
<path d="M73083 78044
L72961 78410
L73278 78410
" />
</g>
<g style="fill:#000000; fill-opacity:0.0; 
stroke:#000000; stroke-width:39.3701; stroke-opacity:1; 
stroke-linecap:round; stroke-linejoin:round;">
</g>
<g style="fill:#000000; fill-opacity:0.0; 
stroke:#000000; stroke-width:59.0551; stroke-opacity:1; 
stroke-linecap:round; stroke-linejoin:round;">
<path d="M92914 78069
L92671 78069
L92646 78312
L92671 78288
L92719 78263
L92841 78263
L92890 78288
L92914 78312
L92939 78361
L92939 78483
L92914 78532
L92890 78556
L92841 78580
L92719 78580
L92671 78556
L92646 78532
" />
</g>
<g style="fill:#000000; fill-opacity:0.0; 
stroke:#000000; stroke-width:39.3701; stroke-opacity:1; 
stroke-linecap:round; stroke-linejoin:round;">
</g>
<g style="fill:#000000; fill-opacity:0.0; 
stroke:#000000; stroke-width:59.0551; stroke-opacity:1; 
stroke-linecap:round; stroke-linejoin:round;">
<path d="M112575 78069
L112477 78069
L112429 78093
L112404 78117
L112356 78190
L112331 78288
L112331 78483
L112356 78532
L112380 78556
L112429 78580
L112526 78580
L112575 78556
L112599 78532
L112624 78483
L112624 78361
L112599 78312
L112575 78288
L112526 78263
L112429 78263
L112380 78288
L112356 78312
L112331 78361
" />
</g>
<g style="fill:#000000; fill-opacity:0.0; 
stroke:#000000; stroke-width:39.3701; stroke-opacity:1; 
stroke-linecap:round; stroke-linejoin:round;">
</g>
<g style="fill:#000000; fill-opacity:0.0; 
stroke:#000000; stroke-width:59.0551; stroke-opacity:1; 
stroke-linecap:round; stroke-linejoin:round;">
<path d="M3937 23622
L4724 23622
" />
</g>
<g style="fill:#000000; fill-opacity:0.0; 
stroke:#000000; stroke-width:39.3701; stroke-opacity:1; 
stroke-linecap:round; stroke-linejoin:round;">
</g>
<g style="fill:#000000; fill-opacity:0.0; 
stroke:#000000; stroke-width:59.0551; stroke-opacity:1; 
stroke-linecap:round; stroke-linejoin:round;">
<path d="M3937 43307
L4724 43307
" />
</g>
<g style="fill:#000000; fill-opacity:0.0; 
stroke:#000000; stroke-width:39.3701; stroke-opacity:1; 
stroke-linecap:round; stroke-linejoin:round;">
</g>
<g style="fill:#000000; fill-opacity:0.0; 
stroke:#000000; stroke-width:59.0551; stroke-opacity:1; 
stroke-linecap:round; stroke-linejoin:round;">
<path d="M3937 62992
L4724 62992
" />
</g>
<g style="fill:#000000; fill-opacity:0.0; 
stroke:#000000; stroke-width:39.3701; stroke-opacity:1; 
stroke-linecap:round; stroke-linejoin:round;">
</g>
<g style="fill:#000000; fill-opacity:0.0; 
stroke:#000000; stroke-width:59.0551; stroke-opacity:1; 
stroke-linecap:round; stroke-linejoin:round;">
<path d="M4208 13864
L4452 13864
" />
<path d="M4160 14011
L4330 13499
L4501 14011
" />
</g>
<g style="fill:#000000; fill-opacity:0.0; 
stroke:#000000; stroke-width:39.3701; stroke-opacity:1; 
stroke-linecap:round; stroke-linejoin:round;">
</g>
<g style="fill:#000000; fill-opacity:0.0; 
stroke:#000000; stroke-width:59.0551; stroke-opacity:1; 
stroke-linecap:round; stroke-linejoin:round;">
<path d="M4367 33428
L4440 33452
L4464 33476
L4489 33525
L4489 33598
L4464 33647
L4440 33671
L4391 33696
L4196 33696
L4196 33184
L4367 33184
L4416 33208
L4440 33233
L4464 33281
L4464 33330
L4440 33379
L4416 33403
L4367 33428
L4196 33428
" />
</g>
<g style="fill:#000000; fill-opacity:0.0; 
stroke:#000000; stroke-width:39.3701; stroke-opacity:1; 
stroke-linecap:round; stroke-linejoin:round;">
</g>
<g style="fill:#000000; fill-opacity:0.0; 
stroke:#000000; stroke-width:59.0551; stroke-opacity:1; 
stroke-linecap:round; stroke-linejoin:round;">
<path d="M4489 53332
L4464 53356
L4391 53381
L4342 53381
L4269 53356
L4221 53308
L4196 53259
L4172 53161
L4172 53088
L4196 52991
L4221 52942
L4269 52893
L4342 52869
L4391 52869
L4464 52893
L4489 52918
" />
</g>
<g style="fill:#000000; fill-opacity:0.0; 
stroke:#000000; stroke-width:39.3701; stroke-opacity:1; 
stroke-linecap:round; stroke-linejoin:round;">
</g>
<g style="fill:#000000; fill-opacity:0.0; 
stroke:#000000; stroke-width:59.0551; stroke-opacity:1; 
stroke-linecap:round; stroke-linejoin:round;">
<path d="M4196 73066
L4196 72554
L4318 72554
L4391 72578
L4440 72627
L4464 72676
L4489 72773
L4489 72846
L4464 72944
L4440 72993
L4391 73041
L4318 73066
L4196 73066
" />
</g>
<g style="fill:#000000; fill-opacity:0.0; 
stroke:#000000; stroke-width:39.3701; stroke-opacity:1; 
stroke-linecap:round; stroke-linejoin:round;">
</g>
<g style="fill:#000000; fill-opacity:0.0; 
stroke:#000000; stroke-width:59.0551; stroke-opacity:1; 
stroke-linecap:round; stroke-linejoin:round;">
<path d="M112992 23622
L112205 23622
" />
</g>
<g style="fill:#000000; fill-opacity:0.0; 
stroke:#000000; stroke-width:39.3701; stroke-opacity:1; 
stroke-linecap:round; stroke-linejoin:round;">
</g>
<g style="fill:#000000; fill-opacity:0.0; 
stroke:#000000; stroke-width:59.0551; stroke-opacity:1; 
stroke-linecap:round; stroke-linejoin:round;">
<path d="M112992 43307
L112205 43307
" />
</g>
<g style="fill:#000000; fill-opacity:0.0; 
stroke:#000000; stroke-width:39.3701; stroke-opacity:1; 
stroke-linecap:round; stroke-linejoin:round;">
</g>
<g style="fill:#000000; fill-opacity:0.0; 
stroke:#000000; stroke-width:59.0551; stroke-opacity:1; 
stroke-linecap:round; stroke-linejoin:round;">
<path d="M112992 62992
L112205 62992
" />
</g>
<g style="fill:#000000; fill-opacity:0.0; 
stroke:#000000; stroke-width:39.3701; stroke-opacity:1; 
stroke-linecap:round; stroke-linejoin:round;">
</g>
<g style="fill:#000000; fill-opacity:0.0; 
stroke:#000000; stroke-width:59.0551; stroke-opacity:1; 
stroke-linecap:round; stroke-linejoin:round;">
<path d="M112477 13864
L112721 13864
" />
<path d="M112428 14011
L112599 13499
L112769 14011
" />
</g>
<g style="fill:#000000; fill-opacity:0.0; 
stroke:#000000; stroke-width:39.3701; stroke-opacity:1; 
stroke-linecap:round; stroke-linejoin:round;">
</g>
<g style="fill:#000000; fill-opacity:0.0; 
stroke:#000000; stroke-width:59.0551; stroke-opacity:1; 
stroke-linecap:round; stroke-linejoin:round;">
<path d="M112635 33428
L112708 33452
L112733 33476
L112757 33525
L112757 33598
L112733 33647
L112708 33671
L112660 33696
L112465 33696
L112465 33184
L112635 33184
L112684 33208
L112708 33233
L112733 33281
L112733 33330
L112708 33379
L112684 33403
L112635 33428
L112465 33428
" />
</g>
<g style="fill:#000000; fill-opacity:0.0; 
stroke:#000000; stroke-width:39.3701; stroke-opacity:1; 
stroke-linecap:round; stroke-linejoin:round;">
</g>
<g style="fill:#000000; fill-opacity:0.0; 
stroke:#000000; stroke-width:59.0551; stroke-opacity:1; 
stroke-linecap:round; stroke-linejoin:round;">
<path d="M112757 53332
L112733 53356
L112660 53381
L112611 53381
L112538 53356
L112489 53308
L112465 53259
L112440 53161
L112440 53088
L112465 52991
L112489 52942
L112538 52893
L112611 52869
L112660 52869
L112733 52893
L112757 52918
" />
</g>
<g style="fill:#000000; fill-opacity:0.0; 
stroke:#000000; stroke-width:39.3701; stroke-opacity:1; 
stroke-linecap:round; stroke-linejoin:round;">
</g>
<g style="fill:#000000; fill-opacity:0.0; 
stroke:#000000; stroke-width:59.0551; stroke-opacity:1; 
stroke-linecap:round; stroke-linejoin:round;">
<path d="M112465 73066
L112465 72554
L112587 72554
L112660 72578
L112708 72627
L112733 72676
L112757 72773
L112757 72846
L112733 72944
L112708 72993
L112660 73041
L112587 73066
L112465 73066
" />
</g>
<g style="fill:#000000; fill-opacity:0.0; 
stroke:#000000; stroke-width:39.3701; stroke-opacity:1; 
stroke-linecap:round; stroke-linejoin:round;">
</g>
<g style="fill:#000000; fill-opacity:0.0; 
stroke:#000000; stroke-width:59.0551; stroke-opacity:1; 
stroke-linecap:round; stroke-linejoin:round;">
<path d="M78911 76293
L78911 75703
L79051 75703
L79136 75731
L79192 75787
L79220 75843
L79248 75956
L79248 76040
L79220 76153
L79192 76209
L79136 76265
L79051 76293
L78911 76293
" />
<path d="M79754 76293
L79754 75984
L79726 75928
L79670 75899
L79557 75899
L79501 75928
" />
<path d="M79754 76265
L79698 76293
L79557 76293
L79501 76265
L79473 76209
L79473 76153
L79501 76096
L79557 76068
L79698 76068
L79754 76040
" />
<path d="M79951 75899
L80176 75899
" />
<path d="M80036 75703
L80036 76209
L80064 76265
L80120 76293
L80176 76293
" />
<path d="M80598 76265
L80542 76293
L80429 76293
L80373 76265
L80345 76209
L80345 75984
L80373 75928
L80429 75899
L80542 75899
L80598 75928
L80626 75984
L80626 76040
L80345 76096
" />
<path d="M80879 76237
L80907 76265
L80879 76293
L80851 76265
L80879 76237
L80879 76293
" />
<path d="M80879 75928
L80907 75956
L80879 75984
L80851 75956
L80879 75928
L80879 75984
" />
</g>
<g style="fill:#000000; fill-opacity:0.0; 
stroke:#000000; stroke-width:39.3701; stroke-opacity:1; 
stroke-linecap:round; stroke-linejoin:round;">
</g>
<g style="fill:#000000; fill-opacity:0.0; 
stroke:#000000; stroke-width:59.0551; stroke-opacity:1; 
stroke-linecap:round; stroke-linejoin:round;">
<path d="M69685 76577
L112205 76577
" />
</g>
<g style="fill:#000000; fill-opacity:0.0; 
stroke:#000000; stroke-width:39.3701; stroke-opacity:1; 
stroke-linecap:round; stroke-linejoin:round;">
</g>
<g style="fill:#000000; fill-opacity:0.0; 
stroke:#000000; stroke-width:59.0551; stroke-opacity:1; 
stroke-linecap:round; stroke-linejoin:round;">
<path d="M70249 77395
L70249 76805
" />
<path d="M70587 77395
L70334 77058
" />
<path d="M70587 76805
L70249 77142
" />
<path d="M70840 77395
L70840 77002
" />
<path d="M70840 76805
L70812 76833
L70840 76861
L70868 76833
L70840 76805
L70840 76861
" />
<path d="M71458 77339
L71430 77367
L71346 77395
L71290 77395
L71205 77367
L71149 77311
L71121 77255
L71093 77142
L71093 77058
L71121 76946
L71149 76889
L71205 76833
L71290 76805
L71346 76805
L71430 76833
L71458 76861
" />
<path d="M71965 77395
L71965 77086
L71937 77030
L71880 77002
L71768 77002
L71712 77030
" />
<path d="M71965 77367
L71908 77395
L71768 77395
L71712 77367
L71683 77311
L71683 77255
L71712 77199
L71768 77171
L71908 77171
L71965 77142
" />
<path d="M72499 77395
L72499 76805
" />
<path d="M72499 77367
L72443 77395
L72330 77395
L72274 77367
L72246 77339
L72218 77283
L72218 77114
L72246 77058
L72274 77030
L72330 77002
L72443 77002
L72499 77030
" />
<path d="M73230 77086
L73427 77086
" />
<path d="M73511 77395
L73230 77395
L73230 76805
L73511 76805
" />
<path d="M73764 77339
L73793 77367
L73764 77395
L73736 77367
L73764 77339
L73764 77395
" />
<path d="M74046 77395
L74046 76805
L74186 76805
L74271 76833
L74327 76889
L74355 76946
L74383 77058
L74383 77142
L74355 77255
L74327 77311
L74271 77367
L74186 77395
L74046 77395
" />
<path d="M74636 77339
L74664 77367
L74636 77395
L74608 77367
L74636 77339
L74636 77395
" />
<path d="M74889 77227
L75171 77227
" />
<path d="M74833 77395
L75030 76805
L75227 77395
" />
<path d="M75424 77339
L75452 77367
L75424 77395
L75395 77367
L75424 77339
L75424 77395
" />
<path d="M76605 77395
L76605 76805
" />
<path d="M76661 77171
L76830 77395
" />
<path d="M76830 77002
L76605 77227
" />
<path d="M77083 77395
L77083 77002
" />
<path d="M77083 76805
L77055 76833
L77083 76861
L77111 76833
L77083 76805
L77083 76861
" />
<path d="M77617 77367
L77561 77395
L77448 77395
L77392 77367
L77364 77339
L77336 77283
L77336 77114
L77364 77058
L77392 77030
L77448 77002
L77561 77002
L77617 77030
" />
<path d="M78123 77395
L78123 77086
L78095 77030
L78039 77002
L77926 77002
L77870 77030
" />
<path d="M78123 77367
L78067 77395
L77926 77395
L77870 77367
L77842 77311
L77842 77255
L77870 77199
L77926 77171
L78067 77171
L78123 77142
" />
<path d="M78658 77395
L78658 76805
" />
<path d="M78658 77367
L78601 77395
L78489 77395
L78433 77367
L78404 77339
L78376 77283
L78376 77114
L78404 77058
L78433 77030
L78489 77002
L78601 77002
L78658 77030
" />
<path d="M79670 76805
L79389 76805
L79361 77086
L79389 77058
L79445 77030
L79586 77030
L79642 77058
L79670 77086
L79698 77142
L79698 77283
L79670 77339
L79642 77367
L79586 77395
L79445 77395
L79389 77367
L79361 77339
" />
<path d="M79951 77339
L79979 77367
L79951 77395
L79923 77367
L79951 77339
L79951 77395
" />
<path d="M80345 76805
L80401 76805
L80457 76833
L80485 76861
L80514 76917
L80542 77030
L80542 77171
L80514 77283
L80485 77339
L80457 77367
L80401 77395
L80345 77395
L80289 77367
L80260 77339
L80232 77283
L80204 77171
L80204 77030
L80232 76917
L80260 76861
L80289 76833
L80345 76805
" />
<path d="M80795 77339
L80823 77367
L80795 77395
L80767 77367
L80795 77339
L80795 77395
" />
<path d="M81048 76861
L81076 76833
L81132 76805
L81273 76805
L81329 76833
L81357 76861
L81385 76917
L81385 76974
L81357 77058
L81020 77395
L81385 77395
" />
<path d="M81638 77171
L82088 77171
" />
<path d="M81863 77395
L81863 76946
" />
<path d="M82623 77395
L82623 76805
" />
<path d="M82623 77367
L82566 77395
L82454 77395
L82398 77367
L82370 77339
L82341 77283
L82341 77114
L82370 77058
L82398 77030
L82454 77002
L82566 77002
L82623 77030
" />
<path d="M82820 77002
L83045 77002
" />
<path d="M82904 77395
L82904 76889
L82932 76833
L82988 76805
L83045 76805
" />
<path d="M83213 77367
L83269 77395
L83382 77395
L83438 77367
L83466 77311
L83466 77283
L83438 77227
L83382 77199
L83298 77199
L83241 77171
L83213 77114
L83213 77086
L83241 77030
L83298 77002
L83382 77002
L83438 77030
" />
<path d="M83973 77002
L83973 77480
L83944 77536
L83916 77564
L83860 77592
L83776 77592
L83719 77564
" />
<path d="M83973 77367
L83916 77395
L83804 77395
L83748 77367
L83719 77339
L83691 77283
L83691 77114
L83719 77058
L83748 77030
L83804 77002
L83916 77002
L83973 77030
" />
<path d="M84563 77395
L84226 77395
" />
<path d="M84394 77395
L84394 76805
L84338 76889
L84282 76946
L84226 76974
" />
<path d="M84816 77171
L85266 77171
" />
<path d="M85857 77395
L85519 77395
" />
<path d="M85688 77395
L85688 76805
L85632 76889
L85575 76946
L85519 76974
" />
<path d="M85969 76644
L86503 76644
" />
<path d="M86110 77395
L86110 76805
" />
<path d="M86110 77030
L86166 77002
L86278 77002
L86335 77030
L86363 77058
L86391 77114
L86391 77283
L86363 77339
L86335 77367
L86278 77395
L86166 77395
L86110 77367
" />
<path d="M86503 76644
L87038 76644
" />
<path d="M86644 77002
L86644 77592
" />
<path d="M86644 77030
L86700 77002
L86813 77002
L86869 77030
L86897 77058
L86925 77114
L86925 77283
L86897 77339
L86869 77367
L86813 77395
L86700 77395
L86644 77367
" />
<path d="M87038 76644
L87572 76644
" />
<path d="M87263 77395
L87206 77367
L87178 77339
L87150 77283
L87150 77114
L87178 77058
L87206 77030
L87263 77002
L87347 77002
L87403 77030
L87431 77058
L87460 77114
L87460 77283
L87431 77339
L87403 77367
L87347 77395
L87263 77395
" />
<path d="M87572 76644
L88135 76644
" />
<path d="M87741 77395
L87853 77395
L87910 77367
L87938 77339
L87994 77255
L88022 77142
L88022 76917
L87994 76861
L87966 76833
L87910 76805
L87797 76805
L87741 76833
L87713 76861
L87685 76917
L87685 77058
L87713 77114
L87741 77142
L87797 77171
L87910 77171
L87966 77142
L87994 77114
L88022 77058
" />
<path d="M88135 76644
L88866 76644
" />
<path d="M88275 77171
L88725 77171
" />
<path d="M88500 77395
L88500 76946
" />
<path d="M88866 76644
L89428 76644
" />
<path d="M89316 77395
L88978 77395
" />
<path d="M89147 77395
L89147 76805
L89091 76889
L89034 76946
L88978 76974
" />
</g>
<g style="fill:#000000; fill-opacity:0.0; 
stroke:#000000; stroke-width:39.3701; stroke-opacity:1; 
stroke-linecap:round; stroke-linejoin:round;">
</g>
<g style="fill:#000000; fill-opacity:0.0; 
stroke:#000000; stroke-width:59.0551; stroke-opacity:1; 
stroke-linecap:round; stroke-linejoin:round;">
<path d="M69685 75396
L112205 75396
" />
</g>
<g style="fill:#000000; fill-opacity:0.0; 
stroke:#000000; stroke-width:39.3701; stroke-opacity:1; 
stroke-linecap:round; stroke-linejoin:round;">
</g>
<g style="fill:#000000; fill-opacity:0.0; 
stroke:#000000; stroke-width:118.11; stroke-opacity:1; 
stroke-linecap:round; stroke-linejoin:round;">
<path d="M104099 76293
L103902 76012
" />
<path d="M103761 76293
L103761 75703
L103986 75703
L104042 75731
L104070 75759
L104099 75815
L104099 75899
L104070 75956
L104042 75984
L103986 76012
L103761 76012
" />
<path d="M104577 76265
L104520 76293
L104408 76293
L104352 76265
L104323 76209
L104323 75984
L104352 75928
L104408 75899
L104520 75899
L104577 75928
L104605 75984
L104605 76040
L104323 76096
" />
<path d="M104802 75899
L104942 76293
L105083 75899
" />
<path d="M105308 76237
L105336 76265
L105308 76293
L105280 76265
L105308 76237
L105308 76293
" />
<path d="M105308 75928
L105336 75956
L105308 75984
L105280 75956
L105308 75928
L105308 75984
" />
</g>
<g style="fill:#000000; fill-opacity:0.0; 
stroke:#000000; stroke-width:39.3701; stroke-opacity:1; 
stroke-linecap:round; stroke-linejoin:round;">
</g>
<g style="fill:#000000; fill-opacity:0.0; 
stroke:#000000; stroke-width:59.0551; stroke-opacity:1; 
stroke-linecap:round; stroke-linejoin:round;">
<path d="M70221 76265
L70305 76293
L70446 76293
L70502 76265
L70530 76237
L70559 76181
L70559 76124
L70530 76068
L70502 76040
L70446 76012
L70334 75984
L70277 75956
L70249 75928
L70221 75871
L70221 75815
L70249 75759
L70277 75731
L70334 75703
L70474 75703
L70559 75731
" />
<path d="M70812 76293
L70812 75899
" />
<path d="M70812 75703
L70784 75731
L70812 75759
L70840 75731
L70812 75703
L70812 75759
" />
<path d="M71037 75899
L71346 75899
L71037 76293
L71346 76293
" />
<path d="M71796 76265
L71740 76293
L71627 76293
L71571 76265
L71543 76209
L71543 75984
L71571 75928
L71627 75899
L71740 75899
L71796 75928
L71824 75984
L71824 76040
L71543 76096
" />
<path d="M72077 76237
L72105 76265
L72077 76293
L72049 76265
L72077 76237
L72077 76293
" />
<path d="M72077 75928
L72105 75956
L72077 75984
L72049 75956
L72077 75928
L72077 75984
" />
<path d="M72780 76124
L73061 76124
" />
<path d="M72724 76293
L72921 75703
L73118 76293
" />
<path d="M73568 75899
L73568 76293
" />
<path d="M73427 75674
L73286 76096
L73652 76096
" />
</g>
<g style="fill:#000000; fill-opacity:0.0; 
stroke:#000000; stroke-width:39.3701; stroke-opacity:1; 
stroke-linecap:round; stroke-linejoin:round;">
</g>
<g style="fill:#000000; fill-opacity:0.0; 
stroke:#000000; stroke-width:59.0551; stroke-opacity:1; 
stroke-linecap:round; stroke-linejoin:round;">
<path d="M103714 77395
L103714 76805
" />
<path d="M104248 77395
L104248 76805
" />
<path d="M104248 77367
L104192 77395
L104079 77395
L104023 77367
L103995 77339
L103967 77283
L103967 77114
L103995 77058
L104023 77030
L104079 77002
L104192 77002
L104248 77030
" />
<path d="M104529 77339
L104557 77367
L104529 77395
L104501 77367
L104529 77339
L104529 77395
" />
<path d="M104529 77030
L104557 77058
L104529 77086
L104501 77058
L104529 77030
L104529 77086
" />
<path d="M105570 77395
L105232 77395
" />
<path d="M105401 77395
L105401 76805
L105345 76889
L105289 76946
L105232 76974
" />
<path d="M106245 76777
L105739 77536
" />
<path d="M106751 77395
L106413 77395
" />
<path d="M106582 77395
L106582 76805
L106526 76889
L106470 76946
L106413 76974
" />
</g>
<g style="fill:#000000; fill-opacity:0.0; 
stroke:#000000; stroke-width:39.3701; stroke-opacity:1; 
stroke-linecap:round; stroke-linejoin:round;">
</g>
<g style="fill:#000000; fill-opacity:0.0; 
stroke:#000000; stroke-width:59.0551; stroke-opacity:1; 
stroke-linecap:round; stroke-linejoin:round;">
<path d="M69685 73821
L112205 73821
" />
</g>
<g style="fill:#000000; fill-opacity:0.0; 
stroke:#000000; stroke-width:39.3701; stroke-opacity:1; 
stroke-linecap:round; stroke-linejoin:round;">
</g>
<g style="fill:#000000; fill-opacity:0.0; 
stroke:#000000; stroke-width:157.48; stroke-opacity:1; 
stroke-linecap:round; stroke-linejoin:round;">
<path d="M70360 74099
L70810 74099
" />
<path d="M70486 74886
L70585 74099
" />
<path d="M70974 74886
L71039 74361
" />
<path d="M71072 74099
L71030 74136
L71063 74174
L71105 74136
L71072 74099
L71063 74174
" />
<path d="M71302 74361
L71602 74361
" />
<path d="M71447 74099
L71363 74774
L71391 74849
L71461 74886
L71536 74886
" />
<path d="M71911 74886
L71841 74849
L71813 74774
L71897 74099
" />
<path d="M72516 74849
L72436 74886
L72286 74886
L72216 74849
L72187 74774
L72225 74474
L72272 74399
L72352 74361
L72501 74361
L72572 74399
L72600 74474
L72591 74549
L72206 74624
" />
<path d="M72895 74811
L72928 74849
L72886 74886
L72853 74849
L72895 74811
L72886 74886
" />
<path d="M72947 74399
L72980 74436
L72937 74474
L72905 74436
L72947 74399
L72937 74474
" />
</g>
<g style="fill:#000000; fill-opacity:0.0; 
stroke:#000000; stroke-width:39.3701; stroke-opacity:1; 
stroke-linecap:round; stroke-linejoin:round;">
</g>
<g style="fill:#000000; fill-opacity:0.0; 
stroke:#000000; stroke-width:59.0551; stroke-opacity:1; 
stroke-linecap:round; stroke-linejoin:round;">
<path d="M70446 73070
L70249 73070
" />
<path d="M70249 73380
L70249 72789
L70530 72789
" />
<path d="M70755 73380
L70755 72986
" />
<path d="M70755 72789
L70727 72817
L70755 72845
L70784 72817
L70755 72789
L70755 72845
" />
<path d="M71121 73380
L71065 73352
L71037 73295
L71037 72789
" />
<path d="M71571 73352
L71515 73380
L71402 73380
L71346 73352
L71318 73295
L71318 73070
L71346 73014
L71402 72986
L71515 72986
L71571 73014
L71599 73070
L71599 73127
L71318 73183
" />
<path d="M71852 73323
L71880 73352
L71852 73380
L71824 73352
L71852 73323
L71852 73380
" />
<path d="M71852 73014
L71880 73042
L71852 73070
L71824 73042
L71852 73014
L71852 73070
" />
<path d="M72893 73380
L72555 73380
" />
<path d="M72724 73380
L72724 72789
L72668 72874
L72611 72930
L72555 72958
" />
<path d="M73258 72789
L73314 72789
L73371 72817
L73399 72845
L73427 72902
L73455 73014
L73455 73155
L73427 73267
L73399 73323
L73371 73352
L73314 73380
L73258 73380
L73202 73352
L73174 73323
L73146 73267
L73118 73155
L73118 73014
L73146 72902
L73174 72845
L73202 72817
L73258 72789
" />
<path d="M73708 73380
L73708 72789
" />
<path d="M73764 73155
L73933 73380
" />
<path d="M73933 72986
L73708 73211
" />
<path d="M74186 72986
L74186 73380
" />
<path d="M74186 73042
L74214 73014
L74271 72986
L74355 72986
L74411 73014
L74439 73070
L74439 73380
" />
<path d="M74805 73380
L74749 73352
L74721 73323
L74692 73267
L74692 73099
L74721 73042
L74749 73014
L74805 72986
L74889 72986
L74946 73014
L74974 73042
L75002 73099
L75002 73267
L74974 73323
L74946 73352
L74889 73380
L74805 73380
" />
<path d="M75255 73380
L75255 72789
" />
<path d="M75255 73014
L75311 72986
L75424 72986
L75480 73014
L75508 73042
L75536 73099
L75536 73267
L75508 73323
L75480 73352
L75424 73380
L75311 73380
L75255 73352
" />
<path d="M75761 73352
L75817 73380
L75930 73380
L75986 73352
L76014 73295
L76014 73267
L75986 73211
L75930 73183
L75845 73183
L75789 73155
L75761 73099
L75761 73070
L75789 73014
L75845 72986
L75930 72986
L75986 73014
" />
<path d="M76267 73323
L76295 73352
L76267 73380
L76239 73352
L76267 73323
L76267 73380
" />
<path d="M76548 73380
L76548 72789
" />
<path d="M76605 73155
L76773 73380
" />
<path d="M76773 72986
L76548 73211
" />
<path d="M77027 73380
L77027 72986
" />
<path d="M77027 72789
L76998 72817
L77027 72845
L77055 72817
L77027 72789
L77027 72845
" />
<path d="M77561 73352
L77505 73380
L77392 73380
L77336 73352
L77308 73323
L77280 73267
L77280 73099
L77308 73042
L77336 73014
L77392 72986
L77505 72986
L77561 73014
" />
<path d="M78067 73380
L78067 73070
L78039 73014
L77983 72986
L77870 72986
L77814 73014
" />
<path d="M78067 73352
L78011 73380
L77870 73380
L77814 73352
L77786 73295
L77786 73239
L77814 73183
L77870 73155
L78011 73155
L78067 73127
" />
<path d="M78601 73380
L78601 72789
" />
<path d="M78601 73352
L78545 73380
L78433 73380
L78376 73352
L78348 73323
L78320 73267
L78320 73099
L78348 73042
L78376 73014
L78433 72986
L78545 72986
L78601 73014
" />
<path d="M78742 73436
L79192 73436
" />
<path d="M79332 72986
L79332 73577
" />
<path d="M79332 73014
L79389 72986
L79501 72986
L79557 73014
L79586 73042
L79614 73099
L79614 73267
L79586 73323
L79557 73352
L79501 73380
L79389 73380
L79332 73352
" />
<path d="M80120 73352
L80064 73380
L79951 73380
L79895 73352
L79867 73323
L79839 73267
L79839 73099
L79867 73042
L79895 73014
L79951 72986
L80064 72986
L80120 73014
" />
<path d="M80373 73380
L80373 72789
" />
<path d="M80373 73014
L80429 72986
L80542 72986
L80598 73014
L80626 73042
L80654 73099
L80654 73267
L80626 73323
L80598 73352
L80542 73380
L80429 73380
L80373 73352
" />
</g>
<g style="fill:#000000; fill-opacity:0.0; 
stroke:#000000; stroke-width:39.3701; stroke-opacity:1; 
stroke-linecap:round; stroke-linejoin:round;">
</g>
<g style="fill:#000000; fill-opacity:0.0; 
stroke:#000000; stroke-width:59.0551; stroke-opacity:1; 
stroke-linecap:round; stroke-linejoin:round;">
<path d="M69685 71459
L112205 71459
" />
</g>
<g style="fill:#000000; fill-opacity:0.0; 
stroke:#000000; stroke-width:39.3701; stroke-opacity:1; 
stroke-linecap:round; stroke-linejoin:round;">
</g>
<g style="fill:#000000; fill-opacity:0.0; 
stroke:#000000; stroke-width:59.0551; stroke-opacity:1; 
stroke-linecap:round; stroke-linejoin:round;">
<path d="M70221 72289
L70305 72317
L70446 72317
L70502 72289
L70530 72260
L70559 72204
L70559 72148
L70530 72092
L70502 72064
L70446 72036
L70334 72007
L70277 71979
L70249 71951
L70221 71895
L70221 71839
L70249 71782
L70277 71754
L70334 71726
L70474 71726
L70559 71754
" />
<path d="M70812 72317
L70812 71726
" />
<path d="M71065 72317
L71065 72007
L71037 71951
L70980 71923
L70896 71923
L70840 71951
L70812 71979
" />
<path d="M71571 72289
L71515 72317
L71402 72317
L71346 72289
L71318 72232
L71318 72007
L71346 71951
L71402 71923
L71515 71923
L71571 71951
L71599 72007
L71599 72064
L71318 72120
" />
<path d="M72077 72289
L72021 72317
L71908 72317
L71852 72289
L71824 72232
L71824 72007
L71852 71951
L71908 71923
L72021 71923
L72077 71951
L72105 72007
L72105 72064
L71824 72120
" />
<path d="M72274 71923
L72499 71923
" />
<path d="M72358 71726
L72358 72232
L72386 72289
L72443 72317
L72499 72317
" />
<path d="M72696 72260
L72724 72289
L72696 72317
L72668 72289
L72696 72260
L72696 72317
" />
<path d="M72696 71951
L72724 71979
L72696 72007
L72668 71979
L72696 71951
L72696 72007
" />
</g>
<g style="fill:#000000; fill-opacity:0.0; 
stroke:#000000; stroke-width:39.3701; stroke-opacity:1; 
stroke-linecap:round; stroke-linejoin:round;">
</g>
<g style="fill:#000000; fill-opacity:0.0; 
stroke:#000000; stroke-width:59.0551; stroke-opacity:1; 
stroke-linecap:round; stroke-linejoin:round;">
<path d="M77559 75396
L77559 76577
" />
</g>
<g style="fill:#000000; fill-opacity:0.0; 
stroke:#000000; stroke-width:39.3701; stroke-opacity:1; 
stroke-linecap:round; stroke-linejoin:round;">
</g>
<g style="fill:#000000; fill-opacity:0.0; 
stroke:#000000; stroke-width:59.0551; stroke-opacity:1; 
stroke-linecap:round; stroke-linejoin:round;">
<path d="M102756 75396
L102756 77955
" />
</g>
<g style="fill:#000000; fill-opacity:0.0; 
stroke:#000000; stroke-width:78.7402; stroke-opacity:1; 
stroke-linecap:round; stroke-linejoin:round;">
<path d="M41732 16929
L48425 16929
" />
<path d="M48425 16141
L41535 16141
" />
</g>
<g style="fill:#000000; fill-opacity:0.0; 
stroke:#000000; stroke-width:39.3701; stroke-opacity:1; 
stroke-linecap:round; stroke-linejoin:round;">
<path d="M37007 31027
L36220 31027
" />
<path d="M36220 31027
L36220 32602
" />
<path d="M36220 32602
L37007 32602
" />
<path d="M37007 32602
L37007 31027
" />
<path d="M36614 30314
L36614 31027
" />
<path d="M36614 33314
L36614 32602
" />
<path d="M37007 31263
L36220 31263
" />
<path d="M37007 31303
L36220 31303
" />
<path d="M37007 31224
L36220 31224
" />
<path d="M25878.2 35958.5 A748.031 748.031 0.0 1 0 25878 36876.5 " />
<circle cx="25287.4" cy="36417.3" r="590.551" /> 
<path d="M25877 36876
L25877 35958
" />
<path d="M23685 30413
L23685 31397
" />
<path d="M23685 31397
L26165 31397
" />
<path d="M26165 31397
L26165 30413
" />
<path d="M26165 30413
L23685 30413
" />
<path d="M23425 30905
L23685 30905
" />
<path d="M26425 30905
L26165 30905
" />
<path d="M48559 25492
L48559 24507
" />
<path d="M48559 24507
L46078 24507
" />
<path d="M46078 24507
L46078 25492
" />
<path d="M46078 25492
L48559 25492
" />
<path d="M48818 25000
L48559 25000
" />
<path d="M45818 25000
L46078 25000
" />
<path d="M30559 30511
L30299 30511
" />
<path d="M27559 30511
L27818 30511
" />
<path d="M30299 30019
L27818 30019
" />
<path d="M30299 31003
L30299 30019
" />
<path d="M27818 31003
L30299 31003
" />
<path d="M27818 30019
L27818 31003
" />
<path d="M30055 33366
L30055 32381
" />
<path d="M30055 32381
L27574 32381
" />
<path d="M27574 32381
L27574 33366
" />
<path d="M27574 33366
L30055 33366
" />
<path d="M30314 32874
L30055 32874
" />
<path d="M27314 32874
L27574 32874
" />
<path d="M30842 38090
L30842 37106
" />
<path d="M30842 37106
L28362 37106
" />
<path d="M28362 37106
L28362 38090
" />
<path d="M28362 38090
L30842 38090
" />
<path d="M31102 37598
L30842 37598
" />
<path d="M28102 37598
L28362 37598
" />
<path d="M46850 30464
L46850 30724
" />
<path d="M46850 33464
L46850 33204
" />
<path d="M46358 30724
L46358 33204
" />
<path d="M47342 30724
L46358 30724
" />
<path d="M47342 33204
L47342 30724
" />
<path d="M46358 33204
L47342 33204
" />
<path d="M27795 17322
L27795 22047
" />
<path d="M31653 17322
L27795 17322
" />
<path d="M31653 22047
L31653 17322
" />
<path d="M27795 22047
L31653 22047
" />
<circle cx="29724.4" cy="19488.2" r="1181.1" /> 
<circle cx="28346.5" cy="12401.6" r="1181.1" /> 
<path d="M26417 14960
L30275 14960
" />
<path d="M30275 14960
L30275 10236
" />
<path d="M30275 10236
L26417 10236
" />
<path d="M26417 10236
L26417 14960
" />
<circle cx="36023.6" cy="12401.6" r="1181.1" /> 
<path d="M34094 14960
L37952 14960
" />
<path d="M37952 14960
L37952 10236
" />
<path d="M37952 10236
L34094 10236
" />
<path d="M34094 10236
L34094 14960
" />
<path d="M35275 17322
L35275 22047
" />
<path d="M39133 17322
L35275 17322
" />
<path d="M39133 22047
L39133 17322
" />
<path d="M35275 22047
L39133 22047
" />
<circle cx="37204.7" cy="19488.2" r="1181.1" /> 
<circle cx="43307.1" cy="12401.6" r="1181.1" /> 
<path d="M41377 14960
L45236 14960
" />
<path d="M45236 14960
L45236 10236
" />
<path d="M45236 10236
L41377 10236
" />
<path d="M41377 10236
L41377 14960
" />
<path d="M42755 17322
L42755 22047
" />
<path d="M46614 17322
L42755 17322
" />
<path d="M46614 22047
L46614 17322
" />
<path d="M42755 22047
L46614 22047
" />
<circle cx="44685" cy="19488.2" r="1181.1" /> 
<circle cx="52165.4" cy="19488.2" r="1181.1" /> 
<path d="M50236 22047
L54094 22047
" />
<path d="M54094 22047
L54094 17322
" />
<path d="M54094 17322
L50236 17322
" />
<path d="M50236 17322
L50236 22047
" />
<path d="M48661 10236
L48661 14960
" />
<path d="M52519 10236
L48661 10236
" />
<path d="M52519 14960
L52519 10236
" />
<path d="M48661 14960
L52519 14960
" />
<circle cx="50590.6" cy="12401.6" r="1181.1" /> 
<path d="M49362 29724
L49622 29724
" />
<path d="M52362 29724
L52102 29724
" />
<path d="M49622 30216
L52102 30216
" />
<path d="M49622 29232
L49622 30216
" />
<path d="M52102 29232
L49622 29232
" />
<path d="M52102 30216
L52102 29232
" />
<path d="M39476 37348
L39476 38098
" />
<path d="M39476 38098
L33476 38098
" />
<path d="M33476 38098
L33476 37098
" />
<path d="M33476 37098
L39226 37098
" />
<path d="M39226 37098
L39476 37348
" />
<path d="M20535 35531
L20535 36515
" />
<path d="M20535 36515
L23015 36515
" />
<path d="M23015 36515
L23015 35531
" />
<path d="M23015 35531
L20535 35531
" />
<path d="M20275 36023
L20535 36023
" />
<path d="M23275 36023
L23015 36023
" />
<circle cx="41376" cy="25815" r="350.394" /> 
<path d="M39214 24543
L39214 26314
" />
<path d="M39214 26314
L41856 26314
" />
<path d="M41856 26314
L41856 24543
" />
<path d="M41856 24543
L39214 24543
" />
<path d="M41375 26162
L41376 25468
" />
<path d="M41375 26162
L41376 25468
" />
<path d="M20511 17322
L20511 22047
" />
<path d="M24370 17322
L20511 17322
" />
<path d="M24370 22047
L24370 17322
" />
<path d="M20511 22047
L24370 22047
" />
<circle cx="22440.9" cy="19488.2" r="1181.1" /> 
<circle cx="20866.1" cy="12401.6" r="1181.1" /> 
<path d="M18937 14960
L22795 14960
" />
<path d="M22795 14960
L22795 10236
" />
<path d="M22795 10236
L18937 10236
" />
<path d="M18937 10236
L18937 14960
" />
<path d="M37492 32820
L37492 30714
" />
<path d="M37492 30714
L41492 30714
" />
<path d="M41492 30714
L41492 33214
" />
<path d="M41492 33214
L37885 33214
" />
<path d="M37885 33214
L37492 32820
" />
<path d="M35342 30564
L35736 30958
" />
<path d="M31736 30564
L35342 30564
" />
<path d="M31736 33064
L31736 30564
" />
<path d="M35736 33064
L31736 33064
" />
<path d="M35736 30958
L35736 33064
" />
<circle cx="50885.8" cy="27362.2" r="984.252" /> 
<path d="M51725 27790
L51528 27790
" />
<path d="M51627 27888
L51627 27691
" />
<circle cx="54330.7" cy="34547.2" r="984.252" /> 
<path d="M53902 35387
L53902 35190
" />
<path d="M53804 35288
L54000 35288
" />
<path d="M54857 31246
L54660 31246
" />
<path d="M54758 31148
L54758 31345
" />
<circle cx="54330.7" cy="31988.2" r="984.252" /> 
<path d="M53444 29464
L54429 29464
" />
<path d="M54429 29464
L54429 26984
" />
<path d="M54429 26984
L53444 26984
" />
<path d="M53444 26984
L53444 29464
" />
<path d="M53937 29724
L53937 29464
" />
<path d="M53937 26724
L53937 26984
" />
<path d="M51521 35539
L49415 35539
" />
<path d="M49415 35539
L49415 31539
" />
<path d="M49415 31539
L51915 31539
" />
<path d="M51915 31539
L51915 35145
" />
<path d="M51915 35145
L51521 35539
" />
<path d="M45818 27755
L46078 27755
" />
<path d="M48818 27755
L48559 27755
" />
<path d="M46078 28248
L48559 28248
" />
<path d="M46078 27263
L46078 28248
" />
<path d="M48559 27263
L46078 27263
" />
<path d="M48559 28248
L48559 27263
" />
<path d="M45606 30610
L45606 29625
" />
<path d="M45606 29625
L43125 29625
" />
<path d="M43125 29625
L43125 30610
" />
<path d="M43125 30610
L45606 30610
" />
<path d="M45866 30118
L45606 30118
" />
<path d="M42866 30118
L43125 30118
" />
<circle cx="29822.8" cy="25000" r="984.252" /> 
<path d="M28982 24571
L29179 24571
" />
<path d="M29081 24473
L29081 24670
" />
<path d="M29232 26968
L29232 27755
" />
<path d="M29232 27755
L30413 27755
" />
<path d="M30413 27755
L30413 26968
" />
<path d="M30413 26968
L29232 26968
" />
<path d="M42618 32283
L43799 32283
" />
<path d="M42618 31496
L42618 32283
" />
<path d="M43799 31496
L42618 31496
" />
<path d="M43799 32283
L43799 31496
" />
</g>
<g style="fill:#000000; fill-opacity:0.0; 
stroke:#000000; stroke-width:59.0551; stroke-opacity:1; 
stroke-linecap:round; stroke-linejoin:round;">
<path d="M35957 32471
L35957 32696
" />
<path d="M35957 32583
L35563 32583
L35620 32621
L35657 32658
L35676 32696
" />
<path d="M35957 32302
L35563 32302
L35957 32077
L35563 32077
" />
<path d="M35957 31871
L35957 31796
L35938 31758
L35920 31739
L35863 31702
L35788 31683
L35638 31683
L35601 31702
L35582 31721
L35563 31758
L35563 31833
L35582 31871
L35601 31889
L35638 31908
L35732 31908
L35770 31889
L35788 31871
L35807 31833
L35807 31758
L35788 31721
L35770 31702
L35732 31683
" />
<path d="M35957 31308
L35957 31533
" />
<path d="M35957 31421
L35563 31421
L35620 31458
L35657 31496
L35676 31533
" />
<path d="M35695 30971
L35957 30971
" />
<path d="M35545 31065
L35826 31158
L35826 30915
" />
</g>
<g style="fill:#000000; fill-opacity:0.0; 
stroke:#000000; stroke-width:47.2441; stroke-opacity:1; 
stroke-linecap:round; stroke-linejoin:round;">
<path d="M36756 32165
L36441 32165
L36441 32090
L36456 32045
L36486 32015
L36516 32000
L36576 31985
L36621 31985
L36681 32000
L36711 32015
L36741 32045
L36756 32090
L36756 32165
" />
<path d="M36756 31685
L36756 31865
" />
<path d="M36756 31775
L36441 31775
L36486 31805
L36516 31835
L36531 31865
" />
</g>
<g style="fill:#000000; fill-opacity:0.0; 
stroke:#000000; stroke-width:59.0551; stroke-opacity:1; 
stroke-linecap:round; stroke-linejoin:round;">
<path d="M37500 30418
L37107 30418
" />
<path d="M37500 30193
L37275 30361
" />
<path d="M37107 30193
L37332 30418
" />
<path d="M25034 35430
L24846 35430
L24846 35036
" />
<path d="M25165 35223
L25296 35223
" />
<path d="M25353 35430
L25165 35430
L25165 35036
L25353 35036
" />
<path d="M25521 35430
L25521 35036
L25615 35036
L25671 35055
L25709 35092
L25727 35130
L25746 35205
L25746 35261
L25727 35336
L25709 35373
L25671 35411
L25615 35430
L25521 35430
" />
<path d="M24850 32016
L24625 32016
" />
<path d="M24737 32016
L24737 31622
L24700 31679
L24662 31716
L24625 31735
" />
<path d="M25093 31622
L25131 31622
L25168 31641
L25187 31660
L25206 31697
L25225 31772
L25225 31866
L25206 31941
L25187 31979
L25168 31997
L25131 32016
L25093 32016
L25056 31997
L25037 31979
L25018 31941
L25000 31866
L25000 31772
L25018 31697
L25037 31660
L25056 31641
L25093 31622
" />
<path d="M24737 31083
L24606 30896
" />
<path d="M24512 31083
L24512 30689
L24662 30689
L24700 30708
L24718 30727
L24737 30764
L24737 30821
L24718 30858
L24700 30877
L24662 30896
L24512 30896
" />
<path d="M25112 31083
L24887 31083
" />
<path d="M25000 31083
L25000 30689
L24962 30746
L24925 30783
L24887 30802
" />
<path d="M46831 23888
L46850 23870
L46887 23851
L46981 23851
L47018 23870
L47037 23888
L47056 23926
L47056 23963
L47037 24020
L46812 24245
L47056 24245
" />
<path d="M47206 23888
L47225 23870
L47262 23851
L47356 23851
L47393 23870
L47412 23888
L47431 23926
L47431 23963
L47412 24020
L47187 24245
L47431 24245
" />
<path d="M47675 23851
L47712 23851
L47750 23870
L47768 23888
L47787 23926
L47806 24001
L47806 24095
L47787 24170
L47768 24207
L47750 24226
L47712 24245
L47675 24245
L47637 24226
L47618 24207
L47600 24170
L47581 24095
L47581 24001
L47600 23926
L47618 23888
L47637 23870
L47675 23851
" />
<path d="M47253 25178
L47122 24990
" />
<path d="M47028 25178
L47028 24784
L47178 24784
L47215 24803
L47234 24821
L47253 24859
L47253 24915
L47234 24953
L47215 24971
L47178 24990
L47028 24990
" />
<path d="M47403 24821
L47422 24803
L47459 24784
L47553 24784
L47590 24803
L47609 24821
L47628 24859
L47628 24896
L47609 24953
L47384 25178
L47628 25178
" />
<path d="M28571 31266
L28590 31248
L28627 31229
L28721 31229
L28759 31248
L28777 31266
L28796 31304
L28796 31341
L28777 31398
L28552 31622
L28796 31622
" />
<path d="M28946 31266
L28965 31248
L29002 31229
L29096 31229
L29134 31248
L29152 31266
L29171 31304
L29171 31341
L29152 31398
L28927 31622
L29171 31622
" />
<path d="M29415 31229
L29452 31229
L29490 31248
L29508 31266
L29527 31304
L29546 31379
L29546 31473
L29527 31547
L29508 31585
L29490 31604
L29452 31622
L29415 31622
L29377 31604
L29359 31585
L29340 31547
L29321 31473
L29321 31379
L29340 31304
L29359 31266
L29377 31248
L29415 31229
" />
<path d="M28993 30689
L28862 30502
" />
<path d="M28768 30689
L28768 30296
L28918 30296
L28955 30314
L28974 30333
L28993 30371
L28993 30427
L28974 30464
L28955 30483
L28918 30502
L28768 30502
" />
<path d="M29124 30296
L29368 30296
L29237 30446
L29293 30446
L29330 30464
L29349 30483
L29368 30521
L29368 30614
L29349 30652
L29330 30671
L29293 30689
L29180 30689
L29143 30671
L29124 30652
" />
<path d="M28327 31762
L28346 31744
L28383 31725
L28477 31725
L28514 31744
L28533 31762
L28552 31800
L28552 31837
L28533 31894
L28308 32119
L28552 32119
" />
<path d="M28702 31762
L28721 31744
L28758 31725
L28852 31725
L28889 31744
L28908 31762
L28927 31800
L28927 31837
L28908 31894
L28683 32119
L28927 32119
" />
<path d="M29171 31725
L29208 31725
L29246 31744
L29264 31762
L29283 31800
L29302 31875
L29302 31969
L29283 32044
L29264 32081
L29246 32100
L29208 32119
L29171 32119
L29133 32100
L29114 32081
L29096 32044
L29077 31969
L29077 31875
L29096 31800
L29114 31762
L29133 31744
L29171 31725
" />
<path d="M28749 33052
L28618 32864
" />
<path d="M28524 33052
L28524 32658
L28674 32658
L28711 32677
L28730 32695
L28749 32733
L28749 32789
L28730 32827
L28711 32845
L28674 32864
L28524 32864
" />
<path d="M29086 32789
L29086 33052
" />
<path d="M28993 32639
L28899 32920
L29143 32920
" />
<path d="M29114 36487
L29133 36468
L29171 36449
L29264 36449
L29302 36468
L29321 36487
L29339 36524
L29339 36562
L29321 36618
L29096 36843
L29339 36843
" />
<path d="M29489 36487
L29508 36468
L29546 36449
L29639 36449
L29677 36468
L29696 36487
L29714 36524
L29714 36562
L29696 36618
L29471 36843
L29714 36843
" />
<path d="M29958 36449
L29996 36449
L30033 36468
L30052 36487
L30071 36524
L30089 36599
L30089 36693
L30071 36768
L30052 36805
L30033 36824
L29996 36843
L29958 36843
L29921 36824
L29902 36805
L29883 36768
L29864 36693
L29864 36599
L29883 36524
L29902 36487
L29921 36468
L29958 36449
" />
<path d="M29536 37776
L29405 37589
" />
<path d="M29311 37776
L29311 37382
L29461 37382
L29499 37401
L29517 37420
L29536 37457
L29536 37514
L29517 37551
L29499 37570
L29461 37589
L29311 37589
" />
<path d="M29892 37382
L29705 37382
L29686 37570
L29705 37551
L29742 37532
L29836 37532
L29874 37551
L29892 37570
L29911 37607
L29911 37701
L29892 37739
L29874 37757
L29836 37776
L29742 37776
L29705 37757
L29686 37739
" />
<path d="M47699 32423
L47961 32423
" />
<path d="M47549 32517
L47830 32611
L47830 32367
" />
<path d="M47567 32255
L47567 31992
L47961 32161
" />
<path d="M47567 31767
L47567 31730
L47586 31692
L47605 31673
L47642 31655
L47717 31636
L47811 31636
L47886 31655
L47924 31673
L47942 31692
L47961 31730
L47961 31767
L47942 31805
L47924 31823
L47886 31842
L47811 31861
L47717 31861
L47642 31842
L47605 31823
L47586 31805
L47567 31767
" />
<path d="M47961 31467
L47567 31467
" />
<path d="M47811 31430
L47961 31317
" />
<path d="M47699 31317
L47849 31467
" />
<path d="M47028 32030
L46841 32161
" />
<path d="M47028 32255
L46634 32255
L46634 32105
L46653 32067
L46672 32048
L46709 32030
L46766 32030
L46803 32048
L46822 32067
L46841 32105
L46841 32255
" />
<path d="M46634 31692
L46634 31767
L46653 31805
L46672 31823
L46728 31861
L46803 31880
L46953 31880
L46991 31861
L47009 31842
L47028 31805
L47028 31730
L47009 31692
L46991 31673
L46953 31655
L46859 31655
L46822 31673
L46803 31692
L46784 31730
L46784 31805
L46803 31842
L46822 31861
L46859 31880
" />
<path d="M32914 20330
L32914 20555
" />
<path d="M32914 20443
L32520 20443
L32576 20480
L32614 20518
L32633 20555
" />
<path d="M32520 20087
L32520 20049
L32539 20012
L32558 19993
L32595 19974
L32670 19955
L32764 19955
L32839 19974
L32876 19993
L32895 20012
L32914 20049
L32914 20087
L32895 20124
L32876 20143
L32839 20162
L32764 20180
L32670 20180
L32595 20162
L32558 20143
L32539 20124
L32520 20087
" />
<path d="M32914 19787
L32520 19787
" />
<path d="M32914 19562
L32689 19730
" />
<path d="M32520 19562
L32745 19787
" />
<path d="M25365 22815
L25365 22422
L25515 22422
L25553 22440
L25571 22459
L25590 22497
L25590 22553
L25571 22590
L25553 22609
L25515 22628
L25365 22628
" />
<path d="M25740 22703
L25928 22703
" />
<path d="M25703 22815
L25834 22422
L25965 22815
" />
<path d="M26059 22422
L26321 22422
L26152 22815
" />
<path d="M26696 22815
L26565 22628
" />
<path d="M26471 22815
L26471 22422
L26621 22422
L26659 22440
L26677 22459
L26696 22497
L26696 22553
L26677 22590
L26659 22609
L26621 22628
L26471 22628
" />
<path d="M26809 22422
L26940 22815
L27071 22422
" />
<path d="M27409 22815
L27184 22815
" />
<path d="M27296 22815
L27296 22422
L27259 22478
L27221 22515
L27184 22534
" />
<path d="M31536 13244
L31536 13469
" />
<path d="M31536 13356
L31142 13356
L31198 13394
L31236 13431
L31255 13469
" />
<path d="M31142 13000
L31142 12963
L31161 12925
L31180 12906
L31217 12888
L31292 12869
L31386 12869
L31461 12888
L31498 12906
L31517 12925
L31536 12963
L31536 13000
L31517 13038
L31498 13056
L31461 13075
L31386 13094
L31292 13094
L31217 13075
L31180 13056
L31161 13038
L31142 13000
" />
<path d="M31536 12700
L31142 12700
" />
<path d="M31536 12475
L31311 12644
" />
<path d="M31142 12475
L31367 12700
" />
<path d="M24540 16516
L24540 16122
L24690 16122
L24728 16141
L24746 16160
L24765 16197
L24765 16254
L24746 16291
L24728 16310
L24690 16329
L24540 16329
" />
<path d="M24915 16404
L25103 16404
" />
<path d="M24878 16516
L25009 16122
L25140 16516
" />
<path d="M25440 16122
L25365 16122
L25328 16141
L25309 16160
L25271 16216
L25253 16291
L25253 16441
L25271 16479
L25290 16497
L25328 16516
L25403 16516
L25440 16497
L25459 16479
L25478 16441
L25478 16347
L25459 16310
L25440 16291
L25403 16272
L25328 16272
L25290 16291
L25271 16310
L25253 16347
" />
<path d="M39213 13244
L39213 13469
" />
<path d="M39213 13356
L38819 13356
L38876 13394
L38913 13431
L38932 13469
" />
<path d="M38819 13000
L38819 12963
L38838 12925
L38857 12906
L38894 12888
L38969 12869
L39063 12869
L39138 12888
L39176 12906
L39194 12925
L39213 12963
L39213 13000
L39194 13038
L39176 13056
L39138 13075
L39063 13094
L38969 13094
L38894 13075
L38857 13056
L38838 13038
L38819 13000
" />
<path d="M39213 12700
L38819 12700
" />
<path d="M39213 12475
L38988 12644
" />
<path d="M38819 12475
L39044 12700
" />
<path d="M32611 16516
L32611 16122
L32761 16122
L32799 16141
L32817 16160
L32836 16197
L32836 16254
L32817 16291
L32799 16310
L32761 16329
L32611 16329
" />
<path d="M32986 16404
L33173 16404
" />
<path d="M32949 16516
L33080 16122
L33211 16516
" />
<path d="M33530 16122
L33342 16122
L33323 16310
L33342 16291
L33380 16272
L33473 16272
L33511 16291
L33530 16310
L33548 16347
L33548 16441
L33530 16479
L33511 16497
L33473 16516
L33380 16516
L33342 16497
L33323 16479
" />
<path d="M40394 20330
L40394 20555
" />
<path d="M40394 20443
L40000 20443
L40057 20480
L40094 20518
L40113 20555
" />
<path d="M40000 20087
L40000 20049
L40019 20012
L40038 19993
L40075 19974
L40150 19955
L40244 19955
L40319 19974
L40357 19993
L40375 20012
L40394 20049
L40394 20087
L40375 20124
L40357 20143
L40319 20162
L40244 20180
L40150 20180
L40075 20162
L40038 20143
L40019 20124
L40000 20087
" />
<path d="M40394 19787
L40000 19787
" />
<path d="M40394 19562
L40169 19730
" />
<path d="M40000 19562
L40225 19787
" />
<path d="M34580 23800
L34580 23406
L34730 23406
L34767 23425
L34786 23443
L34805 23481
L34805 23537
L34786 23575
L34767 23593
L34730 23612
L34580 23612
" />
<path d="M34955 23687
L35142 23687
" />
<path d="M34917 23800
L35048 23406
L35179 23800
" />
<path d="M35479 23537
L35479 23800
" />
<path d="M35386 23387
L35292 23668
L35536 23668
" />
<path d="M46497 13244
L46497 13469
" />
<path d="M46497 13356
L46103 13356
L46159 13394
L46197 13431
L46215 13469
" />
<path d="M46103 13000
L46103 12963
L46122 12925
L46140 12906
L46178 12888
L46253 12869
L46347 12869
L46422 12888
L46459 12906
L46478 12925
L46497 12963
L46497 13000
L46478 13038
L46459 13056
L46422 13075
L46347 13094
L46253 13094
L46178 13075
L46140 13056
L46122 13038
L46103 13000
" />
<path d="M46497 12700
L46103 12700
" />
<path d="M46497 12475
L46272 12644
" />
<path d="M46103 12475
L46328 12700
" />
<path d="M40091 16516
L40091 16122
L40241 16122
L40279 16141
L40298 16160
L40316 16197
L40316 16254
L40298 16291
L40279 16310
L40241 16329
L40091 16329
" />
<path d="M40466 16404
L40654 16404
" />
<path d="M40429 16516
L40560 16122
L40691 16516
" />
<path d="M40785 16122
L41029 16122
L40898 16272
L40954 16272
L40991 16291
L41010 16310
L41029 16347
L41029 16441
L41010 16479
L40991 16497
L40954 16516
L40841 16516
L40804 16497
L40785 16479
" />
<path d="M47874 20330
L47874 20555
" />
<path d="M47874 20443
L47481 20443
L47537 20480
L47574 20518
L47593 20555
" />
<path d="M47481 20087
L47481 20049
L47500 20012
L47518 19993
L47556 19974
L47631 19955
L47724 19955
L47799 19974
L47837 19993
L47856 20012
L47874 20049
L47874 20087
L47856 20124
L47837 20143
L47799 20162
L47724 20180
L47631 20180
L47556 20162
L47518 20143
L47500 20124
L47481 20087
" />
<path d="M47874 19787
L47481 19787
" />
<path d="M47874 19562
L47649 19730
" />
<path d="M47481 19562
L47706 19787
" />
<path d="M41076 23406
L41076 23012
L41226 23012
L41263 23031
L41282 23050
L41301 23087
L41301 23143
L41282 23181
L41263 23200
L41226 23218
L41076 23218
" />
<path d="M41451 23293
L41638 23293
" />
<path d="M41413 23406
L41544 23012
L41676 23406
" />
<path d="M41788 23050
L41807 23031
L41844 23012
L41938 23012
L41976 23031
L41994 23050
L42013 23087
L42013 23125
L41994 23181
L41769 23406
L42013 23406
" />
<path d="M55355 20330
L55355 20555
" />
<path d="M55355 20443
L54961 20443
L55017 20480
L55055 20518
L55074 20555
" />
<path d="M54961 20087
L54961 20049
L54980 20012
L54999 19993
L55036 19974
L55111 19955
L55205 19955
L55280 19974
L55317 19993
L55336 20012
L55355 20049
L55355 20087
L55336 20124
L55317 20143
L55280 20162
L55205 20180
L55111 20180
L55036 20162
L54999 20143
L54980 20124
L54961 20087
" />
<path d="M55355 19787
L54961 19787
" />
<path d="M55355 19562
L55130 19730
" />
<path d="M54961 19562
L55186 19787
" />
<path d="M53083 16516
L53083 16122
L53233 16122
L53271 16141
L53290 16160
L53308 16197
L53308 16254
L53290 16291
L53271 16310
L53233 16329
L53083 16329
" />
<path d="M53458 16404
L53646 16404
" />
<path d="M53421 16516
L53552 16122
L53683 16516
" />
<path d="M54021 16516
L53796 16516
" />
<path d="M53908 16516
L53908 16122
L53871 16179
L53833 16216
L53796 16235
" />
<path d="M53780 13244
L53780 13469
" />
<path d="M53780 13356
L53386 13356
L53443 13394
L53480 13431
L53499 13469
" />
<path d="M53386 13000
L53386 12963
L53405 12925
L53424 12906
L53461 12888
L53536 12869
L53630 12869
L53705 12888
L53742 12906
L53761 12925
L53780 12963
L53780 13000
L53761 13038
L53742 13056
L53705 13075
L53630 13094
L53536 13094
L53461 13075
L53424 13056
L53405 13038
L53386 13000
" />
<path d="M53780 12700
L53386 12700
" />
<path d="M53780 12475
L53555 12644
" />
<path d="M53386 12475
L53611 12700
" />
<path d="M51949 21241
L52080 21634
L52212 21241
" />
<path d="M52399 21634
L52362 21616
L52343 21597
L52324 21559
L52324 21447
L52343 21409
L52362 21391
L52399 21372
L52455 21372
L52493 21391
L52512 21409
L52530 21447
L52530 21559
L52512 21597
L52493 21616
L52455 21634
L52399 21634
" />
<path d="M52755 21634
L52718 21616
L52699 21578
L52699 21241
" />
<path d="M23125 34528
L23350 34528
" />
<path d="M23237 34922
L23237 34528
" />
<path d="M23650 34659
L23650 34922
" />
<path d="M23556 34509
L23462 34790
L23706 34790
" />
<path d="M22928 32796
L23153 32796
" />
<path d="M23040 33189
L23040 32796
" />
<path d="M23284 33189
L23284 32796
L23434 32796
L23472 32814
L23490 32833
L23509 32871
L23509 32927
L23490 32964
L23472 32983
L23434 33002
L23284 33002
" />
<path d="M23884 33189
L23659 33189
" />
<path d="M23772 33189
L23772 32796
L23734 32852
L23697 32889
L23659 32908
" />
<path d="M21156 34528
L21381 34528
" />
<path d="M21269 34922
L21269 34528
" />
<path d="M21494 34565
L21512 34547
L21550 34528
L21644 34528
L21681 34547
L21700 34565
L21719 34603
L21719 34640
L21700 34697
L21475 34922
L21719 34922
" />
<path d="M20959 32796
L21184 32796
" />
<path d="M21072 33189
L21072 32796
" />
<path d="M21316 33189
L21316 32796
L21466 32796
L21503 32814
L21522 32833
L21541 32871
L21541 32927
L21522 32964
L21503 32983
L21466 33002
L21316 33002
" />
<path d="M21691 32833
L21709 32814
L21747 32796
L21841 32796
L21878 32814
L21897 32833
L21916 32871
L21916 32908
L21897 32964
L21672 33189
L21916 33189
" />
<path d="M19385 34528
L19610 34528
" />
<path d="M19497 34922
L19497 34528
" />
<path d="M19928 34528
L19741 34528
L19722 34715
L19741 34697
L19778 34678
L19872 34678
L19910 34697
L19928 34715
L19947 34753
L19947 34847
L19928 34884
L19910 34903
L19872 34922
L19778 34922
L19741 34903
L19722 34884
" />
<path d="M19188 32796
L19413 32796
" />
<path d="M19300 33189
L19300 32796
" />
<path d="M19544 33189
L19544 32796
L19694 32796
L19731 32814
L19750 32833
L19769 32871
L19769 32927
L19750 32964
L19731 32983
L19694 33002
L19544 33002
" />
<path d="M19900 32796
L20144 32796
L20013 32946
L20069 32946
L20106 32964
L20125 32983
L20144 33021
L20144 33114
L20125 33152
L20106 33171
L20069 33189
L19956 33189
L19919 33171
L19900 33152
" />
<path d="M21653 29016
L21653 28622
" />
<path d="M21841 29016
L21841 28622
L22065 29016
L22065 28622
" />
<path d="M22440 28622
L22253 28622
L22234 28810
L22253 28791
L22290 28772
L22384 28772
L22422 28791
L22440 28810
L22459 28847
L22459 28941
L22440 28979
L22422 28997
L22384 29016
L22290 29016
L22253 28997
L22234 28979
" />
<path d="M21550 26890
L21775 26890
" />
<path d="M21662 27284
L21662 26890
" />
<path d="M21906 27284
L21906 26890
L22056 26890
L22094 26909
L22112 26928
L22131 26965
L22131 27021
L22112 27059
L22094 27078
L22056 27096
L21906 27096
" />
<path d="M22469 27021
L22469 27284
" />
<path d="M22375 26871
L22281 27153
L22525 27153
" />
<path d="M23675 29023
L23675 28630
" />
<path d="M23863 29023
L23863 28630
L24088 29023
L24088 28630
" />
<path d="M24444 28761
L24444 29023
" />
<path d="M24350 28611
L24256 28892
L24500 28892
" />
<path d="M23572 26897
L23797 26897
" />
<path d="M23685 27291
L23685 26897
" />
<path d="M23928 27291
L23928 26897
L24078 26897
L24116 26916
L24135 26935
L24153 26972
L24153 27029
L24135 27066
L24116 27085
L24078 27104
L23928 27104
" />
<path d="M24510 26897
L24322 26897
L24303 27085
L24322 27066
L24360 27047
L24453 27047
L24491 27066
L24510 27085
L24528 27122
L24528 27216
L24510 27254
L24491 27272
L24453 27291
L24360 27291
L24322 27272
L24303 27254
" />
<path d="M54021 25867
L53983 25848
L53965 25829
L53946 25792
L53946 25679
L53965 25642
L53983 25623
L54021 25604
L54077 25604
L54115 25623
L54133 25642
L54152 25679
L54152 25792
L54133 25829
L54115 25848
L54077 25867
L54021 25867
" />
<path d="M54490 25604
L54490 25867
" />
<path d="M54321 25604
L54321 25810
L54340 25848
L54377 25867
L54433 25867
L54471 25848
L54490 25829
" />
<path d="M54621 25604
L54771 25604
" />
<path d="M54677 25473
L54677 25810
L54696 25848
L54733 25867
L54771 25867
" />
<path d="M55108 25867
L54883 25867
" />
<path d="M54996 25867
L54996 25473
L54958 25529
L54921 25567
L54883 25585
" />
<path d="M54030 23741
L54255 23741
" />
<path d="M54143 24134
L54143 23741
" />
<path d="M54386 24134
L54386 23741
L54536 23741
L54574 23759
L54593 23778
L54611 23816
L54611 23872
L54593 23909
L54574 23928
L54536 23947
L54386 23947
" />
<path d="M54743 23741
L55005 23741
L54836 24134
" />
<path d="M24971 34715
L25028 34734
L25046 34753
L25065 34790
L25065 34847
L25046 34884
L25028 34903
L24990 34922
L24840 34922
L24840 34528
L24971 34528
L25009 34547
L25028 34565
L25046 34603
L25046 34640
L25028 34678
L25009 34697
L24971 34715
L24840 34715
" />
<path d="M25403 34922
L25403 34715
L25384 34678
L25346 34659
L25271 34659
L25234 34678
" />
<path d="M25403 34903
L25365 34922
L25271 34922
L25234 34903
L25215 34865
L25215 34828
L25234 34790
L25271 34772
L25365 34772
L25403 34753
" />
<path d="M25534 34659
L25684 34659
" />
<path d="M25590 34528
L25590 34865
L25609 34903
L25646 34922
L25684 34922
" />
<path d="M25759 34659
L25909 34659
" />
<path d="M25815 34528
L25815 34865
L25834 34903
L25871 34922
L25909 34922
" />
<path d="M26040 34772
L26340 34772
" />
<path d="M26190 34922
L26190 34622
" />
<path d="M25093 32796
L25318 32796
" />
<path d="M25206 33189
L25206 32796
" />
<path d="M25449 33189
L25449 32796
L25599 32796
L25637 32814
L25656 32833
L25674 32871
L25674 32927
L25656 32964
L25637 32983
L25599 33002
L25449 33002
" />
<path d="M25862 33189
L25937 33189
L25974 33171
L25993 33152
L26031 33096
L26049 33021
L26049 32871
L26031 32833
L26012 32814
L25974 32796
L25899 32796
L25862 32814
L25843 32833
L25824 32871
L25824 32964
L25843 33002
L25862 33021
L25899 33039
L25974 33039
L26012 33021
L26031 33002
L26049 32964
" />
<path d="M25510 28897
L25567 28916
L25585 28935
L25604 28972
L25604 29028
L25585 29066
L25567 29085
L25529 29103
L25379 29103
L25379 28710
L25510 28710
L25548 28728
L25567 28747
L25585 28785
L25585 28822
L25567 28860
L25548 28878
L25510 28897
L25379 28897
" />
<path d="M25941 29103
L25941 28897
L25923 28860
L25885 28841
L25810 28841
L25773 28860
" />
<path d="M25941 29085
L25904 29103
L25810 29103
L25773 29085
L25754 29047
L25754 29010
L25773 28972
L25810 28953
L25904 28953
L25941 28935
" />
<path d="M26073 28841
L26223 28841
" />
<path d="M26129 28710
L26129 29047
L26148 29085
L26185 29103
L26223 29103
" />
<path d="M26298 28841
L26448 28841
" />
<path d="M26354 28710
L26354 29047
L26373 29085
L26410 29103
L26448 29103
" />
<path d="M26579 28953
L26879 28953
" />
<path d="M25445 26977
L25670 26977
" />
<path d="M25557 27371
L25557 26977
" />
<path d="M25801 27371
L25801 26977
L25951 26977
L25988 26996
L26007 27015
L26026 27052
L26026 27109
L26007 27146
L25988 27165
L25951 27184
L25801 27184
" />
<path d="M26401 27371
L26176 27371
" />
<path d="M26288 27371
L26288 26977
L26251 27034
L26213 27071
L26176 27090
" />
<path d="M26645 26977
L26682 26977
L26720 26996
L26738 27015
L26757 27052
L26776 27127
L26776 27221
L26757 27296
L26738 27334
L26720 27352
L26682 27371
L26645 27371
L26607 27352
L26588 27334
L26570 27296
L26551 27221
L26551 27127
L26570 27052
L26588 27015
L26607 26996
L26645 26977
" />
<path d="M50487 25295
L50449 25276
L50393 25276
L50337 25295
L50299 25332
L50281 25370
L50262 25445
L50262 25501
L50281 25576
L50299 25613
L50337 25651
L50393 25670
L50431 25670
L50487 25651
L50506 25632
L50506 25501
L50431 25501
" />
<path d="M50674 25670
L50674 25276
L50899 25670
L50899 25276
" />
<path d="M51087 25670
L51087 25276
L51181 25276
L51237 25295
L51274 25332
L51293 25370
L51312 25445
L51312 25501
L51293 25576
L51274 25613
L51237 25651
L51181 25670
L51087 25670
" />
<path d="M50103 23544
L50328 23544
" />
<path d="M50215 23937
L50215 23544
" />
<path d="M50459 23937
L50459 23544
L50609 23544
L50646 23562
L50665 23581
L50684 23619
L50684 23675
L50665 23712
L50646 23731
L50609 23750
L50459 23750
" />
<path d="M51059 23937
L50834 23937
" />
<path d="M50946 23937
L50946 23544
L50909 23600
L50871 23637
L50834 23656
" />
<path d="M51434 23937
L51209 23937
" />
<path d="M51321 23937
L51321 23544
L51284 23600
L51246 23637
L51209 23656
" />
<path d="M50815 28969
L50590 28969
" />
<path d="M50702 28969
L50702 28575
L50665 28631
L50627 28669
L50590 28688
" />
<path d="M50984 28969
L50984 28575
" />
<path d="M51021 28819
L51134 28969
" />
<path d="M51134 28706
L50984 28856
" />
<path d="M50796 29902
L50665 29715
" />
<path d="M50571 29902
L50571 29508
L50721 29508
L50759 29527
L50777 29546
L50796 29583
L50796 29640
L50777 29677
L50759 29696
L50721 29715
L50571 29715
" />
<path d="M51021 29677
L50984 29658
L50965 29640
L50946 29602
L50946 29583
L50965 29546
L50984 29527
L51021 29508
L51096 29508
L51134 29527
L51152 29546
L51171 29583
L51171 29602
L51152 29640
L51134 29658
L51096 29677
L51021 29677
L50984 29696
L50965 29715
L50946 29752
L50946 29827
L50965 29865
L50984 29883
L51021 29902
L51096 29902
L51134 29883
L51152 29865
L51171 29827
L51171 29752
L51152 29715
L51134 29696
L51096 29677
" />
<path d="M35320 38723
L35301 38742
L35245 38760
L35208 38760
L35151 38742
L35114 38704
L35095 38667
L35076 38592
L35076 38535
L35095 38460
L35114 38423
L35151 38385
L35208 38367
L35245 38367
L35301 38385
L35320 38404
" />
<path d="M35545 38760
L35508 38742
L35489 38723
L35470 38685
L35470 38573
L35489 38535
L35508 38517
L35545 38498
L35601 38498
L35639 38517
L35658 38535
L35676 38573
L35676 38685
L35658 38723
L35639 38742
L35601 38760
L35545 38760
" />
<path d="M35845 38498
L35845 38760
" />
<path d="M35845 38535
L35864 38517
L35901 38498
L35958 38498
L35995 38517
L36014 38554
L36014 38760
" />
<path d="M36201 38498
L36201 38760
" />
<path d="M36201 38535
L36220 38517
L36257 38498
L36314 38498
L36351 38517
L36370 38554
L36370 38760
" />
<path d="M36464 38798
L36764 38798
" />
<path d="M36932 38367
L36970 38367
L37007 38385
L37026 38404
L37045 38442
L37064 38517
L37064 38610
L37045 38685
L37026 38723
L37007 38742
L36970 38760
L36932 38760
L36895 38742
L36876 38723
L36857 38685
L36839 38610
L36839 38517
L36857 38442
L36876 38404
L36895 38385
L36932 38367
" />
<path d="M37439 38760
L37214 38760
" />
<path d="M37326 38760
L37326 38367
L37289 38423
L37251 38460
L37214 38479
" />
<path d="M37570 38760
L37776 38498
" />
<path d="M37570 38498
L37776 38760
" />
<path d="M38001 38367
L38038 38367
L38076 38385
L38095 38404
L38113 38442
L38132 38517
L38132 38610
L38113 38685
L38095 38723
L38076 38742
L38038 38760
L38001 38760
L37964 38742
L37945 38723
L37926 38685
L37907 38610
L37907 38517
L37926 38442
L37945 38404
L37964 38385
L38001 38367
" />
<path d="M38470 38367
L38395 38367
L38357 38385
L38338 38404
L38301 38460
L38282 38535
L38282 38685
L38301 38723
L38320 38742
L38357 38760
L38432 38760
L38470 38742
L38488 38723
L38507 38685
L38507 38592
L38488 38554
L38470 38535
L38432 38517
L38357 38517
L38320 38535
L38301 38554
L38282 38592
" />
<path d="M38582 38798
L38882 38798
" />
<path d="M39107 38554
L38976 38554
" />
<path d="M38976 38760
L38976 38367
L39163 38367
" />
<path d="M39463 38742
L39426 38760
L39351 38760
L39313 38742
L39295 38704
L39295 38554
L39313 38517
L39351 38498
L39426 38498
L39463 38517
L39482 38554
L39482 38592
L39295 38629
" />
<path d="M39651 38760
L39651 38498
" />
<path d="M39651 38535
L39670 38517
L39707 38498
L39763 38498
L39801 38517
L39820 38554
L39820 38760
" />
<path d="M39820 38554
L39838 38517
L39876 38498
L39932 38498
L39970 38517
L39988 38554
L39988 38760
" />
<path d="M40344 38760
L40344 38554
L40326 38517
L40288 38498
L40213 38498
L40176 38517
" />
<path d="M40344 38742
L40307 38760
L40213 38760
L40176 38742
L40157 38704
L40157 38667
L40176 38629
L40213 38610
L40307 38610
L40344 38592
" />
<path d="M40588 38760
L40551 38742
L40532 38704
L40532 38367
" />
<path d="M40888 38742
L40851 38760
L40776 38760
L40738 38742
L40719 38704
L40719 38554
L40738 38517
L40776 38498
L40851 38498
L40888 38517
L40907 38554
L40907 38592
L40719 38629
" />
<path d="M36345 37382
L36345 37664
L36326 37720
L36288 37757
L36232 37776
L36195 37776
" />
<path d="M36738 37776
L36513 37776
" />
<path d="M36626 37776
L36626 37382
L36588 37439
L36551 37476
L36513 37495
" />
<path d="M21456 36741
L21700 36741
L21569 36891
L21625 36891
L21663 36909
L21681 36928
L21700 36966
L21700 37059
L21681 37097
L21663 37116
L21625 37134
L21513 37134
L21475 37116
L21456 37097
" />
<path d="M21831 36741
L22075 36741
L21944 36891
L22000 36891
L22038 36909
L22056 36928
L22075 36966
L22075 37059
L22056 37097
L22038 37116
L22000 37134
L21888 37134
L21850 37116
L21831 37097
" />
<path d="M21709 36201
L21578 36014
" />
<path d="M21485 36201
L21485 35808
L21634 35808
L21672 35826
L21691 35845
L21709 35883
L21709 35939
L21691 35976
L21672 35995
L21634 36014
L21485 36014
" />
<path d="M21841 35808
L22103 35808
L21934 36201
" />
<path d="M39710 26985
L39485 26985
" />
<path d="M39598 26985
L39598 26591
L39560 26647
L39523 26685
L39485 26703
" />
<path d="M39879 26985
L39879 26591
" />
<path d="M39916 26835
L40029 26985
" />
<path d="M40029 26722
L39879 26872
" />
<path d="M40104 27022
L40404 27022
" />
<path d="M40441 26591
L40666 26591
" />
<path d="M40554 26985
L40554 26591
" />
<path d="M40797 26985
L40797 26722
" />
<path d="M40797 26797
L40816 26760
L40835 26741
L40872 26722
L40910 26722
" />
<path d="M41041 26985
L41041 26722
" />
<path d="M41041 26591
L41022 26610
L41041 26628
L41060 26610
L41041 26591
L41041 26628
" />
<path d="M41229 26985
L41229 26722
" />
<path d="M41229 26760
L41247 26741
L41285 26722
L41341 26722
L41379 26741
L41397 26778
L41397 26985
" />
<path d="M41397 26778
L41416 26741
L41454 26722
L41510 26722
L41547 26741
L41566 26778
L41566 26985
" />
<path d="M40079 25592
L39958 25420
" />
<path d="M39872 25592
L39872 25230
L40010 25230
L40045 25248
L40062 25265
L40079 25299
L40079 25351
L40062 25386
L40045 25403
L40010 25420
L39872 25420
" />
<path d="M40183 25230
L40303 25592
L40424 25230
" />
<path d="M40562 25592
L40631 25592
L40666 25575
L40683 25558
L40717 25506
L40735 25437
L40735 25299
L40717 25265
L40700 25248
L40666 25230
L40597 25230
L40562 25248
L40545 25265
L40528 25299
L40528 25386
L40545 25420
L40562 25437
L40597 25455
L40666 25455
L40700 25437
L40717 25420
L40735 25386
" />
<path d="M25630 20330
L25630 20555
" />
<path d="M25630 20443
L25237 20443
L25293 20480
L25330 20518
L25349 20555
" />
<path d="M25237 20087
L25237 20049
L25255 20012
L25274 19993
L25312 19974
L25387 19955
L25480 19955
L25555 19974
L25593 19993
L25612 20012
L25630 20049
L25630 20087
L25612 20124
L25593 20143
L25555 20162
L25480 20180
L25387 20180
L25312 20162
L25274 20143
L25255 20124
L25237 20087
" />
<path d="M25630 19787
L25237 19787
" />
<path d="M25630 19562
L25405 19730
" />
<path d="M25237 19562
L25462 19787
" />
<path d="M18213 22619
L18213 22225
L18363 22225
L18400 22244
L18419 22262
L18438 22300
L18438 22356
L18419 22394
L18400 22412
L18363 22431
L18213 22431
" />
<path d="M18738 22412
L18794 22431
L18813 22450
L18832 22487
L18832 22544
L18813 22581
L18794 22600
L18757 22619
L18607 22619
L18607 22225
L18738 22225
L18775 22244
L18794 22262
L18813 22300
L18813 22337
L18794 22375
L18775 22394
L18738 22412
L18607 22412
" />
<path d="M19206 22619
L18982 22619
" />
<path d="M19094 22619
L19094 22225
L19056 22281
L19019 22319
L18982 22337
" />
<path d="M24056 13244
L24056 13469
" />
<path d="M24056 13356
L23662 13356
L23718 13394
L23756 13431
L23774 13469
" />
<path d="M23662 13000
L23662 12963
L23681 12925
L23699 12906
L23737 12888
L23812 12869
L23906 12869
L23981 12888
L24018 12906
L24037 12925
L24056 12963
L24056 13000
L24037 13038
L24018 13056
L23981 13075
L23906 13094
L23812 13094
L23737 13075
L23699 13056
L23681 13038
L23662 13000
" />
<path d="M24056 12700
L23662 12700
" />
<path d="M24056 12475
L23831 12644
" />
<path d="M23662 12475
L23887 12700
" />
<path d="M17622 16713
L17622 16319
L17772 16319
L17810 16338
L17829 16357
L17847 16394
L17847 16451
L17829 16488
L17810 16507
L17772 16526
L17622 16526
" />
<path d="M18147 16507
L18203 16526
L18222 16544
L18241 16582
L18241 16638
L18222 16676
L18203 16694
L18166 16713
L18016 16713
L18016 16319
L18147 16319
L18185 16338
L18203 16357
L18222 16394
L18222 16432
L18203 16469
L18185 16488
L18147 16507
L18016 16507
" />
<path d="M18485 16319
L18522 16319
L18560 16338
L18578 16357
L18597 16394
L18616 16469
L18616 16563
L18597 16638
L18578 16676
L18560 16694
L18522 16713
L18485 16713
L18447 16694
L18428 16676
L18410 16638
L18391 16563
L18391 16469
L18410 16394
L18428 16357
L18447 16338
L18485 16319
" />
<path d="M42087 33239
L41693 33239
L41975 33108
L41693 32976
L42087 32976
" />
<path d="M42050 32564
L42068 32583
L42087 32639
L42087 32676
L42068 32733
L42031 32770
L41993 32789
L41918 32808
L41862 32808
L41787 32789
L41750 32770
L41712 32733
L41693 32676
L41693 32639
L41712 32583
L41731 32564
" />
<path d="M42087 32395
L41693 32395
L41693 32245
L41712 32208
L41731 32189
L41768 32170
L41825 32170
L41862 32189
L41881 32208
L41900 32245
L41900 32395
" />
<path d="M41825 31833
L42087 31833
" />
<path d="M41675 31927
L41956 32020
L41956 31777
" />
<path d="M41862 31570
L41843 31608
L41825 31627
L41787 31645
L41768 31645
L41731 31627
L41712 31608
L41693 31570
L41693 31495
L41712 31458
L41731 31439
L41768 31420
L41787 31420
L41825 31439
L41843 31458
L41862 31495
L41862 31570
L41881 31608
L41900 31627
L41937 31645
L42012 31645
L42050 31627
L42068 31608
L42087 31570
L42087 31495
L42068 31458
L42050 31439
L42012 31420
L41937 31420
L41900 31439
L41881 31458
L41862 31495
" />
<path d="M41731 31270
L41712 31252
L41693 31214
L41693 31120
L41712 31083
L41731 31064
L41768 31045
L41806 31045
L41862 31064
L42087 31289
L42087 31045
" />
<path d="M41731 30895
L41712 30877
L41693 30839
L41693 30745
L41712 30708
L41731 30689
L41768 30670
L41806 30670
L41862 30689
L42087 30914
L42087 30670
" />
<path d="M39276 32264
L39595 32264
L39632 32245
L39651 32227
L39670 32189
L39670 32114
L39651 32077
L39632 32058
L39595 32039
L39276 32039
" />
<path d="M39670 31645
L39670 31870
" />
<path d="M39670 31758
L39276 31758
L39332 31795
L39370 31833
L39389 31870
" />
<path d="M31103 32508
L31103 32583
L31122 32621
L31140 32639
L31197 32677
L31272 32696
L31422 32696
L31459 32677
L31478 32658
L31497 32621
L31497 32546
L31478 32508
L31459 32489
L31422 32471
L31328 32471
L31290 32489
L31272 32508
L31253 32546
L31253 32621
L31272 32658
L31290 32677
L31328 32696
" />
<path d="M31497 32302
L31103 32302
L31497 32077
L31103 32077
" />
<path d="M31497 31683
L31497 31908
" />
<path d="M31497 31796
L31103 31796
L31159 31833
L31197 31871
L31215 31908
" />
<path d="M31103 31552
L31103 31308
L31253 31440
L31253 31383
L31272 31346
L31290 31327
L31328 31308
L31422 31308
L31459 31327
L31478 31346
L31497 31383
L31497 31496
L31478 31533
L31459 31552
" />
<path d="M31272 31083
L31253 31121
L31234 31140
L31197 31158
L31178 31158
L31140 31140
L31122 31121
L31103 31083
L31103 31008
L31122 30971
L31140 30952
L31178 30933
L31197 30933
L31234 30952
L31253 30971
L31272 31008
L31272 31083
L31290 31121
L31309 31140
L31347 31158
L31422 31158
L31459 31140
L31478 31121
L31497 31083
L31497 31008
L31478 30971
L31459 30952
L31422 30933
L31347 30933
L31309 30952
L31290 30971
L31272 31008
" />
<path d="M33520 32114
L33839 32114
L33876 32096
L33895 32077
L33914 32039
L33914 31964
L33895 31927
L33876 31908
L33839 31889
L33520 31889
" />
<path d="M33520 31739
L33520 31496
L33670 31627
L33670 31571
L33689 31533
L33708 31514
L33745 31496
L33839 31496
L33876 31514
L33895 31533
L33914 31571
L33914 31683
L33895 31721
L33876 31739
" />
<path d="M49432 26063
L49207 26063
" />
<path d="M49320 26063
L49320 25670
L49282 25726
L49245 25763
L49207 25782
" />
<path d="M49676 25670
L49714 25670
L49751 25688
L49770 25707
L49789 25745
L49807 25820
L49807 25913
L49789 25988
L49770 26026
L49751 26045
L49714 26063
L49676 26063
L49639 26045
L49620 26026
L49601 25988
L49582 25913
L49582 25820
L49601 25745
L49620 25707
L49639 25688
L49676 25670
" />
<path d="M50051 25670
L50089 25670
L50126 25688
L50145 25707
L50164 25745
L50182 25820
L50182 25913
L50164 25988
L50145 26026
L50126 26045
L50089 26063
L50051 26063
L50014 26045
L49995 26026
L49976 25988
L49957 25913
L49957 25820
L49976 25745
L49995 25707
L50014 25688
L50051 25670
" />
<path d="M50351 26063
L50351 25801
" />
<path d="M50351 25838
L50370 25820
L50407 25801
L50464 25801
L50501 25820
L50520 25857
L50520 26063
" />
<path d="M50520 25857
L50538 25820
L50576 25801
L50632 25801
L50670 25820
L50688 25857
L50688 26063
" />
<path d="M50782 26101
L51082 26101
" />
<path d="M51345 26045
L51307 26063
L51232 26063
L51195 26045
L51176 26026
L51157 25988
L51157 25876
L51176 25838
L51195 25820
L51232 25801
L51307 25801
L51345 25820
" />
<path d="M51513 26063
L51513 25670
" />
<path d="M51682 26063
L51682 25857
L51663 25820
L51626 25801
L51570 25801
L51532 25820
L51513 25838
" />
<path d="M52020 26045
L51982 26063
L51907 26063
L51870 26045
L51851 26007
L51851 25857
L51870 25820
L51907 25801
L51982 25801
L52020 25820
L52038 25857
L52038 25895
L51851 25932
" />
<path d="M52207 26063
L52207 25801
" />
<path d="M52207 25838
L52226 25820
L52263 25801
L52320 25801
L52357 25820
L52376 25857
L52376 26063
" />
<path d="M52376 25857
L52395 25820
L52432 25801
L52488 25801
L52526 25820
L52544 25857
L52544 26063
" />
<path d="M50820 27502
L50801 27521
L50745 27540
L50707 27540
L50651 27521
L50613 27484
L50595 27446
L50576 27371
L50576 27315
L50595 27240
L50613 27202
L50651 27165
L50707 27146
L50745 27146
L50801 27165
L50820 27184
" />
<path d="M51195 27540
L50970 27540
" />
<path d="M51082 27540
L51082 27146
L51045 27202
L51007 27240
L50970 27259
" />
<path d="M55985 34884
L55985 35109
" />
<path d="M55985 34997
L55591 34997
L55647 35034
L55685 35072
L55703 35109
" />
<path d="M55591 34640
L55591 34603
L55610 34565
L55628 34547
L55666 34528
L55741 34509
L55835 34509
L55910 34528
L55947 34547
L55966 34565
L55985 34603
L55985 34640
L55966 34678
L55947 34697
L55910 34715
L55835 34734
L55741 34734
L55666 34715
L55628 34697
L55610 34678
L55591 34640
" />
<path d="M55985 34341
L55722 34341
" />
<path d="M55760 34341
L55741 34322
L55722 34284
L55722 34228
L55741 34191
L55778 34172
L55985 34172
" />
<path d="M55778 34172
L55741 34153
L55722 34116
L55722 34059
L55741 34022
L55778 34003
L55985 34003
" />
<path d="M54471 34612
L54490 34631
L54508 34687
L54508 34725
L54490 34781
L54452 34819
L54415 34837
L54340 34856
L54283 34856
L54208 34837
L54171 34819
L54133 34781
L54115 34725
L54115 34687
L54133 34631
L54152 34612
" />
<path d="M54246 34275
L54508 34275
" />
<path d="M54096 34369
L54377 34462
L54377 34219
" />
<path d="M53032 32325
L53032 32550
" />
<path d="M53032 32438
L52638 32438
L52694 32475
L52732 32513
L52751 32550
" />
<path d="M52638 32081
L52638 32044
L52657 32006
L52676 31988
L52713 31969
L52788 31950
L52882 31950
L52957 31969
L52994 31988
L53013 32006
L53032 32044
L53032 32081
L53013 32119
L52994 32138
L52957 32156
L52882 32175
L52788 32175
L52713 32156
L52676 32138
L52657 32119
L52638 32081
" />
<path d="M53032 31781
L52769 31781
" />
<path d="M52807 31781
L52788 31763
L52769 31725
L52769 31669
L52788 31631
L52826 31613
L53032 31613
" />
<path d="M52826 31613
L52788 31594
L52769 31556
L52769 31500
L52788 31463
L52826 31444
L53032 31444
" />
<path d="M54471 32053
L54490 32072
L54508 32128
L54508 32166
L54490 32222
L54452 32260
L54415 32278
L54340 32297
L54283 32297
L54208 32278
L54171 32260
L54133 32222
L54115 32166
L54115 32128
L54133 32072
L54152 32053
" />
<path d="M54115 31697
L54115 31885
L54302 31903
L54283 31885
L54265 31847
L54265 31753
L54283 31716
L54302 31697
L54340 31678
L54433 31678
L54471 31697
L54490 31716
L54508 31753
L54508 31847
L54490 31885
L54471 31903
" />
<path d="M55048 28683
L55048 28908
" />
<path d="M55048 28796
L54654 28796
L54710 28833
L54748 28871
L54766 28908
" />
<path d="M54654 28440
L54654 28402
L54673 28365
L54691 28346
L54729 28327
L54804 28308
L54898 28308
L54973 28327
L55010 28346
L55029 28365
L55048 28402
L55048 28440
L55029 28477
L55010 28496
L54973 28514
L54898 28533
L54804 28533
L54729 28514
L54691 28496
L54673 28477
L54654 28440
" />
<path d="M54654 28065
L54654 28027
L54673 27990
L54691 27971
L54729 27952
L54804 27933
L54898 27933
L54973 27952
L55010 27971
L55029 27990
L55048 28027
L55048 28065
L55029 28102
L55010 28121
L54973 28140
L54898 28158
L54804 28158
L54729 28140
L54691 28121
L54673 28102
L54654 28065
" />
<path d="M55048 27540
L54860 27671
" />
<path d="M55048 27765
L54654 27765
L54654 27615
L54673 27577
L54691 27558
L54729 27540
L54785 27540
L54823 27558
L54841 27577
L54860 27615
L54860 27765
" />
<path d="M54115 28290
L53927 28421
" />
<path d="M54115 28514
L53721 28514
L53721 28365
L53740 28327
L53758 28308
L53796 28290
L53852 28290
L53890 28308
L53908 28327
L53927 28365
L53927 28514
" />
<path d="M54115 28102
L54115 28027
L54096 27990
L54077 27971
L54021 27933
L53946 27915
L53796 27915
L53758 27933
L53740 27952
L53721 27990
L53721 28065
L53740 28102
L53758 28121
L53796 28140
L53890 28140
L53927 28121
L53946 28102
L53965 28065
L53965 27990
L53946 27952
L53927 27933
L53890 27915
" />
<path d="M49999 31300
L49812 31300
L49812 30906
" />
<path d="M50131 31300
L50131 30906
L50262 31187
L50393 30906
L50393 31300
" />
<path d="M50543 30906
L50787 30906
L50655 31056
L50712 31056
L50749 31075
L50768 31093
L50787 31131
L50787 31225
L50768 31262
L50749 31281
L50712 31300
L50599 31300
L50562 31281
L50543 31262
" />
<path d="M51143 30906
L50955 30906
L50937 31093
L50955 31075
L50993 31056
L51087 31056
L51124 31075
L51143 31093
L51162 31131
L51162 31225
L51143 31262
L51124 31281
L51087 31300
L50993 31300
L50955 31281
L50937 31262
" />
<path d="M51387 31075
L51349 31056
L51330 31037
L51312 31000
L51312 30981
L51330 30943
L51349 30925
L51387 30906
L51462 30906
L51499 30925
L51518 30943
L51537 30981
L51537 31000
L51518 31037
L51499 31056
L51462 31075
L51387 31075
L51349 31093
L51330 31112
L51312 31150
L51312 31225
L51330 31262
L51349 31281
L51387 31300
L51462 31300
L51499 31281
L51518 31262
L51537 31225
L51537 31150
L51518 31112
L51499 31093
L51462 31075
" />
<path d="M50365 33323
L50365 33642
L50384 33679
L50402 33698
L50440 33717
L50515 33717
L50552 33698
L50571 33679
L50590 33642
L50590 33323
" />
<path d="M50946 33455
L50946 33717
" />
<path d="M50852 33305
L50759 33586
L51002 33586
" />
<path d="M46859 26644
L46878 26625
L46915 26607
L47009 26607
L47047 26625
L47065 26644
L47084 26682
L47084 26719
L47065 26775
L46840 27000
L47084 27000
" />
<path d="M47234 26644
L47253 26625
L47290 26607
L47384 26607
L47422 26625
L47440 26644
L47459 26682
L47459 26719
L47440 26775
L47215 27000
L47459 27000
" />
<path d="M47628 27000
L47628 26607
" />
<path d="M47665 26850
L47778 27000
" />
<path d="M47778 26738
L47628 26888
" />
<path d="M47065 27934
L46934 27746
" />
<path d="M46840 27934
L46840 27540
L46990 27540
L47028 27559
L47047 27577
L47065 27615
L47065 27671
L47047 27709
L47028 27727
L46990 27746
L46840 27746
" />
<path d="M47440 27934
L47215 27934
" />
<path d="M47328 27934
L47328 27540
L47290 27596
L47253 27634
L47215 27652
" />
<path d="M47684 27540
L47721 27540
L47759 27559
L47778 27577
L47796 27615
L47815 27690
L47815 27784
L47796 27859
L47778 27896
L47759 27915
L47721 27934
L47684 27934
L47646 27915
L47628 27896
L47609 27859
L47590 27784
L47590 27690
L47609 27615
L47628 27577
L47646 27559
L47684 27540
" />
<path d="M43906 29006
L43925 28988
L43963 28969
L44056 28969
L44094 28988
L44113 29006
L44131 29044
L44131 29081
L44113 29138
L43888 29363
L44131 29363
" />
<path d="M44281 29006
L44300 28988
L44338 28969
L44431 28969
L44469 28988
L44488 29006
L44506 29044
L44506 29081
L44488 29138
L44263 29363
L44506 29363
" />
<path d="M44675 29363
L44675 28969
" />
<path d="M44712 29213
L44825 29363
" />
<path d="M44825 29100
L44675 29250
" />
<path d="M44113 30296
L43981 30108
" />
<path d="M43888 30296
L43888 29902
L44038 29902
L44075 29921
L44094 29940
L44113 29977
L44113 30033
L44094 30071
L44075 30089
L44038 30108
L43888 30108
" />
<path d="M44488 30296
L44263 30296
" />
<path d="M44375 30296
L44375 29902
L44338 29958
L44300 29996
L44263 30014
" />
<path d="M44862 30296
L44637 30296
" />
<path d="M44750 30296
L44750 29902
L44712 29958
L44675 29996
L44637 30014
" />
<path d="M28369 26654
L28144 26654
" />
<path d="M28257 26654
L28257 26260
L28219 26317
L28182 26354
L28144 26373
" />
<path d="M28613 26260
L28651 26260
L28688 26279
L28707 26298
L28726 26335
L28744 26410
L28744 26504
L28726 26579
L28707 26616
L28688 26635
L28651 26654
L28613 26654
L28576 26635
L28557 26616
L28538 26579
L28519 26504
L28519 26410
L28538 26335
L28557 26298
L28576 26279
L28613 26260
" />
<path d="M28988 26260
L29026 26260
L29063 26279
L29082 26298
L29101 26335
L29119 26410
L29119 26504
L29101 26579
L29082 26616
L29063 26635
L29026 26654
L28988 26654
L28951 26635
L28932 26616
L28913 26579
L28894 26504
L28894 26410
L28913 26335
L28932 26298
L28951 26279
L28988 26260
" />
<path d="M29288 26654
L29288 26392
" />
<path d="M29288 26429
L29307 26410
L29344 26392
L29401 26392
L29438 26410
L29457 26448
L29457 26654
" />
<path d="M29457 26448
L29476 26410
L29513 26392
L29569 26392
L29607 26410
L29625 26448
L29625 26654
" />
<path d="M30282 26635
L30244 26654
L30169 26654
L30132 26635
L30113 26616
L30094 26579
L30094 26467
L30113 26429
L30132 26410
L30169 26392
L30244 26392
L30282 26410
" />
<path d="M30450 26654
L30450 26260
" />
<path d="M30619 26654
L30619 26448
L30600 26410
L30563 26392
L30507 26392
L30469 26410
L30450 26429
" />
<path d="M30957 26635
L30919 26654
L30844 26654
L30807 26635
L30788 26598
L30788 26448
L30807 26410
L30844 26392
L30919 26392
L30957 26410
L30975 26448
L30975 26485
L30788 26523
" />
<path d="M31144 26654
L31144 26392
" />
<path d="M31144 26429
L31163 26410
L31200 26392
L31257 26392
L31294 26410
L31313 26448
L31313 26654
" />
<path d="M31313 26448
L31332 26410
L31369 26392
L31425 26392
L31463 26410
L31482 26448
L31482 26654
" />
<path d="M29757 25140
L29738 25159
L29682 25178
L29644 25178
L29588 25159
L29550 25121
L29532 25084
L29513 25009
L29513 24953
L29532 24878
L29550 24840
L29588 24803
L29644 24784
L29682 24784
L29738 24803
L29757 24821
" />
<path d="M30094 24784
L30019 24784
L29982 24803
L29963 24821
L29925 24878
L29907 24953
L29907 25103
L29925 25140
L29944 25159
L29982 25178
L30057 25178
L30094 25159
L30113 25140
L30132 25103
L30132 25009
L30113 24971
L30094 24953
L30057 24934
L29982 24934
L29944 24953
L29925 24971
L29907 25009
" />
<path d="M28210 28032
L28248 28032
L28285 28051
L28304 28069
L28323 28107
L28341 28182
L28341 28276
L28323 28351
L28304 28388
L28285 28407
L28248 28426
L28210 28426
L28173 28407
L28154 28388
L28135 28351
L28116 28276
L28116 28182
L28135 28107
L28154 28069
L28173 28051
L28210 28032
" />
<path d="M28510 28388
L28529 28407
L28510 28426
L28491 28407
L28510 28388
L28510 28426
" />
<path d="M28904 28426
L28679 28426
" />
<path d="M28791 28426
L28791 28032
L28754 28088
L28716 28126
L28679 28144
" />
<path d="M29072 28426
L29072 28163
" />
<path d="M29072 28201
L29091 28182
L29129 28163
L29185 28163
L29222 28182
L29241 28219
L29241 28426
" />
<path d="M29241 28219
L29260 28182
L29297 28163
L29354 28163
L29391 28182
L29410 28219
L29410 28426
" />
<path d="M30066 28407
L30029 28426
L29954 28426
L29916 28407
L29897 28388
L29879 28351
L29879 28238
L29897 28201
L29916 28182
L29954 28163
L30029 28163
L30066 28182
" />
<path d="M30385 28407
L30347 28426
L30272 28426
L30235 28407
L30216 28369
L30216 28219
L30235 28182
L30272 28163
L30347 28163
L30385 28182
L30404 28219
L30404 28257
L30216 28294
" />
<path d="M30572 28426
L30572 28163
" />
<path d="M30572 28238
L30591 28201
L30610 28182
L30647 28163
L30685 28163
" />
<path d="M30985 28426
L30985 28219
L30966 28182
L30928 28163
L30853 28163
L30816 28182
" />
<path d="M30985 28407
L30947 28426
L30853 28426
L30816 28407
L30797 28369
L30797 28332
L30816 28294
L30853 28276
L30947 28276
L30985 28257
" />
<path d="M31172 28426
L31172 28163
" />
<path d="M31172 28201
L31191 28182
L31228 28163
L31285 28163
L31322 28182
L31341 28219
L31341 28426
" />
<path d="M31341 28219
L31360 28182
L31397 28163
L31453 28163
L31491 28182
L31510 28219
L31510 28426
" />
</g>
<g style="fill:#000000; fill-opacity:0.0; 
stroke:#000000; stroke-width:35.4331; stroke-opacity:1; 
stroke-linecap:round; stroke-linejoin:round;">
<path d="M29783 27446
L29772 27457
L29738 27469
L29715 27469
L29682 27457
L29659 27435
L29648 27412
L29637 27367
L29637 27334
L29648 27289
L29659 27266
L29682 27244
L29715 27232
L29738 27232
L29772 27244
L29783 27255
" />
<path d="M29862 27232
L30019 27232
L29918 27469
" />
</g>
<g style="fill:#000000; fill-opacity:0.0; 
stroke:#000000; stroke-width:59.0551; stroke-opacity:1; 
stroke-linecap:round; stroke-linejoin:round;">
<path d="M41596 30788
L41633 30788
L41671 30807
L41690 30825
L41708 30863
L41727 30938
L41727 31032
L41708 31107
L41690 31144
L41671 31163
L41633 31182
L41596 31182
L41558 31163
L41540 31144
L41521 31107
L41502 31032
L41502 30938
L41521 30863
L41540 30825
L41558 30807
L41596 30788
" />
<path d="M41896 31144
L41915 31163
L41896 31182
L41877 31163
L41896 31144
L41896 31182
" />
<path d="M42290 31182
L42065 31182
" />
<path d="M42177 31182
L42177 30788
L42140 30844
L42102 30882
L42065 30900
" />
<path d="M42458 31182
L42458 30919
" />
<path d="M42458 30957
L42477 30938
L42514 30919
L42571 30919
L42608 30938
L42627 30975
L42627 31182
" />
<path d="M42627 30975
L42646 30938
L42683 30919
L42739 30919
L42777 30938
L42796 30975
L42796 31182
" />
<path d="M43452 31163
L43414 31182
L43339 31182
L43302 31163
L43283 31144
L43264 31107
L43264 30994
L43283 30957
L43302 30938
L43339 30919
L43414 30919
L43452 30938
" />
<path d="M43771 31163
L43733 31182
L43658 31182
L43621 31163
L43602 31125
L43602 30975
L43621 30938
L43658 30919
L43733 30919
L43771 30938
L43789 30975
L43789 31013
L43602 31050
" />
<path d="M43958 31182
L43958 30919
" />
<path d="M43958 30994
L43977 30957
L43996 30938
L44033 30919
L44071 30919
" />
<path d="M44371 31182
L44371 30975
L44352 30938
L44314 30919
L44239 30919
L44202 30938
" />
<path d="M44371 31163
L44333 31182
L44239 31182
L44202 31163
L44183 31125
L44183 31088
L44202 31050
L44239 31032
L44333 31032
L44371 31013
" />
<path d="M44558 31182
L44558 30919
" />
<path d="M44558 30957
L44577 30938
L44614 30919
L44670 30919
L44708 30938
L44727 30975
L44727 31182
" />
<path d="M44727 30975
L44745 30938
L44783 30919
L44839 30919
L44877 30938
L44895 30975
L44895 31182
" />
</g>
<g style="fill:#000000; fill-opacity:0.0; 
stroke:#000000; stroke-width:35.4331; stroke-opacity:1; 
stroke-linecap:round; stroke-linejoin:round;">
<path d="M43169 31974
L43158 31985
L43124 31996
L43101 31996
L43068 31985
L43045 31962
L43034 31940
L43023 31895
L43023 31861
L43034 31816
L43045 31794
L43068 31771
L43101 31760
L43124 31760
L43158 31771
L43169 31782
" />
<path d="M43259 31782
L43270 31771
L43293 31760
L43349 31760
L43371 31771
L43383 31782
L43394 31805
L43394 31827
L43383 31861
L43248 31996
L43394 31996
" />
</g>
<g style="fill:#000000; fill-opacity:0.0; 
stroke:#000000; stroke-width:59.0551; stroke-opacity:1; 
stroke-linecap:round; stroke-linejoin:round;">
<circle cx="54175.8" cy="8716.64" r="656.168" /> 
<path d="M53191 8716
L55160 8716
" />
<path d="M54175 7732
L54175 9700
" />
<circle cx="19155.9" cy="8805.26" r="656.168" /> 
<path d="M18171 8805
L20140 8805
" />
<path d="M19155 7821
L19155 9789
" />
<circle cx="19171.9" cy="37651.1" r="656.168" /> 
<path d="M18187 37651
L20156 37651
" />
<path d="M19171 36666
L19171 38635
" />
<circle cx="54135.7" cy="37665.3" r="656.168" /> 
<path d="M53151 37665
L55119 37665
" />
<path d="M54135 36681
L54135 38649
" />
</g> 
</svg>
