<?xml version="1.0" standalone="no"?>
 <!DOCTYPE svg PUBLIC "-//W3C//DTD SVG 1.1//EN" 
 "http://www.w3.org/Graphics/SVG/1.1/DTD/svg11.dtd"> 
<svg xmlns="http://www.w3.org/2000/svg" version="1.1" 
    width="29.7002cm" height="21.0007cm" viewBox="0 0 116930 82680 ">
<title>SVG Picture created as 10knobs-F.Fab.svg date 2020/08/23 11:05:15 </title>
  <desc>Picture generated by PCBNEW </desc>
<g style="fill:#000000; fill-opacity:1;stroke:#000000; stroke-opacity:1;
stroke-linecap:round; stroke-linejoin:round; "
 transform="translate(0 0) scale(1 1)">
</g>
<g style="fill:#000000; fill-opacity:0.0; 
stroke:#000000; stroke-width:-0.000393701; stroke-opacity:1; 
stroke-linecap:round; stroke-linejoin:round;">
</g>
<g style="fill:#000000; fill-opacity:0.0; 
stroke:#000000; stroke-width:39.3701; stroke-opacity:1; 
stroke-linecap:round; stroke-linejoin:round;">
</g>
<g style="fill:#000000; fill-opacity:0.0; 
stroke:#000000; stroke-width:59.0551; stroke-opacity:1; 
stroke-linecap:round; stroke-linejoin:round;">
<rect x="69685.9" y="65357.2" width="42519.7" height="12598.4" rx="0" />
</g>
<g style="fill:#000000; fill-opacity:0.0; 
stroke:#000000; stroke-width:39.3701; stroke-opacity:1; 
stroke-linecap:round; stroke-linejoin:round;">
</g>
<g style="fill:#000000; fill-opacity:0.0; 
stroke:#000000; stroke-width:59.0551; stroke-opacity:1; 
stroke-linecap:round; stroke-linejoin:round;">
<rect x="3937.01" y="3937.01" width="109056" height="74806" rx="0" />
</g>
<g style="fill:#000000; fill-opacity:0.0; 
stroke:#000000; stroke-width:39.3701; stroke-opacity:1; 
stroke-linecap:round; stroke-linejoin:round;">
</g>
<g style="fill:#000000; fill-opacity:0.0; 
stroke:#000000; stroke-width:59.0551; stroke-opacity:1; 
stroke-linecap:round; stroke-linejoin:round;">
<rect x="4724.41" y="4724.41" width="107481" height="73231.2" rx="0" />
</g>
<g style="fill:#000000; fill-opacity:0.0; 
stroke:#000000; stroke-width:39.3701; stroke-opacity:1; 
stroke-linecap:round; stroke-linejoin:round;">
</g>
<g style="fill:#000000; fill-opacity:0.0; 
stroke:#000000; stroke-width:59.0551; stroke-opacity:1; 
stroke-linecap:round; stroke-linejoin:round;">
<path d="M23622 4724
L23622 3937
" />
</g>
<g style="fill:#000000; fill-opacity:0.0; 
stroke:#000000; stroke-width:39.3701; stroke-opacity:1; 
stroke-linecap:round; stroke-linejoin:round;">
</g>
<g style="fill:#000000; fill-opacity:0.0; 
stroke:#000000; stroke-width:59.0551; stroke-opacity:1; 
stroke-linecap:round; stroke-linejoin:round;">
<path d="M43307 4724
L43307 3937
" />
</g>
<g style="fill:#000000; fill-opacity:0.0; 
stroke:#000000; stroke-width:39.3701; stroke-opacity:1; 
stroke-linecap:round; stroke-linejoin:round;">
</g>
<g style="fill:#000000; fill-opacity:0.0; 
stroke:#000000; stroke-width:59.0551; stroke-opacity:1; 
stroke-linecap:round; stroke-linejoin:round;">
<path d="M62992 4724
L62992 3937
" />
</g>
<g style="fill:#000000; fill-opacity:0.0; 
stroke:#000000; stroke-width:39.3701; stroke-opacity:1; 
stroke-linecap:round; stroke-linejoin:round;">
</g>
<g style="fill:#000000; fill-opacity:0.0; 
stroke:#000000; stroke-width:59.0551; stroke-opacity:1; 
stroke-linecap:round; stroke-linejoin:round;">
<path d="M82677 4724
L82677 3937
" />
</g>
<g style="fill:#000000; fill-opacity:0.0; 
stroke:#000000; stroke-width:39.3701; stroke-opacity:1; 
stroke-linecap:round; stroke-linejoin:round;">
</g>
<g style="fill:#000000; fill-opacity:0.0; 
stroke:#000000; stroke-width:59.0551; stroke-opacity:1; 
stroke-linecap:round; stroke-linejoin:round;">
<path d="M102362 4724
L102362 3937
" />
</g>
<g style="fill:#000000; fill-opacity:0.0; 
stroke:#000000; stroke-width:39.3701; stroke-opacity:1; 
stroke-linecap:round; stroke-linejoin:round;">
</g>
<g style="fill:#000000; fill-opacity:0.0; 
stroke:#000000; stroke-width:59.0551; stroke-opacity:1; 
stroke-linecap:round; stroke-linejoin:round;">
<path d="M14199 4562
L13906 4562
" />
<path d="M14052 4562
L14052 4050
L14004 4123
L13955 4172
L13906 4196
" />
</g>
<g style="fill:#000000; fill-opacity:0.0; 
stroke:#000000; stroke-width:39.3701; stroke-opacity:1; 
stroke-linecap:round; stroke-linejoin:round;">
</g>
<g style="fill:#000000; fill-opacity:0.0; 
stroke:#000000; stroke-width:59.0551; stroke-opacity:1; 
stroke-linecap:round; stroke-linejoin:round;">
<path d="M33591 4099
L33615 4074
L33664 4050
L33786 4050
L33835 4074
L33859 4099
L33884 4147
L33884 4196
L33859 4269
L33567 4562
L33884 4562
" />
</g>
<g style="fill:#000000; fill-opacity:0.0; 
stroke:#000000; stroke-width:39.3701; stroke-opacity:1; 
stroke-linecap:round; stroke-linejoin:round;">
</g>
<g style="fill:#000000; fill-opacity:0.0; 
stroke:#000000; stroke-width:59.0551; stroke-opacity:1; 
stroke-linecap:round; stroke-linejoin:round;">
<path d="M53252 4050
L53569 4050
L53398 4245
L53471 4245
L53520 4269
L53544 4294
L53569 4342
L53569 4464
L53544 4513
L53520 4537
L53471 4562
L53325 4562
L53276 4537
L53252 4513
" />
</g>
<g style="fill:#000000; fill-opacity:0.0; 
stroke:#000000; stroke-width:39.3701; stroke-opacity:1; 
stroke-linecap:round; stroke-linejoin:round;">
</g>
<g style="fill:#000000; fill-opacity:0.0; 
stroke:#000000; stroke-width:59.0551; stroke-opacity:1; 
stroke-linecap:round; stroke-linejoin:round;">
<path d="M73205 4221
L73205 4562
" />
<path d="M73083 4026
L72961 4391
L73278 4391
" />
</g>
<g style="fill:#000000; fill-opacity:0.0; 
stroke:#000000; stroke-width:39.3701; stroke-opacity:1; 
stroke-linecap:round; stroke-linejoin:round;">
</g>
<g style="fill:#000000; fill-opacity:0.0; 
stroke:#000000; stroke-width:59.0551; stroke-opacity:1; 
stroke-linecap:round; stroke-linejoin:round;">
<path d="M92914 4050
L92671 4050
L92646 4294
L92671 4269
L92719 4245
L92841 4245
L92890 4269
L92914 4294
L92939 4342
L92939 4464
L92914 4513
L92890 4537
L92841 4562
L92719 4562
L92671 4537
L92646 4513
" />
</g>
<g style="fill:#000000; fill-opacity:0.0; 
stroke:#000000; stroke-width:39.3701; stroke-opacity:1; 
stroke-linecap:round; stroke-linejoin:round;">
</g>
<g style="fill:#000000; fill-opacity:0.0; 
stroke:#000000; stroke-width:59.0551; stroke-opacity:1; 
stroke-linecap:round; stroke-linejoin:round;">
<path d="M112575 4050
L112477 4050
L112429 4074
L112404 4099
L112356 4172
L112331 4269
L112331 4464
L112356 4513
L112380 4537
L112429 4562
L112526 4562
L112575 4537
L112599 4513
L112624 4464
L112624 4342
L112599 4294
L112575 4269
L112526 4245
L112429 4245
L112380 4269
L112356 4294
L112331 4342
" />
</g>
<g style="fill:#000000; fill-opacity:0.0; 
stroke:#000000; stroke-width:39.3701; stroke-opacity:1; 
stroke-linecap:round; stroke-linejoin:round;">
</g>
<g style="fill:#000000; fill-opacity:0.0; 
stroke:#000000; stroke-width:59.0551; stroke-opacity:1; 
stroke-linecap:round; stroke-linejoin:round;">
<path d="M23622 77955
L23622 78742
" />
</g>
<g style="fill:#000000; fill-opacity:0.0; 
stroke:#000000; stroke-width:39.3701; stroke-opacity:1; 
stroke-linecap:round; stroke-linejoin:round;">
</g>
<g style="fill:#000000; fill-opacity:0.0; 
stroke:#000000; stroke-width:59.0551; stroke-opacity:1; 
stroke-linecap:round; stroke-linejoin:round;">
<path d="M43307 77955
L43307 78742
" />
</g>
<g style="fill:#000000; fill-opacity:0.0; 
stroke:#000000; stroke-width:39.3701; stroke-opacity:1; 
stroke-linecap:round; stroke-linejoin:round;">
</g>
<g style="fill:#000000; fill-opacity:0.0; 
stroke:#000000; stroke-width:59.0551; stroke-opacity:1; 
stroke-linecap:round; stroke-linejoin:round;">
<path d="M62992 77955
L62992 78742
" />
</g>
<g style="fill:#000000; fill-opacity:0.0; 
stroke:#000000; stroke-width:39.3701; stroke-opacity:1; 
stroke-linecap:round; stroke-linejoin:round;">
</g>
<g style="fill:#000000; fill-opacity:0.0; 
stroke:#000000; stroke-width:59.0551; stroke-opacity:1; 
stroke-linecap:round; stroke-linejoin:round;">
<path d="M82677 77955
L82677 78742
" />
</g>
<g style="fill:#000000; fill-opacity:0.0; 
stroke:#000000; stroke-width:39.3701; stroke-opacity:1; 
stroke-linecap:round; stroke-linejoin:round;">
</g>
<g style="fill:#000000; fill-opacity:0.0; 
stroke:#000000; stroke-width:59.0551; stroke-opacity:1; 
stroke-linecap:round; stroke-linejoin:round;">
<path d="M102362 77955
L102362 78742
" />
</g>
<g style="fill:#000000; fill-opacity:0.0; 
stroke:#000000; stroke-width:39.3701; stroke-opacity:1; 
stroke-linecap:round; stroke-linejoin:round;">
</g>
<g style="fill:#000000; fill-opacity:0.0; 
stroke:#000000; stroke-width:59.0551; stroke-opacity:1; 
stroke-linecap:round; stroke-linejoin:round;">
<path d="M14199 78580
L13906 78580
" />
<path d="M14052 78580
L14052 78069
L14004 78142
L13955 78190
L13906 78215
" />
</g>
<g style="fill:#000000; fill-opacity:0.0; 
stroke:#000000; stroke-width:39.3701; stroke-opacity:1; 
stroke-linecap:round; stroke-linejoin:round;">
</g>
<g style="fill:#000000; fill-opacity:0.0; 
stroke:#000000; stroke-width:59.0551; stroke-opacity:1; 
stroke-linecap:round; stroke-linejoin:round;">
<path d="M33591 78117
L33615 78093
L33664 78069
L33786 78069
L33835 78093
L33859 78117
L33884 78166
L33884 78215
L33859 78288
L33567 78580
L33884 78580
" />
</g>
<g style="fill:#000000; fill-opacity:0.0; 
stroke:#000000; stroke-width:39.3701; stroke-opacity:1; 
stroke-linecap:round; stroke-linejoin:round;">
</g>
<g style="fill:#000000; fill-opacity:0.0; 
stroke:#000000; stroke-width:59.0551; stroke-opacity:1; 
stroke-linecap:round; stroke-linejoin:round;">
<path d="M53252 78069
L53569 78069
L53398 78263
L53471 78263
L53520 78288
L53544 78312
L53569 78361
L53569 78483
L53544 78532
L53520 78556
L53471 78580
L53325 78580
L53276 78556
L53252 78532
" />
</g>
<g style="fill:#000000; fill-opacity:0.0; 
stroke:#000000; stroke-width:39.3701; stroke-opacity:1; 
stroke-linecap:round; stroke-linejoin:round;">
</g>
<g style="fill:#000000; fill-opacity:0.0; 
stroke:#000000; stroke-width:59.0551; stroke-opacity:1; 
stroke-linecap:round; stroke-linejoin:round;">
<path d="M73205 78239
L73205 78580
" />
<path d="M73083 78044
L72961 78410
L73278 78410
" />
</g>
<g style="fill:#000000; fill-opacity:0.0; 
stroke:#000000; stroke-width:39.3701; stroke-opacity:1; 
stroke-linecap:round; stroke-linejoin:round;">
</g>
<g style="fill:#000000; fill-opacity:0.0; 
stroke:#000000; stroke-width:59.0551; stroke-opacity:1; 
stroke-linecap:round; stroke-linejoin:round;">
<path d="M92914 78069
L92671 78069
L92646 78312
L92671 78288
L92719 78263
L92841 78263
L92890 78288
L92914 78312
L92939 78361
L92939 78483
L92914 78532
L92890 78556
L92841 78580
L92719 78580
L92671 78556
L92646 78532
" />
</g>
<g style="fill:#000000; fill-opacity:0.0; 
stroke:#000000; stroke-width:39.3701; stroke-opacity:1; 
stroke-linecap:round; stroke-linejoin:round;">
</g>
<g style="fill:#000000; fill-opacity:0.0; 
stroke:#000000; stroke-width:59.0551; stroke-opacity:1; 
stroke-linecap:round; stroke-linejoin:round;">
<path d="M112575 78069
L112477 78069
L112429 78093
L112404 78117
L112356 78190
L112331 78288
L112331 78483
L112356 78532
L112380 78556
L112429 78580
L112526 78580
L112575 78556
L112599 78532
L112624 78483
L112624 78361
L112599 78312
L112575 78288
L112526 78263
L112429 78263
L112380 78288
L112356 78312
L112331 78361
" />
</g>
<g style="fill:#000000; fill-opacity:0.0; 
stroke:#000000; stroke-width:39.3701; stroke-opacity:1; 
stroke-linecap:round; stroke-linejoin:round;">
</g>
<g style="fill:#000000; fill-opacity:0.0; 
stroke:#000000; stroke-width:59.0551; stroke-opacity:1; 
stroke-linecap:round; stroke-linejoin:round;">
<path d="M3937 23622
L4724 23622
" />
</g>
<g style="fill:#000000; fill-opacity:0.0; 
stroke:#000000; stroke-width:39.3701; stroke-opacity:1; 
stroke-linecap:round; stroke-linejoin:round;">
</g>
<g style="fill:#000000; fill-opacity:0.0; 
stroke:#000000; stroke-width:59.0551; stroke-opacity:1; 
stroke-linecap:round; stroke-linejoin:round;">
<path d="M3937 43307
L4724 43307
" />
</g>
<g style="fill:#000000; fill-opacity:0.0; 
stroke:#000000; stroke-width:39.3701; stroke-opacity:1; 
stroke-linecap:round; stroke-linejoin:round;">
</g>
<g style="fill:#000000; fill-opacity:0.0; 
stroke:#000000; stroke-width:59.0551; stroke-opacity:1; 
stroke-linecap:round; stroke-linejoin:round;">
<path d="M3937 62992
L4724 62992
" />
</g>
<g style="fill:#000000; fill-opacity:0.0; 
stroke:#000000; stroke-width:39.3701; stroke-opacity:1; 
stroke-linecap:round; stroke-linejoin:round;">
</g>
<g style="fill:#000000; fill-opacity:0.0; 
stroke:#000000; stroke-width:59.0551; stroke-opacity:1; 
stroke-linecap:round; stroke-linejoin:round;">
<path d="M4208 13864
L4452 13864
" />
<path d="M4160 14011
L4330 13499
L4501 14011
" />
</g>
<g style="fill:#000000; fill-opacity:0.0; 
stroke:#000000; stroke-width:39.3701; stroke-opacity:1; 
stroke-linecap:round; stroke-linejoin:round;">
</g>
<g style="fill:#000000; fill-opacity:0.0; 
stroke:#000000; stroke-width:59.0551; stroke-opacity:1; 
stroke-linecap:round; stroke-linejoin:round;">
<path d="M4367 33428
L4440 33452
L4464 33476
L4489 33525
L4489 33598
L4464 33647
L4440 33671
L4391 33696
L4196 33696
L4196 33184
L4367 33184
L4416 33208
L4440 33233
L4464 33281
L4464 33330
L4440 33379
L4416 33403
L4367 33428
L4196 33428
" />
</g>
<g style="fill:#000000; fill-opacity:0.0; 
stroke:#000000; stroke-width:39.3701; stroke-opacity:1; 
stroke-linecap:round; stroke-linejoin:round;">
</g>
<g style="fill:#000000; fill-opacity:0.0; 
stroke:#000000; stroke-width:59.0551; stroke-opacity:1; 
stroke-linecap:round; stroke-linejoin:round;">
<path d="M4489 53332
L4464 53356
L4391 53381
L4342 53381
L4269 53356
L4221 53308
L4196 53259
L4172 53161
L4172 53088
L4196 52991
L4221 52942
L4269 52893
L4342 52869
L4391 52869
L4464 52893
L4489 52918
" />
</g>
<g style="fill:#000000; fill-opacity:0.0; 
stroke:#000000; stroke-width:39.3701; stroke-opacity:1; 
stroke-linecap:round; stroke-linejoin:round;">
</g>
<g style="fill:#000000; fill-opacity:0.0; 
stroke:#000000; stroke-width:59.0551; stroke-opacity:1; 
stroke-linecap:round; stroke-linejoin:round;">
<path d="M4196 73066
L4196 72554
L4318 72554
L4391 72578
L4440 72627
L4464 72676
L4489 72773
L4489 72846
L4464 72944
L4440 72993
L4391 73041
L4318 73066
L4196 73066
" />
</g>
<g style="fill:#000000; fill-opacity:0.0; 
stroke:#000000; stroke-width:39.3701; stroke-opacity:1; 
stroke-linecap:round; stroke-linejoin:round;">
</g>
<g style="fill:#000000; fill-opacity:0.0; 
stroke:#000000; stroke-width:59.0551; stroke-opacity:1; 
stroke-linecap:round; stroke-linejoin:round;">
<path d="M112992 23622
L112205 23622
" />
</g>
<g style="fill:#000000; fill-opacity:0.0; 
stroke:#000000; stroke-width:39.3701; stroke-opacity:1; 
stroke-linecap:round; stroke-linejoin:round;">
</g>
<g style="fill:#000000; fill-opacity:0.0; 
stroke:#000000; stroke-width:59.0551; stroke-opacity:1; 
stroke-linecap:round; stroke-linejoin:round;">
<path d="M112992 43307
L112205 43307
" />
</g>
<g style="fill:#000000; fill-opacity:0.0; 
stroke:#000000; stroke-width:39.3701; stroke-opacity:1; 
stroke-linecap:round; stroke-linejoin:round;">
</g>
<g style="fill:#000000; fill-opacity:0.0; 
stroke:#000000; stroke-width:59.0551; stroke-opacity:1; 
stroke-linecap:round; stroke-linejoin:round;">
<path d="M112992 62992
L112205 62992
" />
</g>
<g style="fill:#000000; fill-opacity:0.0; 
stroke:#000000; stroke-width:39.3701; stroke-opacity:1; 
stroke-linecap:round; stroke-linejoin:round;">
</g>
<g style="fill:#000000; fill-opacity:0.0; 
stroke:#000000; stroke-width:59.0551; stroke-opacity:1; 
stroke-linecap:round; stroke-linejoin:round;">
<path d="M112477 13864
L112721 13864
" />
<path d="M112428 14011
L112599 13499
L112769 14011
" />
</g>
<g style="fill:#000000; fill-opacity:0.0; 
stroke:#000000; stroke-width:39.3701; stroke-opacity:1; 
stroke-linecap:round; stroke-linejoin:round;">
</g>
<g style="fill:#000000; fill-opacity:0.0; 
stroke:#000000; stroke-width:59.0551; stroke-opacity:1; 
stroke-linecap:round; stroke-linejoin:round;">
<path d="M112635 33428
L112708 33452
L112733 33476
L112757 33525
L112757 33598
L112733 33647
L112708 33671
L112660 33696
L112465 33696
L112465 33184
L112635 33184
L112684 33208
L112708 33233
L112733 33281
L112733 33330
L112708 33379
L112684 33403
L112635 33428
L112465 33428
" />
</g>
<g style="fill:#000000; fill-opacity:0.0; 
stroke:#000000; stroke-width:39.3701; stroke-opacity:1; 
stroke-linecap:round; stroke-linejoin:round;">
</g>
<g style="fill:#000000; fill-opacity:0.0; 
stroke:#000000; stroke-width:59.0551; stroke-opacity:1; 
stroke-linecap:round; stroke-linejoin:round;">
<path d="M112757 53332
L112733 53356
L112660 53381
L112611 53381
L112538 53356
L112489 53308
L112465 53259
L112440 53161
L112440 53088
L112465 52991
L112489 52942
L112538 52893
L112611 52869
L112660 52869
L112733 52893
L112757 52918
" />
</g>
<g style="fill:#000000; fill-opacity:0.0; 
stroke:#000000; stroke-width:39.3701; stroke-opacity:1; 
stroke-linecap:round; stroke-linejoin:round;">
</g>
<g style="fill:#000000; fill-opacity:0.0; 
stroke:#000000; stroke-width:59.0551; stroke-opacity:1; 
stroke-linecap:round; stroke-linejoin:round;">
<path d="M112465 73066
L112465 72554
L112587 72554
L112660 72578
L112708 72627
L112733 72676
L112757 72773
L112757 72846
L112733 72944
L112708 72993
L112660 73041
L112587 73066
L112465 73066
" />
</g>
<g style="fill:#000000; fill-opacity:0.0; 
stroke:#000000; stroke-width:39.3701; stroke-opacity:1; 
stroke-linecap:round; stroke-linejoin:round;">
</g>
<g style="fill:#000000; fill-opacity:0.0; 
stroke:#000000; stroke-width:59.0551; stroke-opacity:1; 
stroke-linecap:round; stroke-linejoin:round;">
<path d="M78911 76293
L78911 75703
L79051 75703
L79136 75731
L79192 75787
L79220 75843
L79248 75956
L79248 76040
L79220 76153
L79192 76209
L79136 76265
L79051 76293
L78911 76293
" />
<path d="M79754 76293
L79754 75984
L79726 75928
L79670 75899
L79557 75899
L79501 75928
" />
<path d="M79754 76265
L79698 76293
L79557 76293
L79501 76265
L79473 76209
L79473 76153
L79501 76096
L79557 76068
L79698 76068
L79754 76040
" />
<path d="M79951 75899
L80176 75899
" />
<path d="M80036 75703
L80036 76209
L80064 76265
L80120 76293
L80176 76293
" />
<path d="M80598 76265
L80542 76293
L80429 76293
L80373 76265
L80345 76209
L80345 75984
L80373 75928
L80429 75899
L80542 75899
L80598 75928
L80626 75984
L80626 76040
L80345 76096
" />
<path d="M80879 76237
L80907 76265
L80879 76293
L80851 76265
L80879 76237
L80879 76293
" />
<path d="M80879 75928
L80907 75956
L80879 75984
L80851 75956
L80879 75928
L80879 75984
" />
</g>
<g style="fill:#000000; fill-opacity:0.0; 
stroke:#000000; stroke-width:39.3701; stroke-opacity:1; 
stroke-linecap:round; stroke-linejoin:round;">
</g>
<g style="fill:#000000; fill-opacity:0.0; 
stroke:#000000; stroke-width:59.0551; stroke-opacity:1; 
stroke-linecap:round; stroke-linejoin:round;">
<path d="M69685 76577
L112205 76577
" />
</g>
<g style="fill:#000000; fill-opacity:0.0; 
stroke:#000000; stroke-width:39.3701; stroke-opacity:1; 
stroke-linecap:round; stroke-linejoin:round;">
</g>
<g style="fill:#000000; fill-opacity:0.0; 
stroke:#000000; stroke-width:59.0551; stroke-opacity:1; 
stroke-linecap:round; stroke-linejoin:round;">
<path d="M70249 77395
L70249 76805
" />
<path d="M70587 77395
L70334 77058
" />
<path d="M70587 76805
L70249 77142
" />
<path d="M70840 77395
L70840 77002
" />
<path d="M70840 76805
L70812 76833
L70840 76861
L70868 76833
L70840 76805
L70840 76861
" />
<path d="M71458 77339
L71430 77367
L71346 77395
L71290 77395
L71205 77367
L71149 77311
L71121 77255
L71093 77142
L71093 77058
L71121 76946
L71149 76889
L71205 76833
L71290 76805
L71346 76805
L71430 76833
L71458 76861
" />
<path d="M71965 77395
L71965 77086
L71937 77030
L71880 77002
L71768 77002
L71712 77030
" />
<path d="M71965 77367
L71908 77395
L71768 77395
L71712 77367
L71683 77311
L71683 77255
L71712 77199
L71768 77171
L71908 77171
L71965 77142
" />
<path d="M72499 77395
L72499 76805
" />
<path d="M72499 77367
L72443 77395
L72330 77395
L72274 77367
L72246 77339
L72218 77283
L72218 77114
L72246 77058
L72274 77030
L72330 77002
L72443 77002
L72499 77030
" />
<path d="M73230 77086
L73427 77086
" />
<path d="M73511 77395
L73230 77395
L73230 76805
L73511 76805
" />
<path d="M73764 77339
L73793 77367
L73764 77395
L73736 77367
L73764 77339
L73764 77395
" />
<path d="M74046 77395
L74046 76805
L74186 76805
L74271 76833
L74327 76889
L74355 76946
L74383 77058
L74383 77142
L74355 77255
L74327 77311
L74271 77367
L74186 77395
L74046 77395
" />
<path d="M74636 77339
L74664 77367
L74636 77395
L74608 77367
L74636 77339
L74636 77395
" />
<path d="M74889 77227
L75171 77227
" />
<path d="M74833 77395
L75030 76805
L75227 77395
" />
<path d="M75424 77339
L75452 77367
L75424 77395
L75395 77367
L75424 77339
L75424 77395
" />
<path d="M76605 77002
L76605 77592
" />
<path d="M76605 77030
L76661 77002
L76773 77002
L76830 77030
L76858 77058
L76886 77114
L76886 77283
L76858 77339
L76830 77367
L76773 77395
L76661 77395
L76605 77367
" />
<path d="M77392 77367
L77336 77395
L77223 77395
L77167 77367
L77139 77339
L77111 77283
L77111 77114
L77139 77058
L77167 77030
L77223 77002
L77336 77002
L77392 77030
" />
<path d="M77645 77395
L77645 76805
" />
<path d="M77645 77030
L77701 77002
L77814 77002
L77870 77030
L77898 77058
L77926 77114
L77926 77283
L77898 77339
L77870 77367
L77814 77395
L77701 77395
L77645 77367
" />
<path d="M78180 77002
L78180 77395
" />
<path d="M78180 77058
L78208 77030
L78264 77002
L78348 77002
L78404 77030
L78433 77086
L78433 77395
" />
<path d="M78939 77367
L78883 77395
L78770 77395
L78714 77367
L78686 77311
L78686 77086
L78714 77030
L78770 77002
L78883 77002
L78939 77030
L78967 77086
L78967 77142
L78686 77199
" />
<path d="M79164 77002
L79276 77395
L79389 77114
L79501 77395
L79614 77002
" />
<path d="M80570 76805
L80289 76805
L80260 77086
L80289 77058
L80345 77030
L80485 77030
L80542 77058
L80570 77086
L80598 77142
L80598 77283
L80570 77339
L80542 77367
L80485 77395
L80345 77395
L80289 77367
L80260 77339
" />
<path d="M80851 77339
L80879 77367
L80851 77395
L80823 77367
L80851 77339
L80851 77395
" />
<path d="M81245 76805
L81301 76805
L81357 76833
L81385 76861
L81413 76917
L81442 77030
L81442 77171
L81413 77283
L81385 77339
L81357 77367
L81301 77395
L81245 77395
L81188 77367
L81160 77339
L81132 77283
L81104 77171
L81104 77030
L81132 76917
L81160 76861
L81188 76833
L81245 76805
" />
<path d="M81695 77339
L81723 77367
L81695 77395
L81667 77367
L81695 77339
L81695 77395
" />
<path d="M81948 76861
L81976 76833
L82032 76805
L82173 76805
L82229 76833
L82257 76861
L82285 76917
L82285 76974
L82257 77058
L81920 77395
L82285 77395
" />
<path d="M82538 77171
L82988 77171
" />
<path d="M82763 77395
L82763 76946
" />
<path d="M83523 77395
L83523 76805
" />
<path d="M83523 77367
L83466 77395
L83354 77395
L83298 77367
L83269 77339
L83241 77283
L83241 77114
L83269 77058
L83298 77030
L83354 77002
L83466 77002
L83523 77030
" />
<path d="M83719 77002
L83944 77002
" />
<path d="M83804 77395
L83804 76889
L83832 76833
L83888 76805
L83944 76805
" />
<path d="M84113 77367
L84169 77395
L84282 77395
L84338 77367
L84366 77311
L84366 77283
L84338 77227
L84282 77199
L84197 77199
L84141 77171
L84113 77114
L84113 77086
L84141 77030
L84197 77002
L84282 77002
L84338 77030
" />
<path d="M84872 77002
L84872 77480
L84844 77536
L84816 77564
L84760 77592
L84676 77592
L84619 77564
" />
<path d="M84872 77367
L84816 77395
L84704 77395
L84647 77367
L84619 77339
L84591 77283
L84591 77114
L84619 77058
L84647 77030
L84704 77002
L84816 77002
L84872 77030
" />
<path d="M85463 77395
L85126 77395
" />
<path d="M85294 77395
L85294 76805
L85238 76889
L85182 76946
L85126 76974
" />
<path d="M85716 77171
L86166 77171
" />
<path d="M86757 77395
L86419 77395
" />
<path d="M86588 77395
L86588 76805
L86532 76889
L86475 76946
L86419 76974
" />
<path d="M86869 76644
L87403 76644
" />
<path d="M87010 77395
L87010 76805
" />
<path d="M87010 77030
L87066 77002
L87178 77002
L87235 77030
L87263 77058
L87291 77114
L87291 77283
L87263 77339
L87235 77367
L87178 77395
L87066 77395
L87010 77367
" />
<path d="M87403 76644
L87938 76644
" />
<path d="M87544 77002
L87544 77592
" />
<path d="M87544 77030
L87600 77002
L87713 77002
L87769 77030
L87797 77058
L87825 77114
L87825 77283
L87797 77339
L87769 77367
L87713 77395
L87600 77395
L87544 77367
" />
<path d="M87938 76644
L88472 76644
" />
<path d="M88163 77395
L88106 77367
L88078 77339
L88050 77283
L88050 77114
L88078 77058
L88106 77030
L88163 77002
L88247 77002
L88303 77030
L88331 77058
L88359 77114
L88359 77283
L88331 77339
L88303 77367
L88247 77395
L88163 77395
" />
<path d="M88472 76644
L89034 76644
" />
<path d="M88641 77395
L88753 77395
L88809 77367
L88838 77339
L88894 77255
L88922 77142
L88922 76917
L88894 76861
L88866 76833
L88809 76805
L88697 76805
L88641 76833
L88613 76861
L88584 76917
L88584 77058
L88613 77114
L88641 77142
L88697 77171
L88809 77171
L88866 77142
L88894 77114
L88922 77058
" />
<path d="M89034 76644
L89766 76644
" />
<path d="M89175 77171
L89625 77171
" />
<path d="M89400 77395
L89400 76946
" />
<path d="M89766 76644
L90328 76644
" />
<path d="M90215 77395
L89878 77395
" />
<path d="M90047 77395
L90047 76805
L89991 76889
L89934 76946
L89878 76974
" />
</g>
<g style="fill:#000000; fill-opacity:0.0; 
stroke:#000000; stroke-width:39.3701; stroke-opacity:1; 
stroke-linecap:round; stroke-linejoin:round;">
</g>
<g style="fill:#000000; fill-opacity:0.0; 
stroke:#000000; stroke-width:59.0551; stroke-opacity:1; 
stroke-linecap:round; stroke-linejoin:round;">
<path d="M69685 75396
L112205 75396
" />
</g>
<g style="fill:#000000; fill-opacity:0.0; 
stroke:#000000; stroke-width:39.3701; stroke-opacity:1; 
stroke-linecap:round; stroke-linejoin:round;">
</g>
<g style="fill:#000000; fill-opacity:0.0; 
stroke:#000000; stroke-width:118.11; stroke-opacity:1; 
stroke-linecap:round; stroke-linejoin:round;">
<path d="M104099 76293
L103902 76012
" />
<path d="M103761 76293
L103761 75703
L103986 75703
L104042 75731
L104070 75759
L104099 75815
L104099 75899
L104070 75956
L104042 75984
L103986 76012
L103761 76012
" />
<path d="M104577 76265
L104520 76293
L104408 76293
L104352 76265
L104323 76209
L104323 75984
L104352 75928
L104408 75899
L104520 75899
L104577 75928
L104605 75984
L104605 76040
L104323 76096
" />
<path d="M104802 75899
L104942 76293
L105083 75899
" />
<path d="M105308 76237
L105336 76265
L105308 76293
L105280 76265
L105308 76237
L105308 76293
" />
<path d="M105308 75928
L105336 75956
L105308 75984
L105280 75956
L105308 75928
L105308 75984
" />
</g>
<g style="fill:#000000; fill-opacity:0.0; 
stroke:#000000; stroke-width:39.3701; stroke-opacity:1; 
stroke-linecap:round; stroke-linejoin:round;">
</g>
<g style="fill:#000000; fill-opacity:0.0; 
stroke:#000000; stroke-width:59.0551; stroke-opacity:1; 
stroke-linecap:round; stroke-linejoin:round;">
<path d="M70221 76265
L70305 76293
L70446 76293
L70502 76265
L70530 76237
L70559 76181
L70559 76124
L70530 76068
L70502 76040
L70446 76012
L70334 75984
L70277 75956
L70249 75928
L70221 75871
L70221 75815
L70249 75759
L70277 75731
L70334 75703
L70474 75703
L70559 75731
" />
<path d="M70812 76293
L70812 75899
" />
<path d="M70812 75703
L70784 75731
L70812 75759
L70840 75731
L70812 75703
L70812 75759
" />
<path d="M71037 75899
L71346 75899
L71037 76293
L71346 76293
" />
<path d="M71796 76265
L71740 76293
L71627 76293
L71571 76265
L71543 76209
L71543 75984
L71571 75928
L71627 75899
L71740 75899
L71796 75928
L71824 75984
L71824 76040
L71543 76096
" />
<path d="M72077 76237
L72105 76265
L72077 76293
L72049 76265
L72077 76237
L72077 76293
" />
<path d="M72077 75928
L72105 75956
L72077 75984
L72049 75956
L72077 75928
L72077 75984
" />
<path d="M72780 76124
L73061 76124
" />
<path d="M72724 76293
L72921 75703
L73118 76293
" />
<path d="M73568 75899
L73568 76293
" />
<path d="M73427 75674
L73286 76096
L73652 76096
" />
</g>
<g style="fill:#000000; fill-opacity:0.0; 
stroke:#000000; stroke-width:39.3701; stroke-opacity:1; 
stroke-linecap:round; stroke-linejoin:round;">
</g>
<g style="fill:#000000; fill-opacity:0.0; 
stroke:#000000; stroke-width:59.0551; stroke-opacity:1; 
stroke-linecap:round; stroke-linejoin:round;">
<path d="M103714 77395
L103714 76805
" />
<path d="M104248 77395
L104248 76805
" />
<path d="M104248 77367
L104192 77395
L104079 77395
L104023 77367
L103995 77339
L103967 77283
L103967 77114
L103995 77058
L104023 77030
L104079 77002
L104192 77002
L104248 77030
" />
<path d="M104529 77339
L104557 77367
L104529 77395
L104501 77367
L104529 77339
L104529 77395
" />
<path d="M104529 77030
L104557 77058
L104529 77086
L104501 77058
L104529 77030
L104529 77086
" />
<path d="M105570 77395
L105232 77395
" />
<path d="M105401 77395
L105401 76805
L105345 76889
L105289 76946
L105232 76974
" />
<path d="M106245 76777
L105739 77536
" />
<path d="M106751 77395
L106413 77395
" />
<path d="M106582 77395
L106582 76805
L106526 76889
L106470 76946
L106413 76974
" />
</g>
<g style="fill:#000000; fill-opacity:0.0; 
stroke:#000000; stroke-width:39.3701; stroke-opacity:1; 
stroke-linecap:round; stroke-linejoin:round;">
</g>
<g style="fill:#000000; fill-opacity:0.0; 
stroke:#000000; stroke-width:59.0551; stroke-opacity:1; 
stroke-linecap:round; stroke-linejoin:round;">
<path d="M69685 73821
L112205 73821
" />
</g>
<g style="fill:#000000; fill-opacity:0.0; 
stroke:#000000; stroke-width:39.3701; stroke-opacity:1; 
stroke-linecap:round; stroke-linejoin:round;">
</g>
<g style="fill:#000000; fill-opacity:0.0; 
stroke:#000000; stroke-width:157.48; stroke-opacity:1; 
stroke-linecap:round; stroke-linejoin:round;">
<path d="M70360 74099
L70810 74099
" />
<path d="M70486 74886
L70585 74099
" />
<path d="M70974 74886
L71039 74361
" />
<path d="M71072 74099
L71030 74136
L71063 74174
L71105 74136
L71072 74099
L71063 74174
" />
<path d="M71302 74361
L71602 74361
" />
<path d="M71447 74099
L71363 74774
L71391 74849
L71461 74886
L71536 74886
" />
<path d="M71911 74886
L71841 74849
L71813 74774
L71897 74099
" />
<path d="M72516 74849
L72436 74886
L72286 74886
L72216 74849
L72187 74774
L72225 74474
L72272 74399
L72352 74361
L72501 74361
L72572 74399
L72600 74474
L72591 74549
L72206 74624
" />
<path d="M72895 74811
L72928 74849
L72886 74886
L72853 74849
L72895 74811
L72886 74886
" />
<path d="M72947 74399
L72980 74436
L72937 74474
L72905 74436
L72947 74399
L72937 74474
" />
</g>
<g style="fill:#000000; fill-opacity:0.0; 
stroke:#000000; stroke-width:39.3701; stroke-opacity:1; 
stroke-linecap:round; stroke-linejoin:round;">
</g>
<g style="fill:#000000; fill-opacity:0.0; 
stroke:#000000; stroke-width:59.0551; stroke-opacity:1; 
stroke-linecap:round; stroke-linejoin:round;">
<path d="M70446 73070
L70249 73070
" />
<path d="M70249 73380
L70249 72789
L70530 72789
" />
<path d="M70755 73380
L70755 72986
" />
<path d="M70755 72789
L70727 72817
L70755 72845
L70784 72817
L70755 72789
L70755 72845
" />
<path d="M71121 73380
L71065 73352
L71037 73295
L71037 72789
" />
<path d="M71571 73352
L71515 73380
L71402 73380
L71346 73352
L71318 73295
L71318 73070
L71346 73014
L71402 72986
L71515 72986
L71571 73014
L71599 73070
L71599 73127
L71318 73183
" />
<path d="M71852 73323
L71880 73352
L71852 73380
L71824 73352
L71852 73323
L71852 73380
" />
<path d="M71852 73014
L71880 73042
L71852 73070
L71824 73042
L71852 73014
L71852 73070
" />
<path d="M72893 73380
L72555 73380
" />
<path d="M72724 73380
L72724 72789
L72668 72874
L72611 72930
L72555 72958
" />
<path d="M73258 72789
L73314 72789
L73371 72817
L73399 72845
L73427 72902
L73455 73014
L73455 73155
L73427 73267
L73399 73323
L73371 73352
L73314 73380
L73258 73380
L73202 73352
L73174 73323
L73146 73267
L73118 73155
L73118 73014
L73146 72902
L73174 72845
L73202 72817
L73258 72789
" />
<path d="M73708 73380
L73708 72789
" />
<path d="M73764 73155
L73933 73380
" />
<path d="M73933 72986
L73708 73211
" />
<path d="M74186 72986
L74186 73380
" />
<path d="M74186 73042
L74214 73014
L74271 72986
L74355 72986
L74411 73014
L74439 73070
L74439 73380
" />
<path d="M74805 73380
L74749 73352
L74721 73323
L74692 73267
L74692 73099
L74721 73042
L74749 73014
L74805 72986
L74889 72986
L74946 73014
L74974 73042
L75002 73099
L75002 73267
L74974 73323
L74946 73352
L74889 73380
L74805 73380
" />
<path d="M75255 73380
L75255 72789
" />
<path d="M75255 73014
L75311 72986
L75424 72986
L75480 73014
L75508 73042
L75536 73099
L75536 73267
L75508 73323
L75480 73352
L75424 73380
L75311 73380
L75255 73352
" />
<path d="M75761 73352
L75817 73380
L75930 73380
L75986 73352
L76014 73295
L76014 73267
L75986 73211
L75930 73183
L75845 73183
L75789 73155
L75761 73099
L75761 73070
L75789 73014
L75845 72986
L75930 72986
L75986 73014
" />
<path d="M76267 73323
L76295 73352
L76267 73380
L76239 73352
L76267 73323
L76267 73380
" />
<path d="M76548 73380
L76548 72789
" />
<path d="M76605 73155
L76773 73380
" />
<path d="M76773 72986
L76548 73211
" />
<path d="M77027 73380
L77027 72986
" />
<path d="M77027 72789
L76998 72817
L77027 72845
L77055 72817
L77027 72789
L77027 72845
" />
<path d="M77561 73352
L77505 73380
L77392 73380
L77336 73352
L77308 73323
L77280 73267
L77280 73099
L77308 73042
L77336 73014
L77392 72986
L77505 72986
L77561 73014
" />
<path d="M78067 73380
L78067 73070
L78039 73014
L77983 72986
L77870 72986
L77814 73014
" />
<path d="M78067 73352
L78011 73380
L77870 73380
L77814 73352
L77786 73295
L77786 73239
L77814 73183
L77870 73155
L78011 73155
L78067 73127
" />
<path d="M78601 73380
L78601 72789
" />
<path d="M78601 73352
L78545 73380
L78433 73380
L78376 73352
L78348 73323
L78320 73267
L78320 73099
L78348 73042
L78376 73014
L78433 72986
L78545 72986
L78601 73014
" />
<path d="M78742 73436
L79192 73436
" />
<path d="M79332 72986
L79332 73577
" />
<path d="M79332 73014
L79389 72986
L79501 72986
L79557 73014
L79586 73042
L79614 73099
L79614 73267
L79586 73323
L79557 73352
L79501 73380
L79389 73380
L79332 73352
" />
<path d="M80120 73352
L80064 73380
L79951 73380
L79895 73352
L79867 73323
L79839 73267
L79839 73099
L79867 73042
L79895 73014
L79951 72986
L80064 72986
L80120 73014
" />
<path d="M80373 73380
L80373 72789
" />
<path d="M80373 73014
L80429 72986
L80542 72986
L80598 73014
L80626 73042
L80654 73099
L80654 73267
L80626 73323
L80598 73352
L80542 73380
L80429 73380
L80373 73352
" />
</g>
<g style="fill:#000000; fill-opacity:0.0; 
stroke:#000000; stroke-width:39.3701; stroke-opacity:1; 
stroke-linecap:round; stroke-linejoin:round;">
</g>
<g style="fill:#000000; fill-opacity:0.0; 
stroke:#000000; stroke-width:59.0551; stroke-opacity:1; 
stroke-linecap:round; stroke-linejoin:round;">
<path d="M69685 71459
L112205 71459
" />
</g>
<g style="fill:#000000; fill-opacity:0.0; 
stroke:#000000; stroke-width:39.3701; stroke-opacity:1; 
stroke-linecap:round; stroke-linejoin:round;">
</g>
<g style="fill:#000000; fill-opacity:0.0; 
stroke:#000000; stroke-width:59.0551; stroke-opacity:1; 
stroke-linecap:round; stroke-linejoin:round;">
<path d="M70221 72289
L70305 72317
L70446 72317
L70502 72289
L70530 72260
L70559 72204
L70559 72148
L70530 72092
L70502 72064
L70446 72036
L70334 72007
L70277 71979
L70249 71951
L70221 71895
L70221 71839
L70249 71782
L70277 71754
L70334 71726
L70474 71726
L70559 71754
" />
<path d="M70812 72317
L70812 71726
" />
<path d="M71065 72317
L71065 72007
L71037 71951
L70980 71923
L70896 71923
L70840 71951
L70812 71979
" />
<path d="M71571 72289
L71515 72317
L71402 72317
L71346 72289
L71318 72232
L71318 72007
L71346 71951
L71402 71923
L71515 71923
L71571 71951
L71599 72007
L71599 72064
L71318 72120
" />
<path d="M72077 72289
L72021 72317
L71908 72317
L71852 72289
L71824 72232
L71824 72007
L71852 71951
L71908 71923
L72021 71923
L72077 71951
L72105 72007
L72105 72064
L71824 72120
" />
<path d="M72274 71923
L72499 71923
" />
<path d="M72358 71726
L72358 72232
L72386 72289
L72443 72317
L72499 72317
" />
<path d="M72696 72260
L72724 72289
L72696 72317
L72668 72289
L72696 72260
L72696 72317
" />
<path d="M72696 71951
L72724 71979
L72696 72007
L72668 71979
L72696 71951
L72696 72007
" />
</g>
<g style="fill:#000000; fill-opacity:0.0; 
stroke:#000000; stroke-width:39.3701; stroke-opacity:1; 
stroke-linecap:round; stroke-linejoin:round;">
</g>
<g style="fill:#000000; fill-opacity:0.0; 
stroke:#000000; stroke-width:59.0551; stroke-opacity:1; 
stroke-linecap:round; stroke-linejoin:round;">
<path d="M77559 75396
L77559 76577
" />
</g>
<g style="fill:#000000; fill-opacity:0.0; 
stroke:#000000; stroke-width:39.3701; stroke-opacity:1; 
stroke-linecap:round; stroke-linejoin:round;">
</g>
<g style="fill:#000000; fill-opacity:0.0; 
stroke:#000000; stroke-width:59.0551; stroke-opacity:1; 
stroke-linecap:round; stroke-linejoin:round;">
<path d="M102756 75396
L102756 77955
" />
</g>
<g style="fill:#000000; fill-opacity:0.0; 
stroke:#000000; stroke-width:39.3701; stroke-opacity:1; 
stroke-linecap:round; stroke-linejoin:round;">
<path d="M37007 31027
L36220 31027
" />
<path d="M36220 31027
L36220 32602
" />
<path d="M36220 32602
L37007 32602
" />
<path d="M37007 32602
L37007 31027
" />
<path d="M36614 30314
L36614 31027
" />
<path d="M36614 33314
L36614 32602
" />
<path d="M37007 31263
L36220 31263
" />
<path d="M37007 31303
L36220 31303
" />
<path d="M37007 31224
L36220 31224
" />
<path d="M25878.2 35958.5 A748.031 748.031 0.0 1 0 25878 36876.5 " />
<circle cx="25287.4" cy="36417.3" r="590.551" /> 
<path d="M25877 36876
L25877 35958
" />
<path d="M23685 30413
L23685 31397
" />
<path d="M23685 31397
L26165 31397
" />
<path d="M26165 31397
L26165 30413
" />
<path d="M26165 30413
L23685 30413
" />
<path d="M23425 30905
L23685 30905
" />
<path d="M26425 30905
L26165 30905
" />
<path d="M46751 23685
L45767 23685
" />
<path d="M45767 23685
L45767 26165
" />
<path d="M45767 26165
L46751 26165
" />
<path d="M46751 26165
L46751 23685
" />
<path d="M46259 23425
L46259 23685
" />
<path d="M46259 26425
L46259 26165
" />
<path d="M30559 30511
L30299 30511
" />
<path d="M27559 30511
L27818 30511
" />
<path d="M30299 30019
L27818 30019
" />
<path d="M30299 31003
L30299 30019
" />
<path d="M27818 31003
L30299 31003
" />
<path d="M27818 30019
L27818 31003
" />
<path d="M30055 33366
L30055 32381
" />
<path d="M30055 32381
L27574 32381
" />
<path d="M27574 32381
L27574 33366
" />
<path d="M27574 33366
L30055 33366
" />
<path d="M30314 32874
L30055 32874
" />
<path d="M27314 32874
L27574 32874
" />
<path d="M30842 38090
L30842 37106
" />
<path d="M30842 37106
L28362 37106
" />
<path d="M28362 37106
L28362 38090
" />
<path d="M28362 38090
L30842 38090
" />
<path d="M31102 37598
L30842 37598
" />
<path d="M28102 37598
L28362 37598
" />
<path d="M46850 30464
L46850 30724
" />
<path d="M46850 33464
L46850 33204
" />
<path d="M46358 30724
L46358 33204
" />
<path d="M47342 30724
L46358 30724
" />
<path d="M47342 33204
L47342 30724
" />
<path d="M46358 33204
L47342 33204
" />
<path d="M27795 17322
L27795 22047
" />
<path d="M31653 17322
L27795 17322
" />
<path d="M31653 22047
L31653 17322
" />
<path d="M27795 22047
L31653 22047
" />
<circle cx="29724.4" cy="19488.2" r="1181.1" /> 
<circle cx="28346.5" cy="12401.6" r="1181.1" /> 
<path d="M26417 14960
L30275 14960
" />
<path d="M30275 14960
L30275 10236
" />
<path d="M30275 10236
L26417 10236
" />
<path d="M26417 10236
L26417 14960
" />
<circle cx="36023.6" cy="12401.6" r="1181.1" /> 
<path d="M34094 14960
L37952 14960
" />
<path d="M37952 14960
L37952 10236
" />
<path d="M37952 10236
L34094 10236
" />
<path d="M34094 10236
L34094 14960
" />
<path d="M35275 17322
L35275 22047
" />
<path d="M39133 17322
L35275 17322
" />
<path d="M39133 22047
L39133 17322
" />
<path d="M35275 22047
L39133 22047
" />
<circle cx="37204.7" cy="19488.2" r="1181.1" /> 
<circle cx="43307.1" cy="12401.6" r="1181.1" /> 
<path d="M41377 14960
L45236 14960
" />
<path d="M45236 14960
L45236 10236
" />
<path d="M45236 10236
L41377 10236
" />
<path d="M41377 10236
L41377 14960
" />
<path d="M42755 17322
L42755 22047
" />
<path d="M46614 17322
L42755 17322
" />
<path d="M46614 22047
L46614 17322
" />
<path d="M42755 22047
L46614 22047
" />
<circle cx="44685" cy="19488.2" r="1181.1" /> 
<circle cx="52165.4" cy="19488.2" r="1181.1" /> 
<path d="M50236 22047
L54094 22047
" />
<path d="M54094 22047
L54094 17322
" />
<path d="M54094 17322
L50236 17322
" />
<path d="M50236 17322
L50236 22047
" />
<path d="M48661 10236
L48661 14960
" />
<path d="M52519 10236
L48661 10236
" />
<path d="M52519 14960
L52519 10236
" />
<path d="M48661 14960
L52519 14960
" />
<circle cx="50590.6" cy="12401.6" r="1181.1" /> 
<path d="M49362 29724
L49622 29724
" />
<path d="M52362 29724
L52102 29724
" />
<path d="M49622 30216
L52102 30216
" />
<path d="M49622 29232
L49622 30216
" />
<path d="M52102 29232
L49622 29232
" />
<path d="M52102 30216
L52102 29232
" />
<circle cx="43208.7" cy="31889.8" r="984.252" /> 
<path d="M44048 32317
L43851 32317
" />
<path d="M43950 32416
L43950 32219
" />
<path d="M39476 37348
L39476 38098
" />
<path d="M39476 38098
L33476 38098
" />
<path d="M33476 38098
L33476 37098
" />
<path d="M33476 37098
L39226 37098
" />
<path d="M39226 37098
L39476 37348
" />
<path d="M20535 35531
L20535 36515
" />
<path d="M20535 36515
L23015 36515
" />
<path d="M23015 36515
L23015 35531
" />
<path d="M23015 35531
L20535 35531
" />
<path d="M20275 36023
L20535 36023
" />
<path d="M23275 36023
L23015 36023
" />
<circle cx="41376" cy="25815" r="350.394" /> 
<path d="M39214 24543
L39214 26314
" />
<path d="M39214 26314
L41856 26314
" />
<path d="M41856 26314
L41856 24543
" />
<path d="M41856 24543
L39214 24543
" />
<path d="M41375 26162
L41376 25468
" />
<path d="M41375 26162
L41376 25468
" />
<path d="M20511 17322
L20511 22047
" />
<path d="M24370 17322
L20511 17322
" />
<path d="M24370 22047
L24370 17322
" />
<path d="M20511 22047
L24370 22047
" />
<circle cx="22440.9" cy="19488.2" r="1181.1" /> 
<circle cx="20866.1" cy="12401.6" r="1181.1" /> 
<path d="M18937 14960
L22795 14960
" />
<path d="M22795 14960
L22795 10236
" />
<path d="M22795 10236
L18937 10236
" />
<path d="M18937 10236
L18937 14960
" />
<path d="M37492 32820
L37492 30714
" />
<path d="M37492 30714
L41492 30714
" />
<path d="M41492 30714
L41492 33214
" />
<path d="M41492 33214
L37885 33214
" />
<path d="M37885 33214
L37492 32820
" />
<path d="M35342 30564
L35736 30958
" />
<path d="M31736 30564
L35342 30564
" />
<path d="M31736 33064
L31736 30564
" />
<path d="M35736 33064
L31736 33064
" />
<path d="M35736 30958
L35736 33064
" />
<circle cx="50885.8" cy="27362.2" r="984.252" /> 
<path d="M51725 27790
L51528 27790
" />
<path d="M51627 27888
L51627 27691
" />
<path d="M29186 26313
L29186 26117
" />
<path d="M29284 26215
L29088 26215
" />
<circle cx="28444.9" cy="25787.4" r="984.252" /> 
<circle cx="54330.7" cy="34547.2" r="984.252" /> 
<path d="M53902 35387
L53902 35190
" />
<path d="M53804 35288
L54000 35288
" />
<path d="M54857 31246
L54660 31246
" />
<path d="M54758 31148
L54758 31345
" />
<circle cx="54330.7" cy="31988.2" r="984.252" /> 
<path d="M53444 29464
L54429 29464
" />
<path d="M54429 29464
L54429 26984
" />
<path d="M54429 26984
L53444 26984
" />
<path d="M53444 26984
L53444 29464
" />
<path d="M53937 29724
L53937 29464
" />
<path d="M53937 26724
L53937 26984
" />
<path d="M51521 35539
L49415 35539
" />
<path d="M49415 35539
L49415 31539
" />
<path d="M49415 31539
L51915 31539
" />
<path d="M51915 31539
L51915 35145
" />
<path d="M51915 35145
L51521 35539
" />
<path d="M45818 27755
L46078 27755
" />
<path d="M48818 27755
L48559 27755
" />
<path d="M46078 28248
L48559 28248
" />
<path d="M46078 27263
L46078 28248
" />
<path d="M48559 27263
L46078 27263
" />
<path d="M48559 28248
L48559 27263
" />
<path d="M45606 30610
L45606 29625
" />
<path d="M45606 29625
L43125 29625
" />
<path d="M43125 29625
L43125 30610
" />
<path d="M43125 30610
L45606 30610
" />
<path d="M45866 30118
L45606 30118
" />
<path d="M42866 30118
L43125 30118
" />
</g>
<g style="fill:#000000; fill-opacity:0.0; 
stroke:#000000; stroke-width:59.0551; stroke-opacity:1; 
stroke-linecap:round; stroke-linejoin:round;">
<path d="M35957 32471
L35957 32696
" />
<path d="M35957 32583
L35563 32583
L35620 32621
L35657 32658
L35676 32696
" />
<path d="M35957 32302
L35563 32302
L35957 32077
L35563 32077
" />
<path d="M35957 31871
L35957 31796
L35938 31758
L35920 31739
L35863 31702
L35788 31683
L35638 31683
L35601 31702
L35582 31721
L35563 31758
L35563 31833
L35582 31871
L35601 31889
L35638 31908
L35732 31908
L35770 31889
L35788 31871
L35807 31833
L35807 31758
L35788 31721
L35770 31702
L35732 31683
" />
<path d="M35957 31308
L35957 31533
" />
<path d="M35957 31421
L35563 31421
L35620 31458
L35657 31496
L35676 31533
" />
<path d="M35695 30971
L35957 30971
" />
<path d="M35545 31065
L35826 31158
L35826 30915
" />
</g>
<g style="fill:#000000; fill-opacity:0.0; 
stroke:#000000; stroke-width:47.2441; stroke-opacity:1; 
stroke-linecap:round; stroke-linejoin:round;">
<path d="M36756 32165
L36441 32165
L36441 32090
L36456 32045
L36486 32015
L36516 32000
L36576 31985
L36621 31985
L36681 32000
L36711 32015
L36741 32045
L36756 32090
L36756 32165
" />
<path d="M36756 31685
L36756 31865
" />
<path d="M36756 31775
L36441 31775
L36486 31805
L36516 31835
L36531 31865
" />
</g>
<g style="fill:#000000; fill-opacity:0.0; 
stroke:#000000; stroke-width:59.0551; stroke-opacity:1; 
stroke-linecap:round; stroke-linejoin:round;">
<path d="M37500 30418
L37107 30418
" />
<path d="M37500 30193
L37275 30361
" />
<path d="M37107 30193
L37332 30418
" />
<path d="M25034 35430
L24846 35430
L24846 35036
" />
<path d="M25165 35223
L25296 35223
" />
<path d="M25353 35430
L25165 35430
L25165 35036
L25353 35036
" />
<path d="M25521 35430
L25521 35036
L25615 35036
L25671 35055
L25709 35092
L25727 35130
L25746 35205
L25746 35261
L25727 35336
L25709 35373
L25671 35411
L25615 35430
L25521 35430
" />
<path d="M24850 32016
L24625 32016
" />
<path d="M24737 32016
L24737 31622
L24700 31679
L24662 31716
L24625 31735
" />
<path d="M25093 31622
L25131 31622
L25168 31641
L25187 31660
L25206 31697
L25225 31772
L25225 31866
L25206 31941
L25187 31979
L25168 31997
L25131 32016
L25093 32016
L25056 31997
L25037 31979
L25018 31941
L25000 31866
L25000 31772
L25018 31697
L25037 31660
L25056 31641
L25093 31622
" />
<path d="M24737 31083
L24606 30896
" />
<path d="M24512 31083
L24512 30689
L24662 30689
L24700 30708
L24718 30727
L24737 30764
L24737 30821
L24718 30858
L24700 30877
L24662 30896
L24512 30896
" />
<path d="M25112 31083
L24887 31083
" />
<path d="M25000 31083
L25000 30689
L24962 30746
L24925 30783
L24887 30802
" />
<path d="M45148 25412
L45129 25393
L45111 25356
L45111 25262
L45129 25225
L45148 25206
L45186 25187
L45223 25187
L45279 25206
L45504 25431
L45504 25187
" />
<path d="M45148 25037
L45129 25018
L45111 24981
L45111 24887
L45129 24850
L45148 24831
L45186 24812
L45223 24812
L45279 24831
L45504 25056
L45504 24812
" />
<path d="M45111 24568
L45111 24531
L45129 24494
L45148 24475
L45186 24456
L45261 24437
L45354 24437
L45429 24456
L45467 24475
L45486 24494
L45504 24531
L45504 24568
L45486 24606
L45467 24625
L45429 24643
L45354 24662
L45261 24662
L45186 24643
L45148 24625
L45129 24606
L45111 24568
" />
<path d="M46437 24990
L46250 25122
" />
<path d="M46437 25215
L46044 25215
L46044 25065
L46062 25028
L46081 25009
L46119 24990
L46175 24990
L46212 25009
L46231 25028
L46250 25065
L46250 25215
" />
<path d="M46081 24840
L46062 24822
L46044 24784
L46044 24690
L46062 24653
L46081 24634
L46119 24615
L46156 24615
L46212 24634
L46437 24859
L46437 24615
" />
<path d="M28571 31266
L28590 31248
L28627 31229
L28721 31229
L28759 31248
L28777 31266
L28796 31304
L28796 31341
L28777 31398
L28552 31622
L28796 31622
" />
<path d="M28946 31266
L28965 31248
L29002 31229
L29096 31229
L29134 31248
L29152 31266
L29171 31304
L29171 31341
L29152 31398
L28927 31622
L29171 31622
" />
<path d="M29415 31229
L29452 31229
L29490 31248
L29508 31266
L29527 31304
L29546 31379
L29546 31473
L29527 31547
L29508 31585
L29490 31604
L29452 31622
L29415 31622
L29377 31604
L29359 31585
L29340 31547
L29321 31473
L29321 31379
L29340 31304
L29359 31266
L29377 31248
L29415 31229
" />
<path d="M28993 30689
L28862 30502
" />
<path d="M28768 30689
L28768 30296
L28918 30296
L28955 30314
L28974 30333
L28993 30371
L28993 30427
L28974 30464
L28955 30483
L28918 30502
L28768 30502
" />
<path d="M29124 30296
L29368 30296
L29237 30446
L29293 30446
L29330 30464
L29349 30483
L29368 30521
L29368 30614
L29349 30652
L29330 30671
L29293 30689
L29180 30689
L29143 30671
L29124 30652
" />
<path d="M28327 31762
L28346 31744
L28383 31725
L28477 31725
L28514 31744
L28533 31762
L28552 31800
L28552 31837
L28533 31894
L28308 32119
L28552 32119
" />
<path d="M28702 31762
L28721 31744
L28758 31725
L28852 31725
L28889 31744
L28908 31762
L28927 31800
L28927 31837
L28908 31894
L28683 32119
L28927 32119
" />
<path d="M29171 31725
L29208 31725
L29246 31744
L29264 31762
L29283 31800
L29302 31875
L29302 31969
L29283 32044
L29264 32081
L29246 32100
L29208 32119
L29171 32119
L29133 32100
L29114 32081
L29096 32044
L29077 31969
L29077 31875
L29096 31800
L29114 31762
L29133 31744
L29171 31725
" />
<path d="M28749 33052
L28618 32864
" />
<path d="M28524 33052
L28524 32658
L28674 32658
L28711 32677
L28730 32695
L28749 32733
L28749 32789
L28730 32827
L28711 32845
L28674 32864
L28524 32864
" />
<path d="M29086 32789
L29086 33052
" />
<path d="M28993 32639
L28899 32920
L29143 32920
" />
<path d="M29114 36487
L29133 36468
L29171 36449
L29264 36449
L29302 36468
L29321 36487
L29339 36524
L29339 36562
L29321 36618
L29096 36843
L29339 36843
" />
<path d="M29489 36487
L29508 36468
L29546 36449
L29639 36449
L29677 36468
L29696 36487
L29714 36524
L29714 36562
L29696 36618
L29471 36843
L29714 36843
" />
<path d="M29958 36449
L29996 36449
L30033 36468
L30052 36487
L30071 36524
L30089 36599
L30089 36693
L30071 36768
L30052 36805
L30033 36824
L29996 36843
L29958 36843
L29921 36824
L29902 36805
L29883 36768
L29864 36693
L29864 36599
L29883 36524
L29902 36487
L29921 36468
L29958 36449
" />
<path d="M29536 37776
L29405 37589
" />
<path d="M29311 37776
L29311 37382
L29461 37382
L29499 37401
L29517 37420
L29536 37457
L29536 37514
L29517 37551
L29499 37570
L29461 37589
L29311 37589
" />
<path d="M29892 37382
L29705 37382
L29686 37570
L29705 37551
L29742 37532
L29836 37532
L29874 37551
L29892 37570
L29911 37607
L29911 37701
L29892 37739
L29874 37757
L29836 37776
L29742 37776
L29705 37757
L29686 37739
" />
<path d="M47699 32423
L47961 32423
" />
<path d="M47549 32517
L47830 32611
L47830 32367
" />
<path d="M47567 32255
L47567 31992
L47961 32161
" />
<path d="M47567 31767
L47567 31730
L47586 31692
L47605 31673
L47642 31655
L47717 31636
L47811 31636
L47886 31655
L47924 31673
L47942 31692
L47961 31730
L47961 31767
L47942 31805
L47924 31823
L47886 31842
L47811 31861
L47717 31861
L47642 31842
L47605 31823
L47586 31805
L47567 31767
" />
<path d="M47961 31467
L47567 31467
" />
<path d="M47811 31430
L47961 31317
" />
<path d="M47699 31317
L47849 31467
" />
<path d="M47028 32030
L46841 32161
" />
<path d="M47028 32255
L46634 32255
L46634 32105
L46653 32067
L46672 32048
L46709 32030
L46766 32030
L46803 32048
L46822 32067
L46841 32105
L46841 32255
" />
<path d="M46634 31692
L46634 31767
L46653 31805
L46672 31823
L46728 31861
L46803 31880
L46953 31880
L46991 31861
L47009 31842
L47028 31805
L47028 31730
L47009 31692
L46991 31673
L46953 31655
L46859 31655
L46822 31673
L46803 31692
L46784 31730
L46784 31805
L46803 31842
L46822 31861
L46859 31880
" />
<path d="M32914 20330
L32914 20555
" />
<path d="M32914 20443
L32520 20443
L32576 20480
L32614 20518
L32633 20555
" />
<path d="M32520 20087
L32520 20049
L32539 20012
L32558 19993
L32595 19974
L32670 19955
L32764 19955
L32839 19974
L32876 19993
L32895 20012
L32914 20049
L32914 20087
L32895 20124
L32876 20143
L32839 20162
L32764 20180
L32670 20180
L32595 20162
L32558 20143
L32539 20124
L32520 20087
" />
<path d="M32914 19787
L32520 19787
" />
<path d="M32914 19562
L32689 19730
" />
<path d="M32520 19562
L32745 19787
" />
<path d="M25365 22815
L25365 22422
L25515 22422
L25553 22440
L25571 22459
L25590 22497
L25590 22553
L25571 22590
L25553 22609
L25515 22628
L25365 22628
" />
<path d="M25740 22703
L25928 22703
" />
<path d="M25703 22815
L25834 22422
L25965 22815
" />
<path d="M26059 22422
L26321 22422
L26152 22815
" />
<path d="M26696 22815
L26565 22628
" />
<path d="M26471 22815
L26471 22422
L26621 22422
L26659 22440
L26677 22459
L26696 22497
L26696 22553
L26677 22590
L26659 22609
L26621 22628
L26471 22628
" />
<path d="M26809 22422
L26940 22815
L27071 22422
" />
<path d="M27409 22815
L27184 22815
" />
<path d="M27296 22815
L27296 22422
L27259 22478
L27221 22515
L27184 22534
" />
<path d="M31536 13244
L31536 13469
" />
<path d="M31536 13356
L31142 13356
L31198 13394
L31236 13431
L31255 13469
" />
<path d="M31142 13000
L31142 12963
L31161 12925
L31180 12906
L31217 12888
L31292 12869
L31386 12869
L31461 12888
L31498 12906
L31517 12925
L31536 12963
L31536 13000
L31517 13038
L31498 13056
L31461 13075
L31386 13094
L31292 13094
L31217 13075
L31180 13056
L31161 13038
L31142 13000
" />
<path d="M31536 12700
L31142 12700
" />
<path d="M31536 12475
L31311 12644
" />
<path d="M31142 12475
L31367 12700
" />
<path d="M24540 16516
L24540 16122
L24690 16122
L24728 16141
L24746 16160
L24765 16197
L24765 16254
L24746 16291
L24728 16310
L24690 16329
L24540 16329
" />
<path d="M24915 16404
L25103 16404
" />
<path d="M24878 16516
L25009 16122
L25140 16516
" />
<path d="M25440 16122
L25365 16122
L25328 16141
L25309 16160
L25271 16216
L25253 16291
L25253 16441
L25271 16479
L25290 16497
L25328 16516
L25403 16516
L25440 16497
L25459 16479
L25478 16441
L25478 16347
L25459 16310
L25440 16291
L25403 16272
L25328 16272
L25290 16291
L25271 16310
L25253 16347
" />
<path d="M39213 13244
L39213 13469
" />
<path d="M39213 13356
L38819 13356
L38876 13394
L38913 13431
L38932 13469
" />
<path d="M38819 13000
L38819 12963
L38838 12925
L38857 12906
L38894 12888
L38969 12869
L39063 12869
L39138 12888
L39176 12906
L39194 12925
L39213 12963
L39213 13000
L39194 13038
L39176 13056
L39138 13075
L39063 13094
L38969 13094
L38894 13075
L38857 13056
L38838 13038
L38819 13000
" />
<path d="M39213 12700
L38819 12700
" />
<path d="M39213 12475
L38988 12644
" />
<path d="M38819 12475
L39044 12700
" />
<path d="M32611 16516
L32611 16122
L32761 16122
L32799 16141
L32817 16160
L32836 16197
L32836 16254
L32817 16291
L32799 16310
L32761 16329
L32611 16329
" />
<path d="M32986 16404
L33173 16404
" />
<path d="M32949 16516
L33080 16122
L33211 16516
" />
<path d="M33530 16122
L33342 16122
L33323 16310
L33342 16291
L33380 16272
L33473 16272
L33511 16291
L33530 16310
L33548 16347
L33548 16441
L33530 16479
L33511 16497
L33473 16516
L33380 16516
L33342 16497
L33323 16479
" />
<path d="M40394 20330
L40394 20555
" />
<path d="M40394 20443
L40000 20443
L40057 20480
L40094 20518
L40113 20555
" />
<path d="M40000 20087
L40000 20049
L40019 20012
L40038 19993
L40075 19974
L40150 19955
L40244 19955
L40319 19974
L40357 19993
L40375 20012
L40394 20049
L40394 20087
L40375 20124
L40357 20143
L40319 20162
L40244 20180
L40150 20180
L40075 20162
L40038 20143
L40019 20124
L40000 20087
" />
<path d="M40394 19787
L40000 19787
" />
<path d="M40394 19562
L40169 19730
" />
<path d="M40000 19562
L40225 19787
" />
<path d="M34580 23800
L34580 23406
L34730 23406
L34767 23425
L34786 23443
L34805 23481
L34805 23537
L34786 23575
L34767 23593
L34730 23612
L34580 23612
" />
<path d="M34955 23687
L35142 23687
" />
<path d="M34917 23800
L35048 23406
L35179 23800
" />
<path d="M35479 23537
L35479 23800
" />
<path d="M35386 23387
L35292 23668
L35536 23668
" />
<path d="M46497 13244
L46497 13469
" />
<path d="M46497 13356
L46103 13356
L46159 13394
L46197 13431
L46215 13469
" />
<path d="M46103 13000
L46103 12963
L46122 12925
L46140 12906
L46178 12888
L46253 12869
L46347 12869
L46422 12888
L46459 12906
L46478 12925
L46497 12963
L46497 13000
L46478 13038
L46459 13056
L46422 13075
L46347 13094
L46253 13094
L46178 13075
L46140 13056
L46122 13038
L46103 13000
" />
<path d="M46497 12700
L46103 12700
" />
<path d="M46497 12475
L46272 12644
" />
<path d="M46103 12475
L46328 12700
" />
<path d="M40091 16516
L40091 16122
L40241 16122
L40279 16141
L40298 16160
L40316 16197
L40316 16254
L40298 16291
L40279 16310
L40241 16329
L40091 16329
" />
<path d="M40466 16404
L40654 16404
" />
<path d="M40429 16516
L40560 16122
L40691 16516
" />
<path d="M40785 16122
L41029 16122
L40898 16272
L40954 16272
L40991 16291
L41010 16310
L41029 16347
L41029 16441
L41010 16479
L40991 16497
L40954 16516
L40841 16516
L40804 16497
L40785 16479
" />
<path d="M47874 20330
L47874 20555
" />
<path d="M47874 20443
L47481 20443
L47537 20480
L47574 20518
L47593 20555
" />
<path d="M47481 20087
L47481 20049
L47500 20012
L47518 19993
L47556 19974
L47631 19955
L47724 19955
L47799 19974
L47837 19993
L47856 20012
L47874 20049
L47874 20087
L47856 20124
L47837 20143
L47799 20162
L47724 20180
L47631 20180
L47556 20162
L47518 20143
L47500 20124
L47481 20087
" />
<path d="M47874 19787
L47481 19787
" />
<path d="M47874 19562
L47649 19730
" />
<path d="M47481 19562
L47706 19787
" />
<path d="M41076 23406
L41076 23012
L41226 23012
L41263 23031
L41282 23050
L41301 23087
L41301 23143
L41282 23181
L41263 23200
L41226 23218
L41076 23218
" />
<path d="M41451 23293
L41638 23293
" />
<path d="M41413 23406
L41544 23012
L41676 23406
" />
<path d="M41788 23050
L41807 23031
L41844 23012
L41938 23012
L41976 23031
L41994 23050
L42013 23087
L42013 23125
L41994 23181
L41769 23406
L42013 23406
" />
<path d="M55355 20330
L55355 20555
" />
<path d="M55355 20443
L54961 20443
L55017 20480
L55055 20518
L55074 20555
" />
<path d="M54961 20087
L54961 20049
L54980 20012
L54999 19993
L55036 19974
L55111 19955
L55205 19955
L55280 19974
L55317 19993
L55336 20012
L55355 20049
L55355 20087
L55336 20124
L55317 20143
L55280 20162
L55205 20180
L55111 20180
L55036 20162
L54999 20143
L54980 20124
L54961 20087
" />
<path d="M55355 19787
L54961 19787
" />
<path d="M55355 19562
L55130 19730
" />
<path d="M54961 19562
L55186 19787
" />
<path d="M53083 16516
L53083 16122
L53233 16122
L53271 16141
L53290 16160
L53308 16197
L53308 16254
L53290 16291
L53271 16310
L53233 16329
L53083 16329
" />
<path d="M53458 16404
L53646 16404
" />
<path d="M53421 16516
L53552 16122
L53683 16516
" />
<path d="M54021 16516
L53796 16516
" />
<path d="M53908 16516
L53908 16122
L53871 16179
L53833 16216
L53796 16235
" />
<path d="M53780 13244
L53780 13469
" />
<path d="M53780 13356
L53386 13356
L53443 13394
L53480 13431
L53499 13469
" />
<path d="M53386 13000
L53386 12963
L53405 12925
L53424 12906
L53461 12888
L53536 12869
L53630 12869
L53705 12888
L53742 12906
L53761 12925
L53780 12963
L53780 13000
L53761 13038
L53742 13056
L53705 13075
L53630 13094
L53536 13094
L53461 13075
L53424 13056
L53405 13038
L53386 13000
" />
<path d="M53780 12700
L53386 12700
" />
<path d="M53780 12475
L53555 12644
" />
<path d="M53386 12475
L53611 12700
" />
<path d="M51949 21241
L52080 21634
L52212 21241
" />
<path d="M52399 21634
L52362 21616
L52343 21597
L52324 21559
L52324 21447
L52343 21409
L52362 21391
L52399 21372
L52455 21372
L52493 21391
L52512 21409
L52530 21447
L52530 21559
L52512 21597
L52493 21616
L52455 21634
L52399 21634
" />
<path d="M52755 21634
L52718 21616
L52699 21578
L52699 21241
" />
<path d="M23125 34528
L23350 34528
" />
<path d="M23237 34922
L23237 34528
" />
<path d="M23650 34659
L23650 34922
" />
<path d="M23556 34509
L23462 34790
L23706 34790
" />
<path d="M22928 32796
L23153 32796
" />
<path d="M23040 33189
L23040 32796
" />
<path d="M23284 33189
L23284 32796
L23434 32796
L23472 32814
L23490 32833
L23509 32871
L23509 32927
L23490 32964
L23472 32983
L23434 33002
L23284 33002
" />
<path d="M23884 33189
L23659 33189
" />
<path d="M23772 33189
L23772 32796
L23734 32852
L23697 32889
L23659 32908
" />
<path d="M21156 34528
L21381 34528
" />
<path d="M21269 34922
L21269 34528
" />
<path d="M21494 34565
L21512 34547
L21550 34528
L21644 34528
L21681 34547
L21700 34565
L21719 34603
L21719 34640
L21700 34697
L21475 34922
L21719 34922
" />
<path d="M20959 32796
L21184 32796
" />
<path d="M21072 33189
L21072 32796
" />
<path d="M21316 33189
L21316 32796
L21466 32796
L21503 32814
L21522 32833
L21541 32871
L21541 32927
L21522 32964
L21503 32983
L21466 33002
L21316 33002
" />
<path d="M21691 32833
L21709 32814
L21747 32796
L21841 32796
L21878 32814
L21897 32833
L21916 32871
L21916 32908
L21897 32964
L21672 33189
L21916 33189
" />
<path d="M19385 34528
L19610 34528
" />
<path d="M19497 34922
L19497 34528
" />
<path d="M19928 34528
L19741 34528
L19722 34715
L19741 34697
L19778 34678
L19872 34678
L19910 34697
L19928 34715
L19947 34753
L19947 34847
L19928 34884
L19910 34903
L19872 34922
L19778 34922
L19741 34903
L19722 34884
" />
<path d="M19188 32796
L19413 32796
" />
<path d="M19300 33189
L19300 32796
" />
<path d="M19544 33189
L19544 32796
L19694 32796
L19731 32814
L19750 32833
L19769 32871
L19769 32927
L19750 32964
L19731 32983
L19694 33002
L19544 33002
" />
<path d="M19900 32796
L20144 32796
L20013 32946
L20069 32946
L20106 32964
L20125 32983
L20144 33021
L20144 33114
L20125 33152
L20106 33171
L20069 33189
L19956 33189
L19919 33171
L19900 33152
" />
<path d="M19695 29103
L19695 28710
" />
<path d="M19883 29103
L19883 28710
L20108 29103
L20108 28710
" />
<path d="M20483 28710
L20295 28710
L20276 28897
L20295 28878
L20333 28860
L20426 28860
L20464 28878
L20483 28897
L20501 28935
L20501 29028
L20483 29066
L20464 29085
L20426 29103
L20333 29103
L20295 29085
L20276 29066
" />
<path d="M19592 26977
L19817 26977
" />
<path d="M19705 27371
L19705 26977
" />
<path d="M19948 27371
L19948 26977
L20098 26977
L20136 26996
L20155 27015
L20173 27052
L20173 27109
L20155 27146
L20136 27165
L20098 27184
L19948 27184
" />
<path d="M20511 27109
L20511 27371
" />
<path d="M20417 26959
L20323 27240
L20567 27240
" />
<path d="M23675 29023
L23675 28630
" />
<path d="M23863 29023
L23863 28630
L24088 29023
L24088 28630
" />
<path d="M24444 28761
L24444 29023
" />
<path d="M24350 28611
L24256 28892
L24500 28892
" />
<path d="M23572 26897
L23797 26897
" />
<path d="M23685 27291
L23685 26897
" />
<path d="M23928 27291
L23928 26897
L24078 26897
L24116 26916
L24135 26935
L24153 26972
L24153 27029
L24135 27066
L24116 27085
L24078 27104
L23928 27104
" />
<path d="M24510 26897
L24322 26897
L24303 27085
L24322 27066
L24360 27047
L24453 27047
L24491 27066
L24510 27085
L24528 27122
L24528 27216
L24510 27254
L24491 27272
L24453 27291
L24360 27291
L24322 27272
L24303 27254
" />
<path d="M21695 29043
L21695 28650
" />
<path d="M21883 29043
L21883 28650
L22108 29043
L22108 28650
" />
<path d="M22276 28687
L22295 28668
L22333 28650
L22426 28650
L22464 28668
L22483 28687
L22501 28725
L22501 28762
L22483 28818
L22258 29043
L22501 29043
" />
<path d="M21592 26917
L21817 26917
" />
<path d="M21705 27311
L21705 26917
" />
<path d="M21948 27311
L21948 26917
L22098 26917
L22136 26936
L22155 26955
L22173 26992
L22173 27049
L22155 27086
L22136 27105
L22098 27124
L21948 27124
" />
<path d="M22511 26917
L22436 26917
L22398 26936
L22380 26955
L22342 27011
L22323 27086
L22323 27236
L22342 27274
L22361 27292
L22398 27311
L22473 27311
L22511 27292
L22530 27274
L22548 27236
L22548 27142
L22530 27105
L22511 27086
L22473 27067
L22398 27067
L22361 27086
L22342 27105
L22323 27142
" />
<path d="M53037 25867
L52999 25848
L52980 25829
L52962 25792
L52962 25679
L52980 25642
L52999 25623
L53037 25604
L53093 25604
L53130 25623
L53149 25642
L53168 25679
L53168 25792
L53149 25829
L53130 25848
L53093 25867
L53037 25867
" />
<path d="M53505 25604
L53505 25867
" />
<path d="M53337 25604
L53337 25810
L53355 25848
L53393 25867
L53449 25867
L53487 25848
L53505 25829
" />
<path d="M53637 25604
L53787 25604
" />
<path d="M53693 25473
L53693 25810
L53712 25848
L53749 25867
L53787 25867
" />
<path d="M54124 25867
L53899 25867
" />
<path d="M54011 25867
L54011 25473
L53974 25529
L53937 25567
L53899 25585
" />
<path d="M53046 23741
L53271 23741
" />
<path d="M53158 24134
L53158 23741
" />
<path d="M53402 24134
L53402 23741
L53552 23741
L53590 23759
L53608 23778
L53627 23816
L53627 23872
L53608 23909
L53590 23928
L53552 23947
L53402 23947
" />
<path d="M53758 23741
L54021 23741
L53852 24134
" />
<path d="M24971 34715
L25028 34734
L25046 34753
L25065 34790
L25065 34847
L25046 34884
L25028 34903
L24990 34922
L24840 34922
L24840 34528
L24971 34528
L25009 34547
L25028 34565
L25046 34603
L25046 34640
L25028 34678
L25009 34697
L24971 34715
L24840 34715
" />
<path d="M25403 34922
L25403 34715
L25384 34678
L25346 34659
L25271 34659
L25234 34678
" />
<path d="M25403 34903
L25365 34922
L25271 34922
L25234 34903
L25215 34865
L25215 34828
L25234 34790
L25271 34772
L25365 34772
L25403 34753
" />
<path d="M25534 34659
L25684 34659
" />
<path d="M25590 34528
L25590 34865
L25609 34903
L25646 34922
L25684 34922
" />
<path d="M25759 34659
L25909 34659
" />
<path d="M25815 34528
L25815 34865
L25834 34903
L25871 34922
L25909 34922
" />
<path d="M26040 34772
L26340 34772
" />
<path d="M26190 34922
L26190 34622
" />
<path d="M25093 32796
L25318 32796
" />
<path d="M25206 33189
L25206 32796
" />
<path d="M25449 33189
L25449 32796
L25599 32796
L25637 32814
L25656 32833
L25674 32871
L25674 32927
L25656 32964
L25637 32983
L25599 33002
L25449 33002
" />
<path d="M25862 33189
L25937 33189
L25974 33171
L25993 33152
L26031 33096
L26049 33021
L26049 32871
L26031 32833
L26012 32814
L25974 32796
L25899 32796
L25862 32814
L25843 32833
L25824 32871
L25824 32964
L25843 33002
L25862 33021
L25899 33039
L25974 33039
L26012 33021
L26031 33002
L26049 32964
" />
<path d="M25510 28897
L25567 28916
L25585 28935
L25604 28972
L25604 29028
L25585 29066
L25567 29085
L25529 29103
L25379 29103
L25379 28710
L25510 28710
L25548 28728
L25567 28747
L25585 28785
L25585 28822
L25567 28860
L25548 28878
L25510 28897
L25379 28897
" />
<path d="M25941 29103
L25941 28897
L25923 28860
L25885 28841
L25810 28841
L25773 28860
" />
<path d="M25941 29085
L25904 29103
L25810 29103
L25773 29085
L25754 29047
L25754 29010
L25773 28972
L25810 28953
L25904 28953
L25941 28935
" />
<path d="M26073 28841
L26223 28841
" />
<path d="M26129 28710
L26129 29047
L26148 29085
L26185 29103
L26223 29103
" />
<path d="M26298 28841
L26448 28841
" />
<path d="M26354 28710
L26354 29047
L26373 29085
L26410 29103
L26448 29103
" />
<path d="M26579 28953
L26879 28953
" />
<path d="M25445 26977
L25670 26977
" />
<path d="M25557 27371
L25557 26977
" />
<path d="M25801 27371
L25801 26977
L25951 26977
L25988 26996
L26007 27015
L26026 27052
L26026 27109
L26007 27146
L25988 27165
L25951 27184
L25801 27184
" />
<path d="M26401 27371
L26176 27371
" />
<path d="M26288 27371
L26288 26977
L26251 27034
L26213 27071
L26176 27090
" />
<path d="M26645 26977
L26682 26977
L26720 26996
L26738 27015
L26757 27052
L26776 27127
L26776 27221
L26757 27296
L26738 27334
L26720 27352
L26682 27371
L26645 27371
L26607 27352
L26588 27334
L26570 27296
L26551 27221
L26551 27127
L26570 27052
L26588 27015
L26607 26996
L26645 26977
" />
<path d="M47731 25295
L47694 25276
L47637 25276
L47581 25295
L47544 25332
L47525 25370
L47506 25445
L47506 25501
L47525 25576
L47544 25613
L47581 25651
L47637 25670
L47675 25670
L47731 25651
L47750 25632
L47750 25501
L47675 25501
" />
<path d="M47919 25670
L47919 25276
L48143 25670
L48143 25276
" />
<path d="M48331 25670
L48331 25276
L48425 25276
L48481 25295
L48518 25332
L48537 25370
L48556 25445
L48556 25501
L48537 25576
L48518 25613
L48481 25651
L48425 25670
L48331 25670
" />
<path d="M47347 23544
L47572 23544
" />
<path d="M47459 23937
L47459 23544
" />
<path d="M47703 23937
L47703 23544
L47853 23544
L47890 23562
L47909 23581
L47928 23619
L47928 23675
L47909 23712
L47890 23731
L47853 23750
L47703 23750
" />
<path d="M48303 23937
L48078 23937
" />
<path d="M48190 23937
L48190 23544
L48153 23600
L48115 23637
L48078 23656
" />
<path d="M48678 23937
L48453 23937
" />
<path d="M48565 23937
L48565 23544
L48528 23600
L48490 23637
L48453 23656
" />
<path d="M50815 28969
L50590 28969
" />
<path d="M50702 28969
L50702 28575
L50665 28631
L50627 28669
L50590 28688
" />
<path d="M50984 28969
L50984 28575
" />
<path d="M51021 28819
L51134 28969
" />
<path d="M51134 28706
L50984 28856
" />
<path d="M50796 29902
L50665 29715
" />
<path d="M50571 29902
L50571 29508
L50721 29508
L50759 29527
L50777 29546
L50796 29583
L50796 29640
L50777 29677
L50759 29696
L50721 29715
L50571 29715
" />
<path d="M51021 29677
L50984 29658
L50965 29640
L50946 29602
L50946 29583
L50965 29546
L50984 29527
L51021 29508
L51096 29508
L51134 29527
L51152 29546
L51171 29583
L51171 29602
L51152 29640
L51134 29658
L51096 29677
L51021 29677
L50984 29696
L50965 29715
L50946 29752
L50946 29827
L50965 29865
L50984 29883
L51021 29902
L51096 29902
L51134 29883
L51152 29865
L51171 29827
L51171 29752
L51152 29715
L51134 29696
L51096 29677
" />
<path d="M40902 30197
L40940 30197
L40977 30216
L40996 30235
L41015 30272
L41033 30347
L41033 30441
L41015 30516
L40996 30553
L40977 30572
L40940 30591
L40902 30591
L40865 30572
L40846 30553
L40827 30516
L40808 30441
L40808 30347
L40827 30272
L40846 30235
L40865 30216
L40902 30197
" />
<path d="M41202 30553
L41221 30572
L41202 30591
L41183 30572
L41202 30553
L41202 30591
" />
<path d="M41596 30591
L41371 30591
" />
<path d="M41483 30591
L41483 30197
L41446 30254
L41408 30291
L41371 30310
" />
<path d="M41765 30591
L41765 30329
" />
<path d="M41765 30366
L41783 30347
L41821 30329
L41877 30329
L41915 30347
L41933 30385
L41933 30591
" />
<path d="M41933 30385
L41952 30347
L41990 30329
L42046 30329
L42083 30347
L42102 30385
L42102 30591
" />
<path d="M42290 30591
L42290 30329
" />
<path d="M42290 30197
L42271 30216
L42290 30235
L42308 30216
L42290 30197
L42290 30235
" />
<path d="M42646 30572
L42608 30591
L42533 30591
L42496 30572
L42477 30553
L42458 30516
L42458 30404
L42477 30366
L42496 30347
L42533 30329
L42608 30329
L42646 30347
" />
<path d="M42814 30591
L42814 30329
" />
<path d="M42814 30404
L42833 30366
L42852 30347
L42889 30329
L42927 30329
" />
<path d="M43114 30591
L43077 30572
L43058 30553
L43039 30516
L43039 30404
L43058 30366
L43077 30347
L43114 30329
L43171 30329
L43208 30347
L43227 30366
L43246 30404
L43246 30516
L43227 30553
L43208 30572
L43171 30591
L43114 30591
" />
<path d="M43321 30628
L43621 30628
" />
<path d="M43658 30329
L43808 30329
" />
<path d="M43714 30197
L43714 30535
L43733 30572
L43771 30591
L43808 30591
" />
<path d="M44108 30591
L44108 30385
L44089 30347
L44052 30329
L43977 30329
L43939 30347
" />
<path d="M44108 30572
L44071 30591
L43977 30591
L43939 30572
L43921 30535
L43921 30497
L43939 30460
L43977 30441
L44071 30441
L44108 30422
" />
<path d="M44296 30329
L44296 30591
" />
<path d="M44296 30366
L44314 30347
L44352 30329
L44408 30329
L44446 30347
L44464 30385
L44464 30591
" />
<path d="M44595 30329
L44745 30329
" />
<path d="M44652 30197
L44652 30535
L44670 30572
L44708 30591
L44745 30591
" />
<path d="M45045 30591
L45045 30385
L45027 30347
L44989 30329
L44914 30329
L44877 30347
" />
<path d="M45045 30572
L45008 30591
L44914 30591
L44877 30572
L44858 30535
L44858 30497
L44877 30460
L44914 30441
L45008 30441
L45045 30422
" />
<path d="M45289 30591
L45252 30572
L45233 30535
L45233 30197
" />
<path d="M45589 30572
L45552 30591
L45477 30591
L45439 30572
L45420 30535
L45420 30385
L45439 30347
L45477 30329
L45552 30329
L45589 30347
L45608 30385
L45608 30422
L45420 30460
" />
<path d="M43143 32030
L43124 32049
L43068 32067
L43030 32067
L42974 32049
L42936 32011
L42918 31974
L42899 31899
L42899 31842
L42918 31767
L42936 31730
L42974 31692
L43030 31674
L43068 31674
L43124 31692
L43143 31711
" />
<path d="M43293 31711
L43311 31692
L43349 31674
L43443 31674
L43480 31692
L43499 31711
L43517 31749
L43517 31786
L43499 31842
L43274 32067
L43517 32067
" />
<path d="M36379 38367
L36623 38367
L36492 38517
L36548 38517
L36586 38535
L36604 38554
L36623 38592
L36623 38685
L36604 38723
L36586 38742
L36548 38760
L36436 38760
L36398 38742
L36379 38723
" />
<path d="M36792 38723
L36811 38742
L36792 38760
L36773 38742
L36792 38723
L36792 38760
" />
<path d="M36942 38367
L37185 38367
L37054 38517
L37110 38517
L37148 38535
L37167 38554
L37185 38592
L37185 38685
L37167 38723
L37148 38742
L37110 38760
L36998 38760
L36961 38742
L36942 38723
" />
<path d="M38760 38385
L38723 38367
L38667 38367
L38610 38385
L38573 38423
L38554 38460
L38535 38535
L38535 38592
L38554 38667
L38573 38704
L38610 38742
L38667 38760
L38704 38760
L38760 38742
L38779 38723
L38779 38592
L38704 38592
" />
<path d="M38948 38760
L38948 38367
L39173 38760
L39173 38367
" />
<path d="M39360 38760
L39360 38367
L39454 38367
L39510 38385
L39548 38423
L39566 38460
L39585 38535
L39585 38592
L39566 38667
L39548 38704
L39510 38742
L39454 38760
L39360 38760
" />
<path d="M36345 37382
L36345 37664
L36326 37720
L36288 37757
L36232 37776
L36195 37776
" />
<path d="M36738 37776
L36513 37776
" />
<path d="M36626 37776
L36626 37382
L36588 37439
L36551 37476
L36513 37495
" />
<path d="M21456 36741
L21700 36741
L21569 36891
L21625 36891
L21663 36909
L21681 36928
L21700 36966
L21700 37059
L21681 37097
L21663 37116
L21625 37134
L21513 37134
L21475 37116
L21456 37097
" />
<path d="M21831 36741
L22075 36741
L21944 36891
L22000 36891
L22038 36909
L22056 36928
L22075 36966
L22075 37059
L22056 37097
L22038 37116
L22000 37134
L21888 37134
L21850 37116
L21831 37097
" />
<path d="M21709 36201
L21578 36014
" />
<path d="M21485 36201
L21485 35808
L21634 35808
L21672 35826
L21691 35845
L21709 35883
L21709 35939
L21691 35976
L21672 35995
L21634 36014
L21485 36014
" />
<path d="M21841 35808
L22103 35808
L21934 36201
" />
<path d="M39710 26985
L39485 26985
" />
<path d="M39598 26985
L39598 26591
L39560 26647
L39523 26685
L39485 26703
" />
<path d="M39879 26985
L39879 26591
" />
<path d="M39916 26835
L40029 26985
" />
<path d="M40029 26722
L39879 26872
" />
<path d="M40104 27022
L40404 27022
" />
<path d="M40441 26591
L40666 26591
" />
<path d="M40554 26985
L40554 26591
" />
<path d="M40797 26985
L40797 26722
" />
<path d="M40797 26797
L40816 26760
L40835 26741
L40872 26722
L40910 26722
" />
<path d="M41041 26985
L41041 26722
" />
<path d="M41041 26591
L41022 26610
L41041 26628
L41060 26610
L41041 26591
L41041 26628
" />
<path d="M41229 26985
L41229 26722
" />
<path d="M41229 26760
L41247 26741
L41285 26722
L41341 26722
L41379 26741
L41397 26778
L41397 26985
" />
<path d="M41397 26778
L41416 26741
L41454 26722
L41510 26722
L41547 26741
L41566 26778
L41566 26985
" />
<path d="M40079 25592
L39958 25420
" />
<path d="M39872 25592
L39872 25230
L40010 25230
L40045 25248
L40062 25265
L40079 25299
L40079 25351
L40062 25386
L40045 25403
L40010 25420
L39872 25420
" />
<path d="M40183 25230
L40303 25592
L40424 25230
" />
<path d="M40562 25592
L40631 25592
L40666 25575
L40683 25558
L40717 25506
L40735 25437
L40735 25299
L40717 25265
L40700 25248
L40666 25230
L40597 25230
L40562 25248
L40545 25265
L40528 25299
L40528 25386
L40545 25420
L40562 25437
L40597 25455
L40666 25455
L40700 25437
L40717 25420
L40735 25386
" />
<path d="M25630 20330
L25630 20555
" />
<path d="M25630 20443
L25237 20443
L25293 20480
L25330 20518
L25349 20555
" />
<path d="M25237 20087
L25237 20049
L25255 20012
L25274 19993
L25312 19974
L25387 19955
L25480 19955
L25555 19974
L25593 19993
L25612 20012
L25630 20049
L25630 20087
L25612 20124
L25593 20143
L25555 20162
L25480 20180
L25387 20180
L25312 20162
L25274 20143
L25255 20124
L25237 20087
" />
<path d="M25630 19787
L25237 19787
" />
<path d="M25630 19562
L25405 19730
" />
<path d="M25237 19562
L25462 19787
" />
<path d="M18213 22619
L18213 22225
L18363 22225
L18400 22244
L18419 22262
L18438 22300
L18438 22356
L18419 22394
L18400 22412
L18363 22431
L18213 22431
" />
<path d="M18738 22412
L18794 22431
L18813 22450
L18832 22487
L18832 22544
L18813 22581
L18794 22600
L18757 22619
L18607 22619
L18607 22225
L18738 22225
L18775 22244
L18794 22262
L18813 22300
L18813 22337
L18794 22375
L18775 22394
L18738 22412
L18607 22412
" />
<path d="M19206 22619
L18982 22619
" />
<path d="M19094 22619
L19094 22225
L19056 22281
L19019 22319
L18982 22337
" />
<path d="M24056 13244
L24056 13469
" />
<path d="M24056 13356
L23662 13356
L23718 13394
L23756 13431
L23774 13469
" />
<path d="M23662 13000
L23662 12963
L23681 12925
L23699 12906
L23737 12888
L23812 12869
L23906 12869
L23981 12888
L24018 12906
L24037 12925
L24056 12963
L24056 13000
L24037 13038
L24018 13056
L23981 13075
L23906 13094
L23812 13094
L23737 13075
L23699 13056
L23681 13038
L23662 13000
" />
<path d="M24056 12700
L23662 12700
" />
<path d="M24056 12475
L23831 12644
" />
<path d="M23662 12475
L23887 12700
" />
<path d="M17622 16713
L17622 16319
L17772 16319
L17810 16338
L17829 16357
L17847 16394
L17847 16451
L17829 16488
L17810 16507
L17772 16526
L17622 16526
" />
<path d="M18147 16507
L18203 16526
L18222 16544
L18241 16582
L18241 16638
L18222 16676
L18203 16694
L18166 16713
L18016 16713
L18016 16319
L18147 16319
L18185 16338
L18203 16357
L18222 16394
L18222 16432
L18203 16469
L18185 16488
L18147 16507
L18016 16507
" />
<path d="M18485 16319
L18522 16319
L18560 16338
L18578 16357
L18597 16394
L18616 16469
L18616 16563
L18597 16638
L18578 16676
L18560 16694
L18522 16713
L18485 16713
L18447 16694
L18428 16676
L18410 16638
L18391 16563
L18391 16469
L18410 16394
L18428 16357
L18447 16338
L18485 16319
" />
<path d="M42087 33239
L41693 33239
L41975 33108
L41693 32976
L42087 32976
" />
<path d="M42050 32564
L42068 32583
L42087 32639
L42087 32676
L42068 32733
L42031 32770
L41993 32789
L41918 32808
L41862 32808
L41787 32789
L41750 32770
L41712 32733
L41693 32676
L41693 32639
L41712 32583
L41731 32564
" />
<path d="M42087 32395
L41693 32395
L41693 32245
L41712 32208
L41731 32189
L41768 32170
L41825 32170
L41862 32189
L41881 32208
L41900 32245
L41900 32395
" />
<path d="M41825 31833
L42087 31833
" />
<path d="M41675 31927
L41956 32020
L41956 31777
" />
<path d="M41862 31570
L41843 31608
L41825 31627
L41787 31645
L41768 31645
L41731 31627
L41712 31608
L41693 31570
L41693 31495
L41712 31458
L41731 31439
L41768 31420
L41787 31420
L41825 31439
L41843 31458
L41862 31495
L41862 31570
L41881 31608
L41900 31627
L41937 31645
L42012 31645
L42050 31627
L42068 31608
L42087 31570
L42087 31495
L42068 31458
L42050 31439
L42012 31420
L41937 31420
L41900 31439
L41881 31458
L41862 31495
" />
<path d="M41731 31270
L41712 31252
L41693 31214
L41693 31120
L41712 31083
L41731 31064
L41768 31045
L41806 31045
L41862 31064
L42087 31289
L42087 31045
" />
<path d="M41731 30895
L41712 30877
L41693 30839
L41693 30745
L41712 30708
L41731 30689
L41768 30670
L41806 30670
L41862 30689
L42087 30914
L42087 30670
" />
<path d="M39276 32264
L39595 32264
L39632 32245
L39651 32227
L39670 32189
L39670 32114
L39651 32077
L39632 32058
L39595 32039
L39276 32039
" />
<path d="M39670 31645
L39670 31870
" />
<path d="M39670 31758
L39276 31758
L39332 31795
L39370 31833
L39389 31870
" />
<path d="M31103 32508
L31103 32583
L31122 32621
L31140 32639
L31197 32677
L31272 32696
L31422 32696
L31459 32677
L31478 32658
L31497 32621
L31497 32546
L31478 32508
L31459 32489
L31422 32471
L31328 32471
L31290 32489
L31272 32508
L31253 32546
L31253 32621
L31272 32658
L31290 32677
L31328 32696
" />
<path d="M31497 32302
L31103 32302
L31497 32077
L31103 32077
" />
<path d="M31497 31683
L31497 31908
" />
<path d="M31497 31796
L31103 31796
L31159 31833
L31197 31871
L31215 31908
" />
<path d="M31103 31552
L31103 31308
L31253 31440
L31253 31383
L31272 31346
L31290 31327
L31328 31308
L31422 31308
L31459 31327
L31478 31346
L31497 31383
L31497 31496
L31478 31533
L31459 31552
" />
<path d="M31272 31083
L31253 31121
L31234 31140
L31197 31158
L31178 31158
L31140 31140
L31122 31121
L31103 31083
L31103 31008
L31122 30971
L31140 30952
L31178 30933
L31197 30933
L31234 30952
L31253 30971
L31272 31008
L31272 31083
L31290 31121
L31309 31140
L31347 31158
L31422 31158
L31459 31140
L31478 31121
L31497 31083
L31497 31008
L31478 30971
L31459 30952
L31422 30933
L31347 30933
L31309 30952
L31290 30971
L31272 31008
" />
<path d="M33520 32114
L33839 32114
L33876 32096
L33895 32077
L33914 32039
L33914 31964
L33895 31927
L33876 31908
L33839 31889
L33520 31889
" />
<path d="M33520 31739
L33520 31496
L33670 31627
L33670 31571
L33689 31533
L33708 31514
L33745 31496
L33839 31496
L33876 31514
L33895 31533
L33914 31571
L33914 31683
L33895 31721
L33876 31739
" />
<path d="M49620 26063
L49395 26063
" />
<path d="M49507 26063
L49507 25670
L49470 25726
L49432 25763
L49395 25782
" />
<path d="M49864 25670
L49901 25670
L49939 25688
L49957 25707
L49976 25745
L49995 25820
L49995 25913
L49976 25988
L49957 26026
L49939 26045
L49901 26063
L49864 26063
L49826 26045
L49807 26026
L49789 25988
L49770 25913
L49770 25820
L49789 25745
L49807 25707
L49826 25688
L49864 25670
" />
<path d="M50164 26063
L50164 25801
" />
<path d="M50164 25838
L50182 25820
L50220 25801
L50276 25801
L50314 25820
L50332 25857
L50332 26063
" />
<path d="M50332 25857
L50351 25820
L50389 25801
L50445 25801
L50482 25820
L50501 25857
L50501 26063
" />
<path d="M50595 26101
L50895 26101
" />
<path d="M51157 26045
L51120 26063
L51045 26063
L51007 26045
L50988 26026
L50970 25988
L50970 25876
L50988 25838
L51007 25820
L51045 25801
L51120 25801
L51157 25820
" />
<path d="M51326 26063
L51326 25670
" />
<path d="M51495 26063
L51495 25857
L51476 25820
L51438 25801
L51382 25801
L51345 25820
L51326 25838
" />
<path d="M51832 26045
L51795 26063
L51720 26063
L51682 26045
L51663 26007
L51663 25857
L51682 25820
L51720 25801
L51795 25801
L51832 25820
L51851 25857
L51851 25895
L51663 25932
" />
<path d="M52020 26063
L52020 25801
" />
<path d="M52020 25838
L52038 25820
L52076 25801
L52132 25801
L52170 25820
L52188 25857
L52188 26063
" />
<path d="M52188 25857
L52207 25820
L52245 25801
L52301 25801
L52338 25820
L52357 25857
L52357 26063
" />
<path d="M50820 27502
L50801 27521
L50745 27540
L50707 27540
L50651 27521
L50613 27484
L50595 27446
L50576 27371
L50576 27315
L50595 27240
L50613 27202
L50651 27165
L50707 27146
L50745 27146
L50801 27165
L50820 27184
" />
<path d="M51195 27540
L50970 27540
" />
<path d="M51082 27540
L51082 27146
L51045 27202
L51007 27240
L50970 27259
" />
<path d="M27273 24489
L27048 24489
" />
<path d="M27160 24489
L27160 24095
L27123 24151
L27085 24189
L27048 24207
" />
<path d="M27516 24095
L27554 24095
L27591 24114
L27610 24132
L27629 24170
L27648 24245
L27648 24339
L27629 24414
L27610 24451
L27591 24470
L27554 24489
L27516 24489
L27479 24470
L27460 24451
L27441 24414
L27423 24339
L27423 24245
L27441 24170
L27460 24132
L27479 24114
L27516 24095
" />
<path d="M27891 24095
L27929 24095
L27966 24114
L27985 24132
L28004 24170
L28023 24245
L28023 24339
L28004 24414
L27985 24451
L27966 24470
L27929 24489
L27891 24489
L27854 24470
L27835 24451
L27816 24414
L27798 24339
L27798 24245
L27816 24170
L27835 24132
L27854 24114
L27891 24095
" />
<path d="M28191 24226
L28191 24489
" />
<path d="M28191 24264
L28210 24245
L28248 24226
L28304 24226
L28341 24245
L28360 24282
L28360 24489
" />
<path d="M28454 24526
L28754 24526
" />
<path d="M28791 24226
L28941 24226
" />
<path d="M28847 24095
L28847 24432
L28866 24470
L28904 24489
L28941 24489
" />
<path d="M29241 24489
L29241 24282
L29222 24245
L29185 24226
L29110 24226
L29072 24245
" />
<path d="M29241 24470
L29204 24489
L29110 24489
L29072 24470
L29054 24432
L29054 24395
L29072 24357
L29110 24339
L29204 24339
L29241 24320
" />
<path d="M29429 24226
L29429 24489
" />
<path d="M29429 24264
L29447 24245
L29485 24226
L29541 24226
L29579 24245
L29597 24282
L29597 24489
" />
<path d="M29729 24226
L29879 24226
" />
<path d="M29785 24095
L29785 24432
L29804 24470
L29841 24489
L29879 24489
" />
<path d="M28379 25928
L28360 25946
L28304 25965
L28266 25965
L28210 25946
L28173 25909
L28154 25871
L28135 25796
L28135 25740
L28154 25665
L28173 25628
L28210 25590
L28266 25571
L28304 25571
L28360 25590
L28379 25609
" />
<path d="M28510 25571
L28754 25571
L28622 25721
L28679 25721
L28716 25740
L28735 25759
L28754 25796
L28754 25890
L28735 25928
L28716 25946
L28679 25965
L28566 25965
L28529 25946
L28510 25928
" />
<path d="M55985 34884
L55985 35109
" />
<path d="M55985 34997
L55591 34997
L55647 35034
L55685 35072
L55703 35109
" />
<path d="M55591 34640
L55591 34603
L55610 34565
L55628 34547
L55666 34528
L55741 34509
L55835 34509
L55910 34528
L55947 34547
L55966 34565
L55985 34603
L55985 34640
L55966 34678
L55947 34697
L55910 34715
L55835 34734
L55741 34734
L55666 34715
L55628 34697
L55610 34678
L55591 34640
" />
<path d="M55985 34341
L55722 34341
" />
<path d="M55760 34341
L55741 34322
L55722 34284
L55722 34228
L55741 34191
L55778 34172
L55985 34172
" />
<path d="M55778 34172
L55741 34153
L55722 34116
L55722 34059
L55741 34022
L55778 34003
L55985 34003
" />
<path d="M54471 34612
L54490 34631
L54508 34687
L54508 34725
L54490 34781
L54452 34819
L54415 34837
L54340 34856
L54283 34856
L54208 34837
L54171 34819
L54133 34781
L54115 34725
L54115 34687
L54133 34631
L54152 34612
" />
<path d="M54246 34275
L54508 34275
" />
<path d="M54096 34369
L54377 34462
L54377 34219
" />
<path d="M53032 32325
L53032 32550
" />
<path d="M53032 32438
L52638 32438
L52694 32475
L52732 32513
L52751 32550
" />
<path d="M52638 32081
L52638 32044
L52657 32006
L52676 31988
L52713 31969
L52788 31950
L52882 31950
L52957 31969
L52994 31988
L53013 32006
L53032 32044
L53032 32081
L53013 32119
L52994 32138
L52957 32156
L52882 32175
L52788 32175
L52713 32156
L52676 32138
L52657 32119
L52638 32081
" />
<path d="M53032 31781
L52769 31781
" />
<path d="M52807 31781
L52788 31763
L52769 31725
L52769 31669
L52788 31631
L52826 31613
L53032 31613
" />
<path d="M52826 31613
L52788 31594
L52769 31556
L52769 31500
L52788 31463
L52826 31444
L53032 31444
" />
<path d="M54471 32053
L54490 32072
L54508 32128
L54508 32166
L54490 32222
L54452 32260
L54415 32278
L54340 32297
L54283 32297
L54208 32278
L54171 32260
L54133 32222
L54115 32166
L54115 32128
L54133 32072
L54152 32053
" />
<path d="M54115 31697
L54115 31885
L54302 31903
L54283 31885
L54265 31847
L54265 31753
L54283 31716
L54302 31697
L54340 31678
L54433 31678
L54471 31697
L54490 31716
L54508 31753
L54508 31847
L54490 31885
L54471 31903
" />
<path d="M55048 28683
L55048 28908
" />
<path d="M55048 28796
L54654 28796
L54710 28833
L54748 28871
L54766 28908
" />
<path d="M54654 28440
L54654 28402
L54673 28365
L54691 28346
L54729 28327
L54804 28308
L54898 28308
L54973 28327
L55010 28346
L55029 28365
L55048 28402
L55048 28440
L55029 28477
L55010 28496
L54973 28514
L54898 28533
L54804 28533
L54729 28514
L54691 28496
L54673 28477
L54654 28440
" />
<path d="M54654 28065
L54654 28027
L54673 27990
L54691 27971
L54729 27952
L54804 27933
L54898 27933
L54973 27952
L55010 27971
L55029 27990
L55048 28027
L55048 28065
L55029 28102
L55010 28121
L54973 28140
L54898 28158
L54804 28158
L54729 28140
L54691 28121
L54673 28102
L54654 28065
" />
<path d="M55048 27540
L54860 27671
" />
<path d="M55048 27765
L54654 27765
L54654 27615
L54673 27577
L54691 27558
L54729 27540
L54785 27540
L54823 27558
L54841 27577
L54860 27615
L54860 27765
" />
<path d="M54115 28290
L53927 28421
" />
<path d="M54115 28514
L53721 28514
L53721 28365
L53740 28327
L53758 28308
L53796 28290
L53852 28290
L53890 28308
L53908 28327
L53927 28365
L53927 28514
" />
<path d="M54115 28102
L54115 28027
L54096 27990
L54077 27971
L54021 27933
L53946 27915
L53796 27915
L53758 27933
L53740 27952
L53721 27990
L53721 28065
L53740 28102
L53758 28121
L53796 28140
L53890 28140
L53927 28121
L53946 28102
L53965 28065
L53965 27990
L53946 27952
L53927 27933
L53890 27915
" />
<path d="M49999 31300
L49812 31300
L49812 30906
" />
<path d="M50131 31300
L50131 30906
L50262 31187
L50393 30906
L50393 31300
" />
<path d="M50543 30906
L50787 30906
L50655 31056
L50712 31056
L50749 31075
L50768 31093
L50787 31131
L50787 31225
L50768 31262
L50749 31281
L50712 31300
L50599 31300
L50562 31281
L50543 31262
" />
<path d="M51143 30906
L50955 30906
L50937 31093
L50955 31075
L50993 31056
L51087 31056
L51124 31075
L51143 31093
L51162 31131
L51162 31225
L51143 31262
L51124 31281
L51087 31300
L50993 31300
L50955 31281
L50937 31262
" />
<path d="M51387 31075
L51349 31056
L51330 31037
L51312 31000
L51312 30981
L51330 30943
L51349 30925
L51387 30906
L51462 30906
L51499 30925
L51518 30943
L51537 30981
L51537 31000
L51518 31037
L51499 31056
L51462 31075
L51387 31075
L51349 31093
L51330 31112
L51312 31150
L51312 31225
L51330 31262
L51349 31281
L51387 31300
L51462 31300
L51499 31281
L51518 31262
L51537 31225
L51537 31150
L51518 31112
L51499 31093
L51462 31075
" />
<path d="M50365 33323
L50365 33642
L50384 33679
L50402 33698
L50440 33717
L50515 33717
L50552 33698
L50571 33679
L50590 33642
L50590 33323
" />
<path d="M50946 33455
L50946 33717
" />
<path d="M50852 33305
L50759 33586
L51002 33586
" />
<path d="M46859 26644
L46878 26625
L46915 26607
L47009 26607
L47047 26625
L47065 26644
L47084 26682
L47084 26719
L47065 26775
L46840 27000
L47084 27000
" />
<path d="M47234 26644
L47253 26625
L47290 26607
L47384 26607
L47422 26625
L47440 26644
L47459 26682
L47459 26719
L47440 26775
L47215 27000
L47459 27000
" />
<path d="M47628 27000
L47628 26607
" />
<path d="M47665 26850
L47778 27000
" />
<path d="M47778 26738
L47628 26888
" />
<path d="M47065 27934
L46934 27746
" />
<path d="M46840 27934
L46840 27540
L46990 27540
L47028 27559
L47047 27577
L47065 27615
L47065 27671
L47047 27709
L47028 27727
L46990 27746
L46840 27746
" />
<path d="M47440 27934
L47215 27934
" />
<path d="M47328 27934
L47328 27540
L47290 27596
L47253 27634
L47215 27652
" />
<path d="M47684 27540
L47721 27540
L47759 27559
L47778 27577
L47796 27615
L47815 27690
L47815 27784
L47796 27859
L47778 27896
L47759 27915
L47721 27934
L47684 27934
L47646 27915
L47628 27896
L47609 27859
L47590 27784
L47590 27690
L47609 27615
L47628 27577
L47646 27559
L47684 27540
" />
<path d="M43906 29006
L43925 28988
L43963 28969
L44056 28969
L44094 28988
L44113 29006
L44131 29044
L44131 29081
L44113 29138
L43888 29363
L44131 29363
" />
<path d="M44281 29006
L44300 28988
L44338 28969
L44431 28969
L44469 28988
L44488 29006
L44506 29044
L44506 29081
L44488 29138
L44263 29363
L44506 29363
" />
<path d="M44675 29363
L44675 28969
" />
<path d="M44712 29213
L44825 29363
" />
<path d="M44825 29100
L44675 29250
" />
<path d="M44113 30296
L43981 30108
" />
<path d="M43888 30296
L43888 29902
L44038 29902
L44075 29921
L44094 29940
L44113 29977
L44113 30033
L44094 30071
L44075 30089
L44038 30108
L43888 30108
" />
<path d="M44488 30296
L44263 30296
" />
<path d="M44375 30296
L44375 29902
L44338 29958
L44300 29996
L44263 30014
" />
<path d="M44862 30296
L44637 30296
" />
<path d="M44750 30296
L44750 29902
L44712 29958
L44675 29996
L44637 30014
" />
<circle cx="54175.8" cy="8716.64" r="656.168" /> 
<path d="M53191 8716
L55160 8716
" />
<path d="M54175 7732
L54175 9700
" />
<circle cx="19155.9" cy="8805.26" r="656.168" /> 
<path d="M18171 8805
L20140 8805
" />
<path d="M19155 7821
L19155 9789
" />
<circle cx="19171.9" cy="37651.1" r="656.168" /> 
<path d="M18187 37651
L20156 37651
" />
<path d="M19171 36666
L19171 38635
" />
<circle cx="54135.7" cy="37665.3" r="656.168" /> 
<path d="M53151 37665
L55119 37665
" />
<path d="M54135 36681
L54135 38649
" />
</g> 
</svg>
