<?xml version="1.0" standalone="no"?>
 <!DOCTYPE svg PUBLIC "-//W3C//DTD SVG 1.1//EN" 
 "http://www.w3.org/Graphics/SVG/1.1/DTD/svg11.dtd"> 
<svg xmlns="http://www.w3.org/2000/svg" version="1.1" 
    width="29.7002cm" height="21.0007cm" viewBox="0 0 116930 82680 ">
<title>SVG Picture created as 10knobs_PT8211-F.Fab.svg date 2021/01/18 15:58:45 </title>
  <desc>Picture generated by PCBNEW </desc>
<g style="fill:#000000; fill-opacity:1;stroke:#000000; stroke-opacity:1;
stroke-linecap:round; stroke-linejoin:round; "
 transform="translate(0 0) scale(1 1)">
</g>
<g style="fill:#000000; fill-opacity:0.0; 
stroke:#000000; stroke-width:-0.000393701; stroke-opacity:1; 
stroke-linecap:round; stroke-linejoin:round;">
</g>
<g style="fill:#000000; fill-opacity:0.0; 
stroke:#000000; stroke-width:39.3701; stroke-opacity:1; 
stroke-linecap:round; stroke-linejoin:round;">
</g>
<g style="fill:#000000; fill-opacity:0.0; 
stroke:#000000; stroke-width:59.0551; stroke-opacity:1; 
stroke-linecap:round; stroke-linejoin:round;">
<rect x="69685.9" y="65357.2" width="42519.7" height="12598.4" rx="0" />
</g>
<g style="fill:#000000; fill-opacity:0.0; 
stroke:#000000; stroke-width:39.3701; stroke-opacity:1; 
stroke-linecap:round; stroke-linejoin:round;">
</g>
<g style="fill:#000000; fill-opacity:0.0; 
stroke:#000000; stroke-width:59.0551; stroke-opacity:1; 
stroke-linecap:round; stroke-linejoin:round;">
<rect x="3937.01" y="3937.01" width="109056" height="74806" rx="0" />
</g>
<g style="fill:#000000; fill-opacity:0.0; 
stroke:#000000; stroke-width:39.3701; stroke-opacity:1; 
stroke-linecap:round; stroke-linejoin:round;">
</g>
<g style="fill:#000000; fill-opacity:0.0; 
stroke:#000000; stroke-width:59.0551; stroke-opacity:1; 
stroke-linecap:round; stroke-linejoin:round;">
<rect x="4724.41" y="4724.41" width="107481" height="73231.2" rx="0" />
</g>
<g style="fill:#000000; fill-opacity:0.0; 
stroke:#000000; stroke-width:39.3701; stroke-opacity:1; 
stroke-linecap:round; stroke-linejoin:round;">
</g>
<g style="fill:#000000; fill-opacity:0.0; 
stroke:#000000; stroke-width:59.0551; stroke-opacity:1; 
stroke-linecap:round; stroke-linejoin:round;">
<path d="M23622 4724
L23622 3937
" />
</g>
<g style="fill:#000000; fill-opacity:0.0; 
stroke:#000000; stroke-width:39.3701; stroke-opacity:1; 
stroke-linecap:round; stroke-linejoin:round;">
</g>
<g style="fill:#000000; fill-opacity:0.0; 
stroke:#000000; stroke-width:59.0551; stroke-opacity:1; 
stroke-linecap:round; stroke-linejoin:round;">
<path d="M43307 4724
L43307 3937
" />
</g>
<g style="fill:#000000; fill-opacity:0.0; 
stroke:#000000; stroke-width:39.3701; stroke-opacity:1; 
stroke-linecap:round; stroke-linejoin:round;">
</g>
<g style="fill:#000000; fill-opacity:0.0; 
stroke:#000000; stroke-width:59.0551; stroke-opacity:1; 
stroke-linecap:round; stroke-linejoin:round;">
<path d="M62992 4724
L62992 3937
" />
</g>
<g style="fill:#000000; fill-opacity:0.0; 
stroke:#000000; stroke-width:39.3701; stroke-opacity:1; 
stroke-linecap:round; stroke-linejoin:round;">
</g>
<g style="fill:#000000; fill-opacity:0.0; 
stroke:#000000; stroke-width:59.0551; stroke-opacity:1; 
stroke-linecap:round; stroke-linejoin:round;">
<path d="M82677 4724
L82677 3937
" />
</g>
<g style="fill:#000000; fill-opacity:0.0; 
stroke:#000000; stroke-width:39.3701; stroke-opacity:1; 
stroke-linecap:round; stroke-linejoin:round;">
</g>
<g style="fill:#000000; fill-opacity:0.0; 
stroke:#000000; stroke-width:59.0551; stroke-opacity:1; 
stroke-linecap:round; stroke-linejoin:round;">
<path d="M102362 4724
L102362 3937
" />
</g>
<g style="fill:#000000; fill-opacity:0.0; 
stroke:#000000; stroke-width:39.3701; stroke-opacity:1; 
stroke-linecap:round; stroke-linejoin:round;">
</g>
<g style="fill:#000000; fill-opacity:0.0; 
stroke:#000000; stroke-width:59.0551; stroke-opacity:1; 
stroke-linecap:round; stroke-linejoin:round;">
<path d="M14199 4562
L13906 4562
" />
<path d="M14052 4562
L14052 4050
L14004 4123
L13955 4172
L13906 4196
" />
</g>
<g style="fill:#000000; fill-opacity:0.0; 
stroke:#000000; stroke-width:39.3701; stroke-opacity:1; 
stroke-linecap:round; stroke-linejoin:round;">
</g>
<g style="fill:#000000; fill-opacity:0.0; 
stroke:#000000; stroke-width:59.0551; stroke-opacity:1; 
stroke-linecap:round; stroke-linejoin:round;">
<path d="M33591 4099
L33615 4074
L33664 4050
L33786 4050
L33835 4074
L33859 4099
L33884 4147
L33884 4196
L33859 4269
L33567 4562
L33884 4562
" />
</g>
<g style="fill:#000000; fill-opacity:0.0; 
stroke:#000000; stroke-width:39.3701; stroke-opacity:1; 
stroke-linecap:round; stroke-linejoin:round;">
</g>
<g style="fill:#000000; fill-opacity:0.0; 
stroke:#000000; stroke-width:59.0551; stroke-opacity:1; 
stroke-linecap:round; stroke-linejoin:round;">
<path d="M53252 4050
L53569 4050
L53398 4245
L53471 4245
L53520 4269
L53544 4294
L53569 4342
L53569 4464
L53544 4513
L53520 4537
L53471 4562
L53325 4562
L53276 4537
L53252 4513
" />
</g>
<g style="fill:#000000; fill-opacity:0.0; 
stroke:#000000; stroke-width:39.3701; stroke-opacity:1; 
stroke-linecap:round; stroke-linejoin:round;">
</g>
<g style="fill:#000000; fill-opacity:0.0; 
stroke:#000000; stroke-width:59.0551; stroke-opacity:1; 
stroke-linecap:round; stroke-linejoin:round;">
<path d="M73205 4221
L73205 4562
" />
<path d="M73083 4026
L72961 4391
L73278 4391
" />
</g>
<g style="fill:#000000; fill-opacity:0.0; 
stroke:#000000; stroke-width:39.3701; stroke-opacity:1; 
stroke-linecap:round; stroke-linejoin:round;">
</g>
<g style="fill:#000000; fill-opacity:0.0; 
stroke:#000000; stroke-width:59.0551; stroke-opacity:1; 
stroke-linecap:round; stroke-linejoin:round;">
<path d="M92914 4050
L92671 4050
L92646 4294
L92671 4269
L92719 4245
L92841 4245
L92890 4269
L92914 4294
L92939 4342
L92939 4464
L92914 4513
L92890 4537
L92841 4562
L92719 4562
L92671 4537
L92646 4513
" />
</g>
<g style="fill:#000000; fill-opacity:0.0; 
stroke:#000000; stroke-width:39.3701; stroke-opacity:1; 
stroke-linecap:round; stroke-linejoin:round;">
</g>
<g style="fill:#000000; fill-opacity:0.0; 
stroke:#000000; stroke-width:59.0551; stroke-opacity:1; 
stroke-linecap:round; stroke-linejoin:round;">
<path d="M112575 4050
L112477 4050
L112429 4074
L112404 4099
L112356 4172
L112331 4269
L112331 4464
L112356 4513
L112380 4537
L112429 4562
L112526 4562
L112575 4537
L112599 4513
L112624 4464
L112624 4342
L112599 4294
L112575 4269
L112526 4245
L112429 4245
L112380 4269
L112356 4294
L112331 4342
" />
</g>
<g style="fill:#000000; fill-opacity:0.0; 
stroke:#000000; stroke-width:39.3701; stroke-opacity:1; 
stroke-linecap:round; stroke-linejoin:round;">
</g>
<g style="fill:#000000; fill-opacity:0.0; 
stroke:#000000; stroke-width:59.0551; stroke-opacity:1; 
stroke-linecap:round; stroke-linejoin:round;">
<path d="M23622 77955
L23622 78742
" />
</g>
<g style="fill:#000000; fill-opacity:0.0; 
stroke:#000000; stroke-width:39.3701; stroke-opacity:1; 
stroke-linecap:round; stroke-linejoin:round;">
</g>
<g style="fill:#000000; fill-opacity:0.0; 
stroke:#000000; stroke-width:59.0551; stroke-opacity:1; 
stroke-linecap:round; stroke-linejoin:round;">
<path d="M43307 77955
L43307 78742
" />
</g>
<g style="fill:#000000; fill-opacity:0.0; 
stroke:#000000; stroke-width:39.3701; stroke-opacity:1; 
stroke-linecap:round; stroke-linejoin:round;">
</g>
<g style="fill:#000000; fill-opacity:0.0; 
stroke:#000000; stroke-width:59.0551; stroke-opacity:1; 
stroke-linecap:round; stroke-linejoin:round;">
<path d="M62992 77955
L62992 78742
" />
</g>
<g style="fill:#000000; fill-opacity:0.0; 
stroke:#000000; stroke-width:39.3701; stroke-opacity:1; 
stroke-linecap:round; stroke-linejoin:round;">
</g>
<g style="fill:#000000; fill-opacity:0.0; 
stroke:#000000; stroke-width:59.0551; stroke-opacity:1; 
stroke-linecap:round; stroke-linejoin:round;">
<path d="M82677 77955
L82677 78742
" />
</g>
<g style="fill:#000000; fill-opacity:0.0; 
stroke:#000000; stroke-width:39.3701; stroke-opacity:1; 
stroke-linecap:round; stroke-linejoin:round;">
</g>
<g style="fill:#000000; fill-opacity:0.0; 
stroke:#000000; stroke-width:59.0551; stroke-opacity:1; 
stroke-linecap:round; stroke-linejoin:round;">
<path d="M102362 77955
L102362 78742
" />
</g>
<g style="fill:#000000; fill-opacity:0.0; 
stroke:#000000; stroke-width:39.3701; stroke-opacity:1; 
stroke-linecap:round; stroke-linejoin:round;">
</g>
<g style="fill:#000000; fill-opacity:0.0; 
stroke:#000000; stroke-width:59.0551; stroke-opacity:1; 
stroke-linecap:round; stroke-linejoin:round;">
<path d="M14199 78580
L13906 78580
" />
<path d="M14052 78580
L14052 78069
L14004 78142
L13955 78190
L13906 78215
" />
</g>
<g style="fill:#000000; fill-opacity:0.0; 
stroke:#000000; stroke-width:39.3701; stroke-opacity:1; 
stroke-linecap:round; stroke-linejoin:round;">
</g>
<g style="fill:#000000; fill-opacity:0.0; 
stroke:#000000; stroke-width:59.0551; stroke-opacity:1; 
stroke-linecap:round; stroke-linejoin:round;">
<path d="M33591 78117
L33615 78093
L33664 78069
L33786 78069
L33835 78093
L33859 78117
L33884 78166
L33884 78215
L33859 78288
L33567 78580
L33884 78580
" />
</g>
<g style="fill:#000000; fill-opacity:0.0; 
stroke:#000000; stroke-width:39.3701; stroke-opacity:1; 
stroke-linecap:round; stroke-linejoin:round;">
</g>
<g style="fill:#000000; fill-opacity:0.0; 
stroke:#000000; stroke-width:59.0551; stroke-opacity:1; 
stroke-linecap:round; stroke-linejoin:round;">
<path d="M53252 78069
L53569 78069
L53398 78263
L53471 78263
L53520 78288
L53544 78312
L53569 78361
L53569 78483
L53544 78532
L53520 78556
L53471 78580
L53325 78580
L53276 78556
L53252 78532
" />
</g>
<g style="fill:#000000; fill-opacity:0.0; 
stroke:#000000; stroke-width:39.3701; stroke-opacity:1; 
stroke-linecap:round; stroke-linejoin:round;">
</g>
<g style="fill:#000000; fill-opacity:0.0; 
stroke:#000000; stroke-width:59.0551; stroke-opacity:1; 
stroke-linecap:round; stroke-linejoin:round;">
<path d="M73205 78239
L73205 78580
" />
<path d="M73083 78044
L72961 78410
L73278 78410
" />
</g>
<g style="fill:#000000; fill-opacity:0.0; 
stroke:#000000; stroke-width:39.3701; stroke-opacity:1; 
stroke-linecap:round; stroke-linejoin:round;">
</g>
<g style="fill:#000000; fill-opacity:0.0; 
stroke:#000000; stroke-width:59.0551; stroke-opacity:1; 
stroke-linecap:round; stroke-linejoin:round;">
<path d="M92914 78069
L92671 78069
L92646 78312
L92671 78288
L92719 78263
L92841 78263
L92890 78288
L92914 78312
L92939 78361
L92939 78483
L92914 78532
L92890 78556
L92841 78580
L92719 78580
L92671 78556
L92646 78532
" />
</g>
<g style="fill:#000000; fill-opacity:0.0; 
stroke:#000000; stroke-width:39.3701; stroke-opacity:1; 
stroke-linecap:round; stroke-linejoin:round;">
</g>
<g style="fill:#000000; fill-opacity:0.0; 
stroke:#000000; stroke-width:59.0551; stroke-opacity:1; 
stroke-linecap:round; stroke-linejoin:round;">
<path d="M112575 78069
L112477 78069
L112429 78093
L112404 78117
L112356 78190
L112331 78288
L112331 78483
L112356 78532
L112380 78556
L112429 78580
L112526 78580
L112575 78556
L112599 78532
L112624 78483
L112624 78361
L112599 78312
L112575 78288
L112526 78263
L112429 78263
L112380 78288
L112356 78312
L112331 78361
" />
</g>
<g style="fill:#000000; fill-opacity:0.0; 
stroke:#000000; stroke-width:39.3701; stroke-opacity:1; 
stroke-linecap:round; stroke-linejoin:round;">
</g>
<g style="fill:#000000; fill-opacity:0.0; 
stroke:#000000; stroke-width:59.0551; stroke-opacity:1; 
stroke-linecap:round; stroke-linejoin:round;">
<path d="M3937 23622
L4724 23622
" />
</g>
<g style="fill:#000000; fill-opacity:0.0; 
stroke:#000000; stroke-width:39.3701; stroke-opacity:1; 
stroke-linecap:round; stroke-linejoin:round;">
</g>
<g style="fill:#000000; fill-opacity:0.0; 
stroke:#000000; stroke-width:59.0551; stroke-opacity:1; 
stroke-linecap:round; stroke-linejoin:round;">
<path d="M3937 43307
L4724 43307
" />
</g>
<g style="fill:#000000; fill-opacity:0.0; 
stroke:#000000; stroke-width:39.3701; stroke-opacity:1; 
stroke-linecap:round; stroke-linejoin:round;">
</g>
<g style="fill:#000000; fill-opacity:0.0; 
stroke:#000000; stroke-width:59.0551; stroke-opacity:1; 
stroke-linecap:round; stroke-linejoin:round;">
<path d="M3937 62992
L4724 62992
" />
</g>
<g style="fill:#000000; fill-opacity:0.0; 
stroke:#000000; stroke-width:39.3701; stroke-opacity:1; 
stroke-linecap:round; stroke-linejoin:round;">
</g>
<g style="fill:#000000; fill-opacity:0.0; 
stroke:#000000; stroke-width:59.0551; stroke-opacity:1; 
stroke-linecap:round; stroke-linejoin:round;">
<path d="M4208 13864
L4452 13864
" />
<path d="M4160 14011
L4330 13499
L4501 14011
" />
</g>
<g style="fill:#000000; fill-opacity:0.0; 
stroke:#000000; stroke-width:39.3701; stroke-opacity:1; 
stroke-linecap:round; stroke-linejoin:round;">
</g>
<g style="fill:#000000; fill-opacity:0.0; 
stroke:#000000; stroke-width:59.0551; stroke-opacity:1; 
stroke-linecap:round; stroke-linejoin:round;">
<path d="M4367 33428
L4440 33452
L4464 33476
L4489 33525
L4489 33598
L4464 33647
L4440 33671
L4391 33696
L4196 33696
L4196 33184
L4367 33184
L4416 33208
L4440 33233
L4464 33281
L4464 33330
L4440 33379
L4416 33403
L4367 33428
L4196 33428
" />
</g>
<g style="fill:#000000; fill-opacity:0.0; 
stroke:#000000; stroke-width:39.3701; stroke-opacity:1; 
stroke-linecap:round; stroke-linejoin:round;">
</g>
<g style="fill:#000000; fill-opacity:0.0; 
stroke:#000000; stroke-width:59.0551; stroke-opacity:1; 
stroke-linecap:round; stroke-linejoin:round;">
<path d="M4489 53332
L4464 53356
L4391 53381
L4342 53381
L4269 53356
L4221 53308
L4196 53259
L4172 53161
L4172 53088
L4196 52991
L4221 52942
L4269 52893
L4342 52869
L4391 52869
L4464 52893
L4489 52918
" />
</g>
<g style="fill:#000000; fill-opacity:0.0; 
stroke:#000000; stroke-width:39.3701; stroke-opacity:1; 
stroke-linecap:round; stroke-linejoin:round;">
</g>
<g style="fill:#000000; fill-opacity:0.0; 
stroke:#000000; stroke-width:59.0551; stroke-opacity:1; 
stroke-linecap:round; stroke-linejoin:round;">
<path d="M4196 73066
L4196 72554
L4318 72554
L4391 72578
L4440 72627
L4464 72676
L4489 72773
L4489 72846
L4464 72944
L4440 72993
L4391 73041
L4318 73066
L4196 73066
" />
</g>
<g style="fill:#000000; fill-opacity:0.0; 
stroke:#000000; stroke-width:39.3701; stroke-opacity:1; 
stroke-linecap:round; stroke-linejoin:round;">
</g>
<g style="fill:#000000; fill-opacity:0.0; 
stroke:#000000; stroke-width:59.0551; stroke-opacity:1; 
stroke-linecap:round; stroke-linejoin:round;">
<path d="M112992 23622
L112205 23622
" />
</g>
<g style="fill:#000000; fill-opacity:0.0; 
stroke:#000000; stroke-width:39.3701; stroke-opacity:1; 
stroke-linecap:round; stroke-linejoin:round;">
</g>
<g style="fill:#000000; fill-opacity:0.0; 
stroke:#000000; stroke-width:59.0551; stroke-opacity:1; 
stroke-linecap:round; stroke-linejoin:round;">
<path d="M112992 43307
L112205 43307
" />
</g>
<g style="fill:#000000; fill-opacity:0.0; 
stroke:#000000; stroke-width:39.3701; stroke-opacity:1; 
stroke-linecap:round; stroke-linejoin:round;">
</g>
<g style="fill:#000000; fill-opacity:0.0; 
stroke:#000000; stroke-width:59.0551; stroke-opacity:1; 
stroke-linecap:round; stroke-linejoin:round;">
<path d="M112992 62992
L112205 62992
" />
</g>
<g style="fill:#000000; fill-opacity:0.0; 
stroke:#000000; stroke-width:39.3701; stroke-opacity:1; 
stroke-linecap:round; stroke-linejoin:round;">
</g>
<g style="fill:#000000; fill-opacity:0.0; 
stroke:#000000; stroke-width:59.0551; stroke-opacity:1; 
stroke-linecap:round; stroke-linejoin:round;">
<path d="M112477 13864
L112721 13864
" />
<path d="M112428 14011
L112599 13499
L112769 14011
" />
</g>
<g style="fill:#000000; fill-opacity:0.0; 
stroke:#000000; stroke-width:39.3701; stroke-opacity:1; 
stroke-linecap:round; stroke-linejoin:round;">
</g>
<g style="fill:#000000; fill-opacity:0.0; 
stroke:#000000; stroke-width:59.0551; stroke-opacity:1; 
stroke-linecap:round; stroke-linejoin:round;">
<path d="M112635 33428
L112708 33452
L112733 33476
L112757 33525
L112757 33598
L112733 33647
L112708 33671
L112660 33696
L112465 33696
L112465 33184
L112635 33184
L112684 33208
L112708 33233
L112733 33281
L112733 33330
L112708 33379
L112684 33403
L112635 33428
L112465 33428
" />
</g>
<g style="fill:#000000; fill-opacity:0.0; 
stroke:#000000; stroke-width:39.3701; stroke-opacity:1; 
stroke-linecap:round; stroke-linejoin:round;">
</g>
<g style="fill:#000000; fill-opacity:0.0; 
stroke:#000000; stroke-width:59.0551; stroke-opacity:1; 
stroke-linecap:round; stroke-linejoin:round;">
<path d="M112757 53332
L112733 53356
L112660 53381
L112611 53381
L112538 53356
L112489 53308
L112465 53259
L112440 53161
L112440 53088
L112465 52991
L112489 52942
L112538 52893
L112611 52869
L112660 52869
L112733 52893
L112757 52918
" />
</g>
<g style="fill:#000000; fill-opacity:0.0; 
stroke:#000000; stroke-width:39.3701; stroke-opacity:1; 
stroke-linecap:round; stroke-linejoin:round;">
</g>
<g style="fill:#000000; fill-opacity:0.0; 
stroke:#000000; stroke-width:59.0551; stroke-opacity:1; 
stroke-linecap:round; stroke-linejoin:round;">
<path d="M112465 73066
L112465 72554
L112587 72554
L112660 72578
L112708 72627
L112733 72676
L112757 72773
L112757 72846
L112733 72944
L112708 72993
L112660 73041
L112587 73066
L112465 73066
" />
</g>
<g style="fill:#000000; fill-opacity:0.0; 
stroke:#000000; stroke-width:39.3701; stroke-opacity:1; 
stroke-linecap:round; stroke-linejoin:round;">
</g>
<g style="fill:#000000; fill-opacity:0.0; 
stroke:#000000; stroke-width:59.0551; stroke-opacity:1; 
stroke-linecap:round; stroke-linejoin:round;">
<path d="M78911 76293
L78911 75703
L79051 75703
L79136 75731
L79192 75787
L79220 75843
L79248 75956
L79248 76040
L79220 76153
L79192 76209
L79136 76265
L79051 76293
L78911 76293
" />
<path d="M79754 76293
L79754 75984
L79726 75928
L79670 75899
L79557 75899
L79501 75928
" />
<path d="M79754 76265
L79698 76293
L79557 76293
L79501 76265
L79473 76209
L79473 76153
L79501 76096
L79557 76068
L79698 76068
L79754 76040
" />
<path d="M79951 75899
L80176 75899
" />
<path d="M80036 75703
L80036 76209
L80064 76265
L80120 76293
L80176 76293
" />
<path d="M80598 76265
L80542 76293
L80429 76293
L80373 76265
L80345 76209
L80345 75984
L80373 75928
L80429 75899
L80542 75899
L80598 75928
L80626 75984
L80626 76040
L80345 76096
" />
<path d="M80879 76237
L80907 76265
L80879 76293
L80851 76265
L80879 76237
L80879 76293
" />
<path d="M80879 75928
L80907 75956
L80879 75984
L80851 75956
L80879 75928
L80879 75984
" />
</g>
<g style="fill:#000000; fill-opacity:0.0; 
stroke:#000000; stroke-width:39.3701; stroke-opacity:1; 
stroke-linecap:round; stroke-linejoin:round;">
</g>
<g style="fill:#000000; fill-opacity:0.0; 
stroke:#000000; stroke-width:59.0551; stroke-opacity:1; 
stroke-linecap:round; stroke-linejoin:round;">
<path d="M69685 76577
L112205 76577
" />
</g>
<g style="fill:#000000; fill-opacity:0.0; 
stroke:#000000; stroke-width:39.3701; stroke-opacity:1; 
stroke-linecap:round; stroke-linejoin:round;">
</g>
<g style="fill:#000000; fill-opacity:0.0; 
stroke:#000000; stroke-width:59.0551; stroke-opacity:1; 
stroke-linecap:round; stroke-linejoin:round;">
<path d="M70249 77395
L70249 76805
" />
<path d="M70587 77395
L70334 77058
" />
<path d="M70587 76805
L70249 77142
" />
<path d="M70840 77395
L70840 77002
" />
<path d="M70840 76805
L70812 76833
L70840 76861
L70868 76833
L70840 76805
L70840 76861
" />
<path d="M71458 77339
L71430 77367
L71346 77395
L71290 77395
L71205 77367
L71149 77311
L71121 77255
L71093 77142
L71093 77058
L71121 76946
L71149 76889
L71205 76833
L71290 76805
L71346 76805
L71430 76833
L71458 76861
" />
<path d="M71965 77395
L71965 77086
L71937 77030
L71880 77002
L71768 77002
L71712 77030
" />
<path d="M71965 77367
L71908 77395
L71768 77395
L71712 77367
L71683 77311
L71683 77255
L71712 77199
L71768 77171
L71908 77171
L71965 77142
" />
<path d="M72499 77395
L72499 76805
" />
<path d="M72499 77367
L72443 77395
L72330 77395
L72274 77367
L72246 77339
L72218 77283
L72218 77114
L72246 77058
L72274 77030
L72330 77002
L72443 77002
L72499 77030
" />
<path d="M73230 77086
L73427 77086
" />
<path d="M73511 77395
L73230 77395
L73230 76805
L73511 76805
" />
<path d="M73764 77339
L73793 77367
L73764 77395
L73736 77367
L73764 77339
L73764 77395
" />
<path d="M74046 77395
L74046 76805
L74186 76805
L74271 76833
L74327 76889
L74355 76946
L74383 77058
L74383 77142
L74355 77255
L74327 77311
L74271 77367
L74186 77395
L74046 77395
" />
<path d="M74636 77339
L74664 77367
L74636 77395
L74608 77367
L74636 77339
L74636 77395
" />
<path d="M74889 77227
L75171 77227
" />
<path d="M74833 77395
L75030 76805
L75227 77395
" />
<path d="M75424 77339
L75452 77367
L75424 77395
L75395 77367
L75424 77339
L75424 77395
" />
<path d="M76605 77395
L76605 76805
" />
<path d="M76661 77171
L76830 77395
" />
<path d="M76830 77002
L76605 77227
" />
<path d="M77083 77395
L77083 77002
" />
<path d="M77083 76805
L77055 76833
L77083 76861
L77111 76833
L77083 76805
L77083 76861
" />
<path d="M77617 77367
L77561 77395
L77448 77395
L77392 77367
L77364 77339
L77336 77283
L77336 77114
L77364 77058
L77392 77030
L77448 77002
L77561 77002
L77617 77030
" />
<path d="M78123 77395
L78123 77086
L78095 77030
L78039 77002
L77926 77002
L77870 77030
" />
<path d="M78123 77367
L78067 77395
L77926 77395
L77870 77367
L77842 77311
L77842 77255
L77870 77199
L77926 77171
L78067 77171
L78123 77142
" />
<path d="M78658 77395
L78658 76805
" />
<path d="M78658 77367
L78601 77395
L78489 77395
L78433 77367
L78404 77339
L78376 77283
L78376 77114
L78404 77058
L78433 77030
L78489 77002
L78601 77002
L78658 77030
" />
<path d="M79670 76805
L79389 76805
L79361 77086
L79389 77058
L79445 77030
L79586 77030
L79642 77058
L79670 77086
L79698 77142
L79698 77283
L79670 77339
L79642 77367
L79586 77395
L79445 77395
L79389 77367
L79361 77339
" />
<path d="M79951 77339
L79979 77367
L79951 77395
L79923 77367
L79951 77339
L79951 77395
" />
<path d="M80345 76805
L80401 76805
L80457 76833
L80485 76861
L80514 76917
L80542 77030
L80542 77171
L80514 77283
L80485 77339
L80457 77367
L80401 77395
L80345 77395
L80289 77367
L80260 77339
L80232 77283
L80204 77171
L80204 77030
L80232 76917
L80260 76861
L80289 76833
L80345 76805
" />
<path d="M80795 77339
L80823 77367
L80795 77395
L80767 77367
L80795 77339
L80795 77395
" />
<path d="M81048 76861
L81076 76833
L81132 76805
L81273 76805
L81329 76833
L81357 76861
L81385 76917
L81385 76974
L81357 77058
L81020 77395
L81385 77395
" />
<path d="M81638 77171
L82088 77171
" />
<path d="M81863 77395
L81863 76946
" />
<path d="M82623 77395
L82623 76805
" />
<path d="M82623 77367
L82566 77395
L82454 77395
L82398 77367
L82370 77339
L82341 77283
L82341 77114
L82370 77058
L82398 77030
L82454 77002
L82566 77002
L82623 77030
" />
<path d="M82820 77002
L83045 77002
" />
<path d="M82904 77395
L82904 76889
L82932 76833
L82988 76805
L83045 76805
" />
<path d="M83213 77367
L83269 77395
L83382 77395
L83438 77367
L83466 77311
L83466 77283
L83438 77227
L83382 77199
L83298 77199
L83241 77171
L83213 77114
L83213 77086
L83241 77030
L83298 77002
L83382 77002
L83438 77030
" />
<path d="M83973 77002
L83973 77480
L83944 77536
L83916 77564
L83860 77592
L83776 77592
L83719 77564
" />
<path d="M83973 77367
L83916 77395
L83804 77395
L83748 77367
L83719 77339
L83691 77283
L83691 77114
L83719 77058
L83748 77030
L83804 77002
L83916 77002
L83973 77030
" />
<path d="M84563 77395
L84226 77395
" />
<path d="M84394 77395
L84394 76805
L84338 76889
L84282 76946
L84226 76974
" />
<path d="M84816 77171
L85266 77171
" />
<path d="M85857 77395
L85519 77395
" />
<path d="M85688 77395
L85688 76805
L85632 76889
L85575 76946
L85519 76974
" />
<path d="M85969 76644
L86503 76644
" />
<path d="M86110 77395
L86110 76805
" />
<path d="M86110 77030
L86166 77002
L86278 77002
L86335 77030
L86363 77058
L86391 77114
L86391 77283
L86363 77339
L86335 77367
L86278 77395
L86166 77395
L86110 77367
" />
<path d="M86503 76644
L87038 76644
" />
<path d="M86644 77002
L86644 77592
" />
<path d="M86644 77030
L86700 77002
L86813 77002
L86869 77030
L86897 77058
L86925 77114
L86925 77283
L86897 77339
L86869 77367
L86813 77395
L86700 77395
L86644 77367
" />
<path d="M87038 76644
L87572 76644
" />
<path d="M87263 77395
L87206 77367
L87178 77339
L87150 77283
L87150 77114
L87178 77058
L87206 77030
L87263 77002
L87347 77002
L87403 77030
L87431 77058
L87460 77114
L87460 77283
L87431 77339
L87403 77367
L87347 77395
L87263 77395
" />
<path d="M87572 76644
L88135 76644
" />
<path d="M87741 77395
L87853 77395
L87910 77367
L87938 77339
L87994 77255
L88022 77142
L88022 76917
L87994 76861
L87966 76833
L87910 76805
L87797 76805
L87741 76833
L87713 76861
L87685 76917
L87685 77058
L87713 77114
L87741 77142
L87797 77171
L87910 77171
L87966 77142
L87994 77114
L88022 77058
" />
<path d="M88135 76644
L88866 76644
" />
<path d="M88275 77171
L88725 77171
" />
<path d="M88500 77395
L88500 76946
" />
<path d="M88866 76644
L89428 76644
" />
<path d="M89316 77395
L88978 77395
" />
<path d="M89147 77395
L89147 76805
L89091 76889
L89034 76946
L88978 76974
" />
</g>
<g style="fill:#000000; fill-opacity:0.0; 
stroke:#000000; stroke-width:39.3701; stroke-opacity:1; 
stroke-linecap:round; stroke-linejoin:round;">
</g>
<g style="fill:#000000; fill-opacity:0.0; 
stroke:#000000; stroke-width:59.0551; stroke-opacity:1; 
stroke-linecap:round; stroke-linejoin:round;">
<path d="M69685 75396
L112205 75396
" />
</g>
<g style="fill:#000000; fill-opacity:0.0; 
stroke:#000000; stroke-width:39.3701; stroke-opacity:1; 
stroke-linecap:round; stroke-linejoin:round;">
</g>
<g style="fill:#000000; fill-opacity:0.0; 
stroke:#000000; stroke-width:118.11; stroke-opacity:1; 
stroke-linecap:round; stroke-linejoin:round;">
<path d="M104099 76293
L103902 76012
" />
<path d="M103761 76293
L103761 75703
L103986 75703
L104042 75731
L104070 75759
L104099 75815
L104099 75899
L104070 75956
L104042 75984
L103986 76012
L103761 76012
" />
<path d="M104577 76265
L104520 76293
L104408 76293
L104352 76265
L104323 76209
L104323 75984
L104352 75928
L104408 75899
L104520 75899
L104577 75928
L104605 75984
L104605 76040
L104323 76096
" />
<path d="M104802 75899
L104942 76293
L105083 75899
" />
<path d="M105308 76237
L105336 76265
L105308 76293
L105280 76265
L105308 76237
L105308 76293
" />
<path d="M105308 75928
L105336 75956
L105308 75984
L105280 75956
L105308 75928
L105308 75984
" />
</g>
<g style="fill:#000000; fill-opacity:0.0; 
stroke:#000000; stroke-width:39.3701; stroke-opacity:1; 
stroke-linecap:round; stroke-linejoin:round;">
</g>
<g style="fill:#000000; fill-opacity:0.0; 
stroke:#000000; stroke-width:59.0551; stroke-opacity:1; 
stroke-linecap:round; stroke-linejoin:round;">
<path d="M70221 76265
L70305 76293
L70446 76293
L70502 76265
L70530 76237
L70559 76181
L70559 76124
L70530 76068
L70502 76040
L70446 76012
L70334 75984
L70277 75956
L70249 75928
L70221 75871
L70221 75815
L70249 75759
L70277 75731
L70334 75703
L70474 75703
L70559 75731
" />
<path d="M70812 76293
L70812 75899
" />
<path d="M70812 75703
L70784 75731
L70812 75759
L70840 75731
L70812 75703
L70812 75759
" />
<path d="M71037 75899
L71346 75899
L71037 76293
L71346 76293
" />
<path d="M71796 76265
L71740 76293
L71627 76293
L71571 76265
L71543 76209
L71543 75984
L71571 75928
L71627 75899
L71740 75899
L71796 75928
L71824 75984
L71824 76040
L71543 76096
" />
<path d="M72077 76237
L72105 76265
L72077 76293
L72049 76265
L72077 76237
L72077 76293
" />
<path d="M72077 75928
L72105 75956
L72077 75984
L72049 75956
L72077 75928
L72077 75984
" />
<path d="M72780 76124
L73061 76124
" />
<path d="M72724 76293
L72921 75703
L73118 76293
" />
<path d="M73568 75899
L73568 76293
" />
<path d="M73427 75674
L73286 76096
L73652 76096
" />
</g>
<g style="fill:#000000; fill-opacity:0.0; 
stroke:#000000; stroke-width:39.3701; stroke-opacity:1; 
stroke-linecap:round; stroke-linejoin:round;">
</g>
<g style="fill:#000000; fill-opacity:0.0; 
stroke:#000000; stroke-width:59.0551; stroke-opacity:1; 
stroke-linecap:round; stroke-linejoin:round;">
<path d="M103714 77395
L103714 76805
" />
<path d="M104248 77395
L104248 76805
" />
<path d="M104248 77367
L104192 77395
L104079 77395
L104023 77367
L103995 77339
L103967 77283
L103967 77114
L103995 77058
L104023 77030
L104079 77002
L104192 77002
L104248 77030
" />
<path d="M104529 77339
L104557 77367
L104529 77395
L104501 77367
L104529 77339
L104529 77395
" />
<path d="M104529 77030
L104557 77058
L104529 77086
L104501 77058
L104529 77030
L104529 77086
" />
<path d="M105570 77395
L105232 77395
" />
<path d="M105401 77395
L105401 76805
L105345 76889
L105289 76946
L105232 76974
" />
<path d="M106245 76777
L105739 77536
" />
<path d="M106751 77395
L106413 77395
" />
<path d="M106582 77395
L106582 76805
L106526 76889
L106470 76946
L106413 76974
" />
</g>
<g style="fill:#000000; fill-opacity:0.0; 
stroke:#000000; stroke-width:39.3701; stroke-opacity:1; 
stroke-linecap:round; stroke-linejoin:round;">
</g>
<g style="fill:#000000; fill-opacity:0.0; 
stroke:#000000; stroke-width:59.0551; stroke-opacity:1; 
stroke-linecap:round; stroke-linejoin:round;">
<path d="M69685 73821
L112205 73821
" />
</g>
<g style="fill:#000000; fill-opacity:0.0; 
stroke:#000000; stroke-width:39.3701; stroke-opacity:1; 
stroke-linecap:round; stroke-linejoin:round;">
</g>
<g style="fill:#000000; fill-opacity:0.0; 
stroke:#000000; stroke-width:157.48; stroke-opacity:1; 
stroke-linecap:round; stroke-linejoin:round;">
<path d="M70360 74099
L70810 74099
" />
<path d="M70486 74886
L70585 74099
" />
<path d="M70974 74886
L71039 74361
" />
<path d="M71072 74099
L71030 74136
L71063 74174
L71105 74136
L71072 74099
L71063 74174
" />
<path d="M71302 74361
L71602 74361
" />
<path d="M71447 74099
L71363 74774
L71391 74849
L71461 74886
L71536 74886
" />
<path d="M71911 74886
L71841 74849
L71813 74774
L71897 74099
" />
<path d="M72516 74849
L72436 74886
L72286 74886
L72216 74849
L72187 74774
L72225 74474
L72272 74399
L72352 74361
L72501 74361
L72572 74399
L72600 74474
L72591 74549
L72206 74624
" />
<path d="M72895 74811
L72928 74849
L72886 74886
L72853 74849
L72895 74811
L72886 74886
" />
<path d="M72947 74399
L72980 74436
L72937 74474
L72905 74436
L72947 74399
L72937 74474
" />
</g>
<g style="fill:#000000; fill-opacity:0.0; 
stroke:#000000; stroke-width:39.3701; stroke-opacity:1; 
stroke-linecap:round; stroke-linejoin:round;">
</g>
<g style="fill:#000000; fill-opacity:0.0; 
stroke:#000000; stroke-width:59.0551; stroke-opacity:1; 
stroke-linecap:round; stroke-linejoin:round;">
<path d="M70446 73070
L70249 73070
" />
<path d="M70249 73380
L70249 72789
L70530 72789
" />
<path d="M70755 73380
L70755 72986
" />
<path d="M70755 72789
L70727 72817
L70755 72845
L70784 72817
L70755 72789
L70755 72845
" />
<path d="M71121 73380
L71065 73352
L71037 73295
L71037 72789
" />
<path d="M71571 73352
L71515 73380
L71402 73380
L71346 73352
L71318 73295
L71318 73070
L71346 73014
L71402 72986
L71515 72986
L71571 73014
L71599 73070
L71599 73127
L71318 73183
" />
<path d="M71852 73323
L71880 73352
L71852 73380
L71824 73352
L71852 73323
L71852 73380
" />
<path d="M71852 73014
L71880 73042
L71852 73070
L71824 73042
L71852 73014
L71852 73070
" />
<path d="M72893 73380
L72555 73380
" />
<path d="M72724 73380
L72724 72789
L72668 72874
L72611 72930
L72555 72958
" />
<path d="M73258 72789
L73314 72789
L73371 72817
L73399 72845
L73427 72902
L73455 73014
L73455 73155
L73427 73267
L73399 73323
L73371 73352
L73314 73380
L73258 73380
L73202 73352
L73174 73323
L73146 73267
L73118 73155
L73118 73014
L73146 72902
L73174 72845
L73202 72817
L73258 72789
" />
<path d="M73708 73380
L73708 72789
" />
<path d="M73764 73155
L73933 73380
" />
<path d="M73933 72986
L73708 73211
" />
<path d="M74186 72986
L74186 73380
" />
<path d="M74186 73042
L74214 73014
L74271 72986
L74355 72986
L74411 73014
L74439 73070
L74439 73380
" />
<path d="M74805 73380
L74749 73352
L74721 73323
L74692 73267
L74692 73099
L74721 73042
L74749 73014
L74805 72986
L74889 72986
L74946 73014
L74974 73042
L75002 73099
L75002 73267
L74974 73323
L74946 73352
L74889 73380
L74805 73380
" />
<path d="M75255 73380
L75255 72789
" />
<path d="M75255 73014
L75311 72986
L75424 72986
L75480 73014
L75508 73042
L75536 73099
L75536 73267
L75508 73323
L75480 73352
L75424 73380
L75311 73380
L75255 73352
" />
<path d="M75761 73352
L75817 73380
L75930 73380
L75986 73352
L76014 73295
L76014 73267
L75986 73211
L75930 73183
L75845 73183
L75789 73155
L75761 73099
L75761 73070
L75789 73014
L75845 72986
L75930 72986
L75986 73014
" />
<path d="M76127 73436
L76577 73436
" />
<path d="M76717 73380
L76717 72789
L76942 72789
L76998 72817
L77027 72845
L77055 72902
L77055 72986
L77027 73042
L76998 73070
L76942 73099
L76717 73099
" />
<path d="M77223 72789
L77561 72789
" />
<path d="M77392 73380
L77392 72789
" />
<path d="M77842 73042
L77786 73014
L77758 72986
L77730 72930
L77730 72902
L77758 72845
L77786 72817
L77842 72789
L77955 72789
L78011 72817
L78039 72845
L78067 72902
L78067 72930
L78039 72986
L78011 73014
L77955 73042
L77842 73042
L77786 73070
L77758 73099
L77730 73155
L77730 73267
L77758 73323
L77786 73352
L77842 73380
L77955 73380
L78011 73352
L78039 73323
L78067 73267
L78067 73155
L78039 73099
L78011 73070
L77955 73042
" />
<path d="M78292 72845
L78320 72817
L78376 72789
L78517 72789
L78573 72817
L78601 72845
L78629 72902
L78629 72958
L78601 73042
L78264 73380
L78629 73380
" />
<path d="M79192 73380
L78854 73380
" />
<path d="M79023 73380
L79023 72789
L78967 72874
L78911 72930
L78854 72958
" />
<path d="M79754 73380
L79417 73380
" />
<path d="M79586 73380
L79586 72789
L79529 72874
L79473 72930
L79417 72958
" />
<path d="M80007 73323
L80036 73352
L80007 73380
L79979 73352
L80007 73323
L80007 73380
" />
<path d="M80289 73380
L80289 72789
" />
<path d="M80345 73155
L80514 73380
" />
<path d="M80514 72986
L80289 73211
" />
<path d="M80767 73380
L80767 72986
" />
<path d="M80767 72789
L80739 72817
L80767 72845
L80795 72817
L80767 72789
L80767 72845
" />
<path d="M81301 73352
L81245 73380
L81132 73380
L81076 73352
L81048 73323
L81020 73267
L81020 73099
L81048 73042
L81076 73014
L81132 72986
L81245 72986
L81301 73014
" />
<path d="M81807 73380
L81807 73070
L81779 73014
L81723 72986
L81610 72986
L81554 73014
" />
<path d="M81807 73352
L81751 73380
L81610 73380
L81554 73352
L81526 73295
L81526 73239
L81554 73183
L81610 73155
L81751 73155
L81807 73127
" />
<path d="M82341 73380
L82341 72789
" />
<path d="M82341 73352
L82285 73380
L82173 73380
L82117 73352
L82088 73323
L82060 73267
L82060 73099
L82088 73042
L82117 73014
L82173 72986
L82285 72986
L82341 73014
" />
<path d="M82482 73436
L82932 73436
" />
<path d="M83073 72986
L83073 73577
" />
<path d="M83073 73014
L83129 72986
L83241 72986
L83298 73014
L83326 73042
L83354 73099
L83354 73267
L83326 73323
L83298 73352
L83241 73380
L83129 73380
L83073 73352
" />
<path d="M83860 73352
L83804 73380
L83691 73380
L83635 73352
L83607 73323
L83579 73267
L83579 73099
L83607 73042
L83635 73014
L83691 72986
L83804 72986
L83860 73014
" />
<path d="M84113 73380
L84113 72789
" />
<path d="M84113 73014
L84169 72986
L84282 72986
L84338 73014
L84366 73042
L84394 73099
L84394 73267
L84366 73323
L84338 73352
L84282 73380
L84169 73380
L84113 73352
" />
</g>
<g style="fill:#000000; fill-opacity:0.0; 
stroke:#000000; stroke-width:39.3701; stroke-opacity:1; 
stroke-linecap:round; stroke-linejoin:round;">
</g>
<g style="fill:#000000; fill-opacity:0.0; 
stroke:#000000; stroke-width:59.0551; stroke-opacity:1; 
stroke-linecap:round; stroke-linejoin:round;">
<path d="M69685 71459
L112205 71459
" />
</g>
<g style="fill:#000000; fill-opacity:0.0; 
stroke:#000000; stroke-width:39.3701; stroke-opacity:1; 
stroke-linecap:round; stroke-linejoin:round;">
</g>
<g style="fill:#000000; fill-opacity:0.0; 
stroke:#000000; stroke-width:59.0551; stroke-opacity:1; 
stroke-linecap:round; stroke-linejoin:round;">
<path d="M70221 72289
L70305 72317
L70446 72317
L70502 72289
L70530 72260
L70559 72204
L70559 72148
L70530 72092
L70502 72064
L70446 72036
L70334 72007
L70277 71979
L70249 71951
L70221 71895
L70221 71839
L70249 71782
L70277 71754
L70334 71726
L70474 71726
L70559 71754
" />
<path d="M70812 72317
L70812 71726
" />
<path d="M71065 72317
L71065 72007
L71037 71951
L70980 71923
L70896 71923
L70840 71951
L70812 71979
" />
<path d="M71571 72289
L71515 72317
L71402 72317
L71346 72289
L71318 72232
L71318 72007
L71346 71951
L71402 71923
L71515 71923
L71571 71951
L71599 72007
L71599 72064
L71318 72120
" />
<path d="M72077 72289
L72021 72317
L71908 72317
L71852 72289
L71824 72232
L71824 72007
L71852 71951
L71908 71923
L72021 71923
L72077 71951
L72105 72007
L72105 72064
L71824 72120
" />
<path d="M72274 71923
L72499 71923
" />
<path d="M72358 71726
L72358 72232
L72386 72289
L72443 72317
L72499 72317
" />
<path d="M72696 72260
L72724 72289
L72696 72317
L72668 72289
L72696 72260
L72696 72317
" />
<path d="M72696 71951
L72724 71979
L72696 72007
L72668 71979
L72696 71951
L72696 72007
" />
</g>
<g style="fill:#000000; fill-opacity:0.0; 
stroke:#000000; stroke-width:39.3701; stroke-opacity:1; 
stroke-linecap:round; stroke-linejoin:round;">
</g>
<g style="fill:#000000; fill-opacity:0.0; 
stroke:#000000; stroke-width:59.0551; stroke-opacity:1; 
stroke-linecap:round; stroke-linejoin:round;">
<path d="M77559 75396
L77559 76577
" />
</g>
<g style="fill:#000000; fill-opacity:0.0; 
stroke:#000000; stroke-width:39.3701; stroke-opacity:1; 
stroke-linecap:round; stroke-linejoin:round;">
</g>
<g style="fill:#000000; fill-opacity:0.0; 
stroke:#000000; stroke-width:59.0551; stroke-opacity:1; 
stroke-linecap:round; stroke-linejoin:round;">
<path d="M102756 75396
L102756 77955
" />
</g>
<g style="fill:#000000; fill-opacity:0.0; 
stroke:#000000; stroke-width:78.7402; stroke-opacity:1; 
stroke-linecap:round; stroke-linejoin:round;">
<path d="M45984 16692
L48582 16692
" />
<path d="M45984 16535
L45984 16692
" />
<path d="M48582 16535
L45984 16535
" />
<path d="M39763 31102
L40078 31102
" />
<path d="M39763 32440
L39763 31102
" />
<path d="M41259 32440
L39763 32440
" />
<path d="M41574 32125
L41259 32440
" />
<path d="M41574 31102
L41574 32125
" />
<path d="M39763 31102
L41574 31102
" />
</g>
<g style="fill:#000000; fill-opacity:0.0; 
stroke:#000000; stroke-width:39.3701; stroke-opacity:1; 
stroke-linecap:round; stroke-linejoin:round;">
<circle cx="28346.5" cy="12401.6" r="1181.1" /> 
<path d="M26417 14960
L30275 14960
" />
<path d="M30275 14960
L30275 10236
" />
<path d="M30275 10236
L26417 10236
" />
<path d="M26417 10236
L26417 14960
" />
<path d="M31661 32537
L32449 32537
" />
<path d="M32449 32537
L32449 30962
" />
<path d="M32449 30962
L31661 30962
" />
<path d="M31661 30962
L31661 32537
" />
<path d="M32055 33250
L32055 32537
" />
<path d="M32055 30250
L32055 30962
" />
<path d="M31661 32301
L32449 32301
" />
<path d="M31661 32262
L32449 32262
" />
<path d="M31661 32340
L32449 32340
" />
<path d="M25878.2 35958.5 A748.031 748.031 0.0 1 0 25878 36876.5 " />
<circle cx="25287.4" cy="36417.3" r="590.551" /> 
<path d="M25877 36876
L25877 35958
" />
<path d="M23251 31555
L23251 32539
" />
<path d="M23251 32539
L25732 32539
" />
<path d="M25732 32539
L25732 31555
" />
<path d="M25732 31555
L23251 31555
" />
<path d="M22992 32047
L23251 32047
" />
<path d="M25992 32047
L25732 32047
" />
<path d="M43562 30496
L42578 30496
" />
<path d="M42578 30496
L42578 32976
" />
<path d="M42578 32976
L43562 32976
" />
<path d="M43562 32976
L43562 30496
" />
<path d="M43070 30236
L43070 30496
" />
<path d="M43070 33236
L43070 32976
" />
<path d="M30401 30551
L30141 30551
" />
<path d="M27401 30551
L27661 30551
" />
<path d="M30141 30059
L27661 30059
" />
<path d="M30141 31043
L30141 30059
" />
<path d="M27661 31043
L30141 31043
" />
<path d="M27661 30059
L27661 31043
" />
<path d="M30133 33366
L30133 32381
" />
<path d="M30133 32381
L27653 32381
" />
<path d="M27653 32381
L27653 33366
" />
<path d="M27653 33366
L30133 33366
" />
<path d="M30393 32874
L30133 32874
" />
<path d="M27393 32874
L27653 32874
" />
<path d="M30842 37500
L30842 36515
" />
<path d="M30842 36515
L28362 36515
" />
<path d="M28362 36515
L28362 37500
" />
<path d="M28362 37500
L30842 37500
" />
<path d="M31102 37007
L30842 37007
" />
<path d="M28102 37007
L28362 37007
" />
<path d="M46850 30464
L46850 30724
" />
<path d="M46850 33464
L46850 33204
" />
<path d="M46358 30724
L46358 33204
" />
<path d="M47342 30724
L46358 30724
" />
<path d="M47342 33204
L47342 30724
" />
<path d="M46358 33204
L47342 33204
" />
<path d="M27795 17322
L27795 22047
" />
<path d="M31653 17322
L27795 17322
" />
<path d="M31653 22047
L31653 17322
" />
<path d="M27795 22047
L31653 22047
" />
<circle cx="29724.4" cy="19488.2" r="1181.1" /> 
<circle cx="36023.6" cy="12401.6" r="1181.1" /> 
<path d="M34094 14960
L37952 14960
" />
<path d="M37952 14960
L37952 10236
" />
<path d="M37952 10236
L34094 10236
" />
<path d="M34094 10236
L34094 14960
" />
<path d="M35275 17322
L35275 22047
" />
<path d="M39133 17322
L35275 17322
" />
<path d="M39133 22047
L39133 17322
" />
<path d="M35275 22047
L39133 22047
" />
<circle cx="37204.7" cy="19488.2" r="1181.1" /> 
<circle cx="43307.1" cy="12401.6" r="1181.1" /> 
<path d="M41377 14960
L45236 14960
" />
<path d="M45236 14960
L45236 10236
" />
<path d="M45236 10236
L41377 10236
" />
<path d="M41377 10236
L41377 14960
" />
<path d="M42755 17322
L42755 22047
" />
<path d="M46614 17322
L42755 17322
" />
<path d="M46614 22047
L46614 17322
" />
<path d="M42755 22047
L46614 22047
" />
<circle cx="44685" cy="19488.2" r="1181.1" /> 
<circle cx="52165.4" cy="19488.2" r="1181.1" /> 
<path d="M50236 22047
L54094 22047
" />
<path d="M54094 22047
L54094 17322
" />
<path d="M54094 17322
L50236 17322
" />
<path d="M50236 17322
L50236 22047
" />
<path d="M48661 10236
L48661 14960
" />
<path d="M52519 10236
L48661 10236
" />
<path d="M52519 14960
L52519 10236
" />
<path d="M48661 14960
L52519 14960
" />
<circle cx="50590.6" cy="12401.6" r="1181.1" /> 
<path d="M51818 27874
L51559 27874
" />
<path d="M48818 27874
L49078 27874
" />
<path d="M51559 27381
L49078 27381
" />
<path d="M51559 28366
L51559 27381
" />
<path d="M49078 28366
L51559 28366
" />
<path d="M49078 27381
L49078 28366
" />
<path d="M39476 37348
L39476 38098
" />
<path d="M39476 38098
L33476 38098
" />
<path d="M33476 38098
L33476 37098
" />
<path d="M33476 37098
L39226 37098
" />
<path d="M39226 37098
L39476 37348
" />
<path d="M20535 35531
L20535 36515
" />
<path d="M20535 36515
L23015 36515
" />
<path d="M23015 36515
L23015 35531
" />
<path d="M23015 35531
L20535 35531
" />
<path d="M20275 36023
L20535 36023
" />
<path d="M23275 36023
L23015 36023
" />
<path d="M20511 17322
L20511 22047
" />
<path d="M24370 17322
L20511 17322
" />
<path d="M24370 22047
L24370 17322
" />
<path d="M20511 22047
L24370 22047
" />
<circle cx="22440.9" cy="19488.2" r="1181.1" /> 
<circle cx="20866.1" cy="12401.6" r="1181.1" /> 
<path d="M18937 14960
L22795 14960
" />
<path d="M22795 14960
L22795 10236
" />
<path d="M22795 10236
L18937 10236
" />
<path d="M18937 10236
L18937 14960
" />
<path d="M33327 33000
L32933 32606
" />
<path d="M36933 33000
L33327 33000
" />
<path d="M36933 30500
L36933 33000
" />
<path d="M32933 30500
L36933 30500
" />
<path d="M32933 32606
L32933 30500
" />
<circle cx="24566.9" cy="30137.8" r="984.252" /> 
<path d="M24138 30977
L24138 30780
" />
<path d="M24040 30879
L24237 30879
" />
<circle cx="54527.6" cy="34940.9" r="984.252" /> 
<path d="M54099 35780
L54099 35584
" />
<path d="M54000 35682
L54197 35682
" />
<path d="M55054 31837
L54857 31837
" />
<path d="M54955 31738
L54955 31935
" />
<circle cx="54527.6" cy="32578.7" r="984.252" /> 
<path d="M53444 29464
L54429 29464
" />
<path d="M54429 29464
L54429 26984
" />
<path d="M54429 26984
L53444 26984
" />
<path d="M53444 26984
L53444 29464
" />
<path d="M53937 29724
L53937 29464
" />
<path d="M53937 26724
L53937 26984
" />
<path d="M51521 35539
L49415 35539
" />
<path d="M49415 35539
L49415 31539
" />
<path d="M49415 31539
L51915 31539
" />
<path d="M51915 31539
L51915 35145
" />
<path d="M51915 35145
L51521 35539
" />
<path d="M42039 26141
L42299 26141
" />
<path d="M45039 26141
L44779 26141
" />
<path d="M42299 26633
L44779 26633
" />
<path d="M42299 25649
L42299 26633
" />
<path d="M44779 25649
L42299 25649
" />
<path d="M44779 26633
L44779 25649
" />
<path d="M44700 27893
L44700 26909
" />
<path d="M44700 26909
L42220 26909
" />
<path d="M42220 26909
L42220 27893
" />
<path d="M42220 27893
L44700 27893
" />
<path d="M44960 27401
L44700 27401
" />
<path d="M41960 27401
L42220 27401
" />
<circle cx="29822.8" cy="25669.3" r="984.252" /> 
<path d="M30662 26097
L30465 26097
" />
<path d="M30564 26195
L30564 25999
" />
<path d="M30255 27637
L30255 26850
" />
<path d="M30255 26850
L29074 26850
" />
<path d="M29074 26850
L29074 27637
" />
<path d="M29074 27637
L30255 27637
" />
<path d="M45807 33070
L44625 33070
" />
<path d="M45807 33858
L45807 33070
" />
<path d="M44625 33858
L45807 33858
" />
<path d="M44625 33070
L44625 33858
" />
<path d="M38267 32460
L39055 32460
" />
<path d="M39055 32460
L39055 31279
" />
<path d="M39055 31279
L38267 31279
" />
<path d="M38267 31279
L38267 32460
" />
<path d="M49901 36811
L49901 36023
" />
<path d="M49901 36023
L48720 36023
" />
<path d="M48720 36023
L48720 36811
" />
<path d="M48720 36811
L49901 36811
" />
<path d="M52755 30413
L52755 31594
" />
<path d="M53543 30413
L52755 30413
" />
<path d="M53543 31594
L53543 30413
" />
<path d="M52755 31594
L53543 31594
" />
<path d="M51393 30255
L51393 29271
" />
<path d="M51393 29271
L48913 29271
" />
<path d="M48913 29271
L48913 30255
" />
<path d="M48913 30255
L51393 30255
" />
<path d="M51653 29763
L51393 29763
" />
<path d="M48653 29763
L48913 29763
" />
</g>
<g style="fill:#000000; fill-opacity:0.0; 
stroke:#000000; stroke-width:59.0551; stroke-opacity:1; 
stroke-linecap:round; stroke-linejoin:round;">
<path d="M31536 13244
L31536 13469
" />
<path d="M31536 13356
L31142 13356
L31198 13394
L31236 13431
L31255 13469
" />
<path d="M31142 13000
L31142 12963
L31161 12925
L31180 12906
L31217 12888
L31292 12869
L31386 12869
L31461 12888
L31498 12906
L31517 12925
L31536 12963
L31536 13000
L31517 13038
L31498 13056
L31461 13075
L31386 13094
L31292 13094
L31217 13075
L31180 13056
L31161 13038
L31142 13000
" />
<path d="M31536 12700
L31142 12700
" />
<path d="M31536 12475
L31311 12644
" />
<path d="M31142 12475
L31367 12700
" />
<path d="M24540 16516
L24540 16122
L24690 16122
L24728 16141
L24746 16160
L24765 16197
L24765 16254
L24746 16291
L24728 16310
L24690 16329
L24540 16329
" />
<path d="M24915 16404
L25103 16404
" />
<path d="M24878 16516
L25009 16122
L25140 16516
" />
<path d="M25440 16122
L25365 16122
L25328 16141
L25309 16160
L25271 16216
L25253 16291
L25253 16441
L25271 16479
L25290 16497
L25328 16516
L25403 16516
L25440 16497
L25459 16479
L25478 16441
L25478 16347
L25459 16310
L25440 16291
L25403 16272
L25328 16272
L25290 16291
L25271 16310
L25253 16347
" />
<path d="M31516 32388
L31516 32613
" />
<path d="M31516 32500
L31122 32500
L31179 32538
L31216 32575
L31235 32613
" />
<path d="M31516 32219
L31122 32219
L31516 31994
L31122 31994
" />
<path d="M31516 31788
L31516 31713
L31497 31676
L31479 31657
L31422 31619
L31347 31601
L31197 31601
L31160 31619
L31141 31638
L31122 31676
L31122 31751
L31141 31788
L31160 31807
L31197 31826
L31291 31826
L31329 31807
L31347 31788
L31366 31751
L31366 31676
L31347 31638
L31329 31619
L31291 31601
" />
<path d="M31516 31226
L31516 31451
" />
<path d="M31516 31338
L31122 31338
L31179 31376
L31216 31413
L31235 31451
" />
<path d="M31254 30888
L31516 30888
" />
<path d="M31104 30982
L31385 31076
L31385 30832
" />
</g>
<g style="fill:#000000; fill-opacity:0.0; 
stroke:#000000; stroke-width:47.2441; stroke-opacity:1; 
stroke-linecap:round; stroke-linejoin:round;">
<path d="M32197 31864
L31882 31864
L31882 31789
L31897 31744
L31927 31714
L31957 31699
L32017 31684
L32062 31684
L32122 31699
L32152 31714
L32182 31744
L32197 31789
L32197 31864
" />
<path d="M32197 31384
L32197 31564
" />
<path d="M32197 31474
L31882 31474
L31927 31504
L31957 31534
L31972 31564
" />
</g>
<g style="fill:#000000; fill-opacity:0.0; 
stroke:#000000; stroke-width:59.0551; stroke-opacity:1; 
stroke-linecap:round; stroke-linejoin:round;">
<path d="M31524 33353
L31131 33353
" />
<path d="M31524 33128
L31299 33297
" />
<path d="M31131 33128
L31356 33353
" />
<path d="M25034 35430
L24846 35430
L24846 35036
" />
<path d="M25165 35223
L25296 35223
" />
<path d="M25353 35430
L25165 35430
L25165 35036
L25353 35036
" />
<path d="M25521 35430
L25521 35036
L25615 35036
L25671 35055
L25709 35092
L25727 35130
L25746 35205
L25746 35261
L25727 35336
L25709 35373
L25671 35411
L25615 35430
L25521 35430
" />
<path d="M25121 32382
L24896 32382
" />
<path d="M25009 32382
L25009 31989
L24971 32045
L24934 32082
L24896 32101
" />
<path d="M25365 31989
L25403 31989
L25440 32007
L25459 32026
L25478 32064
L25496 32139
L25496 32232
L25478 32307
L25459 32345
L25440 32364
L25403 32382
L25365 32382
L25328 32364
L25309 32345
L25290 32307
L25271 32232
L25271 32139
L25290 32064
L25309 32026
L25328 32007
L25365 31989
" />
<path d="M23635 32067
L23503 31880
" />
<path d="M23410 32067
L23410 31674
L23560 31674
L23597 31692
L23616 31711
L23635 31749
L23635 31805
L23616 31842
L23597 31861
L23560 31880
L23410 31880
" />
<path d="M24010 32067
L23785 32067
" />
<path d="M23897 32067
L23897 31674
L23860 31730
L23822 31767
L23785 31786
" />
<path d="M43406 31019
L43406 31244
" />
<path d="M43406 31132
L43012 31132
L43068 31169
L43106 31207
L43125 31244
" />
<path d="M43012 30776
L43012 30738
L43031 30701
L43050 30682
L43087 30663
L43162 30644
L43256 30644
L43331 30663
L43368 30682
L43387 30701
L43406 30738
L43406 30776
L43387 30813
L43368 30832
L43331 30851
L43256 30869
L43162 30869
L43087 30851
L43050 30832
L43031 30813
L43012 30776
" />
<path d="M43091 32506
L42904 32637
" />
<path d="M43091 32731
L42697 32731
L42697 32581
L42716 32544
L42735 32525
L42772 32506
L42829 32506
L42866 32525
L42885 32544
L42904 32581
L42904 32731
" />
<path d="M42735 32356
L42716 32337
L42697 32300
L42697 32206
L42716 32169
L42735 32150
L42772 32131
L42810 32131
L42866 32150
L43091 32375
L43091 32131
" />
<path d="M28882 30609
L28901 30590
L28938 30571
L29032 30571
L29070 30590
L29088 30609
L29107 30646
L29107 30684
L29088 30740
L28863 30965
L29107 30965
" />
<path d="M29257 30609
L29276 30590
L29313 30571
L29407 30571
L29445 30590
L29463 30609
L29482 30646
L29482 30684
L29463 30740
L29238 30965
L29482 30965
" />
<path d="M29726 30571
L29763 30571
L29801 30590
L29820 30609
L29838 30646
L29857 30721
L29857 30815
L29838 30890
L29820 30928
L29801 30946
L29763 30965
L29726 30965
L29688 30946
L29670 30928
L29651 30890
L29632 30815
L29632 30721
L29651 30646
L29670 30609
L29688 30590
L29726 30571
" />
<path d="M28123 30571
L27992 30384
" />
<path d="M27898 30571
L27898 30178
L28048 30178
L28085 30196
L28104 30215
L28123 30253
L28123 30309
L28104 30346
L28085 30365
L28048 30384
L27898 30384
" />
<path d="M28254 30178
L28498 30178
L28367 30328
L28423 30328
L28460 30346
L28479 30365
L28498 30403
L28498 30496
L28479 30534
L28460 30553
L28423 30571
L28310 30571
L28273 30553
L28254 30534
" />
<path d="M28803 32892
L28822 32874
L28860 32855
L28953 32855
L28991 32874
L29010 32892
L29028 32930
L29028 32967
L29010 33023
L28785 33248
L29028 33248
" />
<path d="M29178 32892
L29197 32874
L29235 32855
L29328 32855
L29366 32874
L29385 32892
L29403 32930
L29403 32967
L29385 33023
L29160 33248
L29403 33248
" />
<path d="M29647 32855
L29685 32855
L29722 32874
L29741 32892
L29760 32930
L29778 33005
L29778 33098
L29760 33173
L29741 33211
L29722 33230
L29685 33248
L29647 33248
L29610 33230
L29591 33211
L29572 33173
L29553 33098
L29553 33005
L29572 32930
L29591 32892
L29610 32874
L29647 32855
" />
<path d="M28202 32855
L28070 32667
" />
<path d="M27977 32855
L27977 32461
L28127 32461
L28164 32480
L28183 32499
L28202 32536
L28202 32592
L28183 32630
L28164 32649
L28127 32667
L27977 32667
" />
<path d="M28539 32592
L28539 32855
" />
<path d="M28445 32442
L28352 32724
L28595 32724
" />
<path d="M29670 37065
L29688 37047
L29726 37028
L29820 37028
L29857 37047
L29876 37065
L29895 37103
L29895 37140
L29876 37197
L29651 37422
L29895 37422
" />
<path d="M30044 37065
L30063 37047
L30101 37028
L30194 37028
L30232 37047
L30251 37065
L30269 37103
L30269 37140
L30251 37197
L30026 37422
L30269 37422
" />
<path d="M30513 37028
L30551 37028
L30588 37047
L30607 37065
L30626 37103
L30644 37178
L30644 37272
L30626 37347
L30607 37384
L30588 37403
L30551 37422
L30513 37422
L30476 37403
L30457 37384
L30438 37347
L30419 37272
L30419 37178
L30438 37103
L30457 37065
L30476 37047
L30513 37028
" />
<path d="M28832 37028
L28700 36841
" />
<path d="M28607 37028
L28607 36634
L28757 36634
L28794 36653
L28813 36672
L28832 36709
L28832 36766
L28813 36803
L28794 36822
L28757 36841
L28607 36841
" />
<path d="M29188 36634
L29000 36634
L28982 36822
L29000 36803
L29038 36784
L29131 36784
L29169 36803
L29188 36822
L29206 36859
L29206 36953
L29188 36991
L29169 37009
L29131 37028
L29038 37028
L29000 37009
L28982 36991
" />
<path d="M47185 31651
L47185 31876
" />
<path d="M47185 31764
L46792 31764
L46848 31801
L46886 31839
L46904 31876
" />
<path d="M46792 31407
L46792 31370
L46811 31332
L46829 31314
L46867 31295
L46942 31276
L47035 31276
L47110 31295
L47148 31314
L47167 31332
L47185 31370
L47185 31407
L47167 31445
L47148 31464
L47110 31482
L47035 31501
L46942 31501
L46867 31482
L46829 31464
L46811 31445
L46792 31407
" />
<path d="M47185 31107
L46792 31107
" />
<path d="M47035 31070
L47185 30958
" />
<path d="M46923 30958
L47073 31107
" />
<path d="M46871 32821
L46683 32952
" />
<path d="M46871 33046
L46477 33046
L46477 32896
L46496 32859
L46514 32840
L46552 32821
L46608 32821
L46646 32840
L46664 32859
L46683 32896
L46683 33046
" />
<path d="M46477 32484
L46477 32559
L46496 32596
L46514 32615
L46571 32652
L46646 32671
L46796 32671
L46833 32652
L46852 32634
L46871 32596
L46871 32521
L46852 32484
L46833 32465
L46796 32446
L46702 32446
L46664 32465
L46646 32484
L46627 32521
L46627 32596
L46646 32634
L46664 32652
L46702 32671
" />
<path d="M32914 20330
L32914 20555
" />
<path d="M32914 20443
L32520 20443
L32576 20480
L32614 20518
L32633 20555
" />
<path d="M32520 20087
L32520 20049
L32539 20012
L32558 19993
L32595 19974
L32670 19955
L32764 19955
L32839 19974
L32876 19993
L32895 20012
L32914 20049
L32914 20087
L32895 20124
L32876 20143
L32839 20162
L32764 20180
L32670 20180
L32595 20162
L32558 20143
L32539 20124
L32520 20087
" />
<path d="M32914 19787
L32520 19787
" />
<path d="M32914 19562
L32689 19730
" />
<path d="M32520 19562
L32745 19787
" />
<path d="M25365 22815
L25365 22422
L25515 22422
L25553 22440
L25571 22459
L25590 22497
L25590 22553
L25571 22590
L25553 22609
L25515 22628
L25365 22628
" />
<path d="M25740 22703
L25928 22703
" />
<path d="M25703 22815
L25834 22422
L25965 22815
" />
<path d="M26059 22422
L26321 22422
L26152 22815
" />
<path d="M26696 22815
L26565 22628
" />
<path d="M26471 22815
L26471 22422
L26621 22422
L26659 22440
L26677 22459
L26696 22497
L26696 22553
L26677 22590
L26659 22609
L26621 22628
L26471 22628
" />
<path d="M26809 22422
L26940 22815
L27071 22422
" />
<path d="M27409 22815
L27184 22815
" />
<path d="M27296 22815
L27296 22422
L27259 22478
L27221 22515
L27184 22534
" />
<path d="M39213 13244
L39213 13469
" />
<path d="M39213 13356
L38819 13356
L38876 13394
L38913 13431
L38932 13469
" />
<path d="M38819 13000
L38819 12963
L38838 12925
L38857 12906
L38894 12888
L38969 12869
L39063 12869
L39138 12888
L39176 12906
L39194 12925
L39213 12963
L39213 13000
L39194 13038
L39176 13056
L39138 13075
L39063 13094
L38969 13094
L38894 13075
L38857 13056
L38838 13038
L38819 13000
" />
<path d="M39213 12700
L38819 12700
" />
<path d="M39213 12475
L38988 12644
" />
<path d="M38819 12475
L39044 12700
" />
<path d="M32611 16516
L32611 16122
L32761 16122
L32799 16141
L32817 16160
L32836 16197
L32836 16254
L32817 16291
L32799 16310
L32761 16329
L32611 16329
" />
<path d="M32986 16404
L33173 16404
" />
<path d="M32949 16516
L33080 16122
L33211 16516
" />
<path d="M33530 16122
L33342 16122
L33323 16310
L33342 16291
L33380 16272
L33473 16272
L33511 16291
L33530 16310
L33548 16347
L33548 16441
L33530 16479
L33511 16497
L33473 16516
L33380 16516
L33342 16497
L33323 16479
" />
<path d="M40394 20330
L40394 20555
" />
<path d="M40394 20443
L40000 20443
L40057 20480
L40094 20518
L40113 20555
" />
<path d="M40000 20087
L40000 20049
L40019 20012
L40038 19993
L40075 19974
L40150 19955
L40244 19955
L40319 19974
L40357 19993
L40375 20012
L40394 20049
L40394 20087
L40375 20124
L40357 20143
L40319 20162
L40244 20180
L40150 20180
L40075 20162
L40038 20143
L40019 20124
L40000 20087
" />
<path d="M40394 19787
L40000 19787
" />
<path d="M40394 19562
L40169 19730
" />
<path d="M40000 19562
L40225 19787
" />
<path d="M34580 23800
L34580 23406
L34730 23406
L34767 23425
L34786 23443
L34805 23481
L34805 23537
L34786 23575
L34767 23593
L34730 23612
L34580 23612
" />
<path d="M34955 23687
L35142 23687
" />
<path d="M34917 23800
L35048 23406
L35179 23800
" />
<path d="M35479 23537
L35479 23800
" />
<path d="M35386 23387
L35292 23668
L35536 23668
" />
<path d="M46497 13244
L46497 13469
" />
<path d="M46497 13356
L46103 13356
L46159 13394
L46197 13431
L46215 13469
" />
<path d="M46103 13000
L46103 12963
L46122 12925
L46140 12906
L46178 12888
L46253 12869
L46347 12869
L46422 12888
L46459 12906
L46478 12925
L46497 12963
L46497 13000
L46478 13038
L46459 13056
L46422 13075
L46347 13094
L46253 13094
L46178 13075
L46140 13056
L46122 13038
L46103 13000
" />
<path d="M46497 12700
L46103 12700
" />
<path d="M46497 12475
L46272 12644
" />
<path d="M46103 12475
L46328 12700
" />
<path d="M40091 16516
L40091 16122
L40241 16122
L40279 16141
L40298 16160
L40316 16197
L40316 16254
L40298 16291
L40279 16310
L40241 16329
L40091 16329
" />
<path d="M40466 16404
L40654 16404
" />
<path d="M40429 16516
L40560 16122
L40691 16516
" />
<path d="M40785 16122
L41029 16122
L40898 16272
L40954 16272
L40991 16291
L41010 16310
L41029 16347
L41029 16441
L41010 16479
L40991 16497
L40954 16516
L40841 16516
L40804 16497
L40785 16479
" />
<path d="M47874 20330
L47874 20555
" />
<path d="M47874 20443
L47481 20443
L47537 20480
L47574 20518
L47593 20555
" />
<path d="M47481 20087
L47481 20049
L47500 20012
L47518 19993
L47556 19974
L47631 19955
L47724 19955
L47799 19974
L47837 19993
L47856 20012
L47874 20049
L47874 20087
L47856 20124
L47837 20143
L47799 20162
L47724 20180
L47631 20180
L47556 20162
L47518 20143
L47500 20124
L47481 20087
" />
<path d="M47874 19787
L47481 19787
" />
<path d="M47874 19562
L47649 19730
" />
<path d="M47481 19562
L47706 19787
" />
<path d="M41076 23406
L41076 23012
L41226 23012
L41263 23031
L41282 23050
L41301 23087
L41301 23143
L41282 23181
L41263 23200
L41226 23218
L41076 23218
" />
<path d="M41451 23293
L41638 23293
" />
<path d="M41413 23406
L41544 23012
L41676 23406
" />
<path d="M41788 23050
L41807 23031
L41844 23012
L41938 23012
L41976 23031
L41994 23050
L42013 23087
L42013 23125
L41994 23181
L41769 23406
L42013 23406
" />
<path d="M55355 20330
L55355 20555
" />
<path d="M55355 20443
L54961 20443
L55017 20480
L55055 20518
L55074 20555
" />
<path d="M54961 20087
L54961 20049
L54980 20012
L54999 19993
L55036 19974
L55111 19955
L55205 19955
L55280 19974
L55317 19993
L55336 20012
L55355 20049
L55355 20087
L55336 20124
L55317 20143
L55280 20162
L55205 20180
L55111 20180
L55036 20162
L54999 20143
L54980 20124
L54961 20087
" />
<path d="M55355 19787
L54961 19787
" />
<path d="M55355 19562
L55130 19730
" />
<path d="M54961 19562
L55186 19787
" />
<path d="M53083 16516
L53083 16122
L53233 16122
L53271 16141
L53290 16160
L53308 16197
L53308 16254
L53290 16291
L53271 16310
L53233 16329
L53083 16329
" />
<path d="M53458 16404
L53646 16404
" />
<path d="M53421 16516
L53552 16122
L53683 16516
" />
<path d="M54021 16516
L53796 16516
" />
<path d="M53908 16516
L53908 16122
L53871 16179
L53833 16216
L53796 16235
" />
<path d="M53780 13244
L53780 13469
" />
<path d="M53780 13356
L53386 13356
L53443 13394
L53480 13431
L53499 13469
" />
<path d="M53386 13000
L53386 12963
L53405 12925
L53424 12906
L53461 12888
L53536 12869
L53630 12869
L53705 12888
L53742 12906
L53761 12925
L53780 12963
L53780 13000
L53761 13038
L53742 13056
L53705 13075
L53630 13094
L53536 13094
L53461 13075
L53424 13056
L53405 13038
L53386 13000
" />
<path d="M53780 12700
L53386 12700
" />
<path d="M53780 12475
L53555 12644
" />
<path d="M53386 12475
L53611 12700
" />
<path d="M51949 21241
L52080 21634
L52212 21241
" />
<path d="M52399 21634
L52362 21616
L52343 21597
L52324 21559
L52324 21447
L52343 21409
L52362 21391
L52399 21372
L52455 21372
L52493 21391
L52512 21409
L52530 21447
L52530 21559
L52512 21597
L52493 21616
L52455 21634
L52399 21634
" />
<path d="M52755 21634
L52718 21616
L52699 21578
L52699 21241
" />
<path d="M23125 34528
L23350 34528
" />
<path d="M23237 34922
L23237 34528
" />
<path d="M23650 34659
L23650 34922
" />
<path d="M23556 34509
L23462 34790
L23706 34790
" />
<path d="M22928 32796
L23153 32796
" />
<path d="M23040 33189
L23040 32796
" />
<path d="M23284 33189
L23284 32796
L23434 32796
L23472 32814
L23490 32833
L23509 32871
L23509 32927
L23490 32964
L23472 32983
L23434 33002
L23284 33002
" />
<path d="M23884 33189
L23659 33189
" />
<path d="M23772 33189
L23772 32796
L23734 32852
L23697 32889
L23659 32908
" />
<path d="M21196 34607
L21421 34607
" />
<path d="M21308 35000
L21308 34607
" />
<path d="M21533 34644
L21552 34625
L21589 34607
L21683 34607
L21721 34625
L21739 34644
L21758 34682
L21758 34719
L21739 34775
L21514 35000
L21758 35000
" />
<path d="M20999 32874
L21224 32874
" />
<path d="M21111 33268
L21111 32874
" />
<path d="M21355 33268
L21355 32874
L21505 32874
L21542 32893
L21561 32912
L21580 32949
L21580 33006
L21561 33043
L21542 33062
L21505 33081
L21355 33081
" />
<path d="M21730 32912
L21749 32893
L21786 32874
L21880 32874
L21917 32893
L21936 32912
L21955 32949
L21955 32987
L21936 33043
L21711 33268
L21955 33268
" />
<path d="M19385 34528
L19610 34528
" />
<path d="M19497 34922
L19497 34528
" />
<path d="M19928 34528
L19741 34528
L19722 34715
L19741 34697
L19778 34678
L19872 34678
L19910 34697
L19928 34715
L19947 34753
L19947 34847
L19928 34884
L19910 34903
L19872 34922
L19778 34922
L19741 34903
L19722 34884
" />
<path d="M19188 32796
L19413 32796
" />
<path d="M19300 33189
L19300 32796
" />
<path d="M19544 33189
L19544 32796
L19694 32796
L19731 32814
L19750 32833
L19769 32871
L19769 32927
L19750 32964
L19731 32983
L19694 33002
L19544 33002
" />
<path d="M19900 32796
L20144 32796
L20013 32946
L20069 32946
L20106 32964
L20125 32983
L20144 33021
L20144 33114
L20125 33152
L20106 33171
L20069 33189
L19956 33189
L19919 33171
L19900 33152
" />
<path d="M21653 29016
L21653 28622
" />
<path d="M21841 29016
L21841 28622
L22065 29016
L22065 28622
" />
<path d="M22440 28622
L22253 28622
L22234 28810
L22253 28791
L22290 28772
L22384 28772
L22422 28791
L22440 28810
L22459 28847
L22459 28941
L22440 28979
L22422 28997
L22384 29016
L22290 29016
L22253 28997
L22234 28979
" />
<path d="M21550 26890
L21775 26890
" />
<path d="M21662 27284
L21662 26890
" />
<path d="M21906 27284
L21906 26890
L22056 26890
L22094 26909
L22112 26928
L22131 26965
L22131 27021
L22112 27059
L22094 27078
L22056 27096
L21906 27096
" />
<path d="M22469 27021
L22469 27284
" />
<path d="M22375 26871
L22281 27153
L22525 27153
" />
<path d="M23675 29023
L23675 28630
" />
<path d="M23863 29023
L23863 28630
L24088 29023
L24088 28630
" />
<path d="M24444 28761
L24444 29023
" />
<path d="M24350 28611
L24256 28892
L24500 28892
" />
<path d="M23572 26897
L23797 26897
" />
<path d="M23685 27291
L23685 26897
" />
<path d="M23928 27291
L23928 26897
L24078 26897
L24116 26916
L24135 26935
L24153 26972
L24153 27029
L24135 27066
L24116 27085
L24078 27104
L23928 27104
" />
<path d="M24510 26897
L24322 26897
L24303 27085
L24322 27066
L24360 27047
L24453 27047
L24491 27066
L24510 27085
L24528 27122
L24528 27216
L24510 27254
L24491 27272
L24453 27291
L24360 27291
L24322 27272
L24303 27254
" />
<path d="M53352 25709
L53314 25690
L53295 25672
L53277 25634
L53277 25522
L53295 25484
L53314 25465
L53352 25447
L53408 25447
L53445 25465
L53464 25484
L53483 25522
L53483 25634
L53464 25672
L53445 25690
L53408 25709
L53352 25709
" />
<path d="M53820 25447
L53820 25709
" />
<path d="M53652 25447
L53652 25653
L53670 25690
L53708 25709
L53764 25709
L53802 25690
L53820 25672
" />
<path d="M53952 25447
L54101 25447
" />
<path d="M54008 25315
L54008 25653
L54026 25690
L54064 25709
L54101 25709
" />
<path d="M54439 25709
L54214 25709
" />
<path d="M54326 25709
L54326 25315
L54289 25372
L54251 25409
L54214 25428
" />
<path d="M53361 23583
L53586 23583
" />
<path d="M53473 23977
L53473 23583
" />
<path d="M53717 23977
L53717 23583
L53867 23583
L53905 23602
L53923 23621
L53942 23658
L53942 23714
L53923 23752
L53905 23771
L53867 23789
L53717 23789
" />
<path d="M54073 23583
L54336 23583
L54167 23977
" />
<path d="M24971 34715
L25028 34734
L25046 34753
L25065 34790
L25065 34847
L25046 34884
L25028 34903
L24990 34922
L24840 34922
L24840 34528
L24971 34528
L25009 34547
L25028 34565
L25046 34603
L25046 34640
L25028 34678
L25009 34697
L24971 34715
L24840 34715
" />
<path d="M25403 34922
L25403 34715
L25384 34678
L25346 34659
L25271 34659
L25234 34678
" />
<path d="M25403 34903
L25365 34922
L25271 34922
L25234 34903
L25215 34865
L25215 34828
L25234 34790
L25271 34772
L25365 34772
L25403 34753
" />
<path d="M25534 34659
L25684 34659
" />
<path d="M25590 34528
L25590 34865
L25609 34903
L25646 34922
L25684 34922
" />
<path d="M25759 34659
L25909 34659
" />
<path d="M25815 34528
L25815 34865
L25834 34903
L25871 34922
L25909 34922
" />
<path d="M26040 34772
L26340 34772
" />
<path d="M26190 34922
L26190 34622
" />
<path d="M25093 32796
L25318 32796
" />
<path d="M25206 33189
L25206 32796
" />
<path d="M25449 33189
L25449 32796
L25599 32796
L25637 32814
L25656 32833
L25674 32871
L25674 32927
L25656 32964
L25637 32983
L25599 33002
L25449 33002
" />
<path d="M25862 33189
L25937 33189
L25974 33171
L25993 33152
L26031 33096
L26049 33021
L26049 32871
L26031 32833
L26012 32814
L25974 32796
L25899 32796
L25862 32814
L25843 32833
L25824 32871
L25824 32964
L25843 33002
L25862 33021
L25899 33039
L25974 33039
L26012 33021
L26031 33002
L26049 32964
" />
<path d="M25510 28897
L25567 28916
L25585 28935
L25604 28972
L25604 29028
L25585 29066
L25567 29085
L25529 29103
L25379 29103
L25379 28710
L25510 28710
L25548 28728
L25567 28747
L25585 28785
L25585 28822
L25567 28860
L25548 28878
L25510 28897
L25379 28897
" />
<path d="M25941 29103
L25941 28897
L25923 28860
L25885 28841
L25810 28841
L25773 28860
" />
<path d="M25941 29085
L25904 29103
L25810 29103
L25773 29085
L25754 29047
L25754 29010
L25773 28972
L25810 28953
L25904 28953
L25941 28935
" />
<path d="M26073 28841
L26223 28841
" />
<path d="M26129 28710
L26129 29047
L26148 29085
L26185 29103
L26223 29103
" />
<path d="M26298 28841
L26448 28841
" />
<path d="M26354 28710
L26354 29047
L26373 29085
L26410 29103
L26448 29103
" />
<path d="M26579 28953
L26879 28953
" />
<path d="M25445 26977
L25670 26977
" />
<path d="M25557 27371
L25557 26977
" />
<path d="M25801 27371
L25801 26977
L25951 26977
L25988 26996
L26007 27015
L26026 27052
L26026 27109
L26007 27146
L25988 27165
L25951 27184
L25801 27184
" />
<path d="M26401 27371
L26176 27371
" />
<path d="M26288 27371
L26288 26977
L26251 27034
L26213 27071
L26176 27090
" />
<path d="M26645 26977
L26682 26977
L26720 26996
L26738 27015
L26757 27052
L26776 27127
L26776 27221
L26757 27296
L26738 27334
L26720 27352
L26682 27371
L26645 27371
L26607 27352
L26588 27334
L26570 27296
L26551 27221
L26551 27127
L26570 27052
L26588 27015
L26607 26996
L26645 26977
" />
<path d="M48518 25177
L48481 25158
L48425 25158
L48368 25177
L48331 25214
L48312 25252
L48293 25327
L48293 25383
L48312 25458
L48331 25495
L48368 25533
L48425 25552
L48462 25552
L48518 25533
L48537 25514
L48537 25383
L48462 25383
" />
<path d="M48706 25552
L48706 25158
L48931 25552
L48931 25158
" />
<path d="M49118 25552
L49118 25158
L49212 25158
L49268 25177
L49306 25214
L49325 25252
L49343 25327
L49343 25383
L49325 25458
L49306 25495
L49268 25533
L49212 25552
L49118 25552
" />
<path d="M48134 23426
L48359 23426
" />
<path d="M48247 23819
L48247 23426
" />
<path d="M48490 23819
L48490 23426
L48640 23426
L48678 23444
L48697 23463
L48715 23501
L48715 23557
L48697 23594
L48678 23613
L48640 23632
L48490 23632
" />
<path d="M49090 23819
L48865 23819
" />
<path d="M48978 23819
L48978 23426
L48940 23482
L48903 23519
L48865 23538
" />
<path d="M49465 23819
L49240 23819
" />
<path d="M49353 23819
L49353 23426
L49315 23482
L49278 23519
L49240 23538
" />
<path d="M50898 28288
L50673 28288
" />
<path d="M50785 28288
L50785 27894
L50748 27950
L50710 27988
L50673 28007
" />
<path d="M51066 28288
L51066 27894
" />
<path d="M51104 28138
L51216 28288
" />
<path d="M51216 28025
L51066 28175
" />
<path d="M49461 27894
L49330 27707
" />
<path d="M49236 27894
L49236 27500
L49386 27500
L49424 27519
L49443 27538
L49461 27575
L49461 27632
L49443 27669
L49424 27688
L49386 27707
L49236 27707
" />
<path d="M49686 27669
L49649 27650
L49630 27632
L49611 27594
L49611 27575
L49630 27538
L49649 27519
L49686 27500
L49761 27500
L49799 27519
L49818 27538
L49836 27575
L49836 27594
L49818 27632
L49799 27650
L49761 27669
L49686 27669
L49649 27688
L49630 27707
L49611 27744
L49611 27819
L49630 27857
L49649 27875
L49686 27894
L49761 27894
L49799 27875
L49818 27857
L49836 27819
L49836 27744
L49818 27707
L49799 27688
L49761 27669
" />
<path d="M36304 38644
L36286 38663
L36229 38682
L36192 38682
L36136 38663
L36098 38625
L36079 38588
L36061 38513
L36061 38457
L36079 38382
L36098 38344
L36136 38307
L36192 38288
L36229 38288
L36286 38307
L36304 38325
" />
<path d="M36529 38682
L36492 38663
L36473 38644
L36454 38607
L36454 38494
L36473 38457
L36492 38438
L36529 38419
L36586 38419
L36623 38438
L36642 38457
L36661 38494
L36661 38607
L36642 38644
L36623 38663
L36586 38682
L36529 38682
" />
<path d="M36829 38419
L36829 38682
" />
<path d="M36829 38457
L36848 38438
L36886 38419
L36942 38419
L36979 38438
L36998 38475
L36998 38682
" />
<path d="M37185 38419
L37185 38682
" />
<path d="M37185 38457
L37204 38438
L37242 38419
L37298 38419
L37335 38438
L37354 38475
L37354 38682
" />
<path d="M37448 38719
L37748 38719
" />
<path d="M37917 38288
L37954 38288
L37992 38307
L38010 38325
L38029 38363
L38048 38438
L38048 38532
L38029 38607
L38010 38644
L37992 38663
L37954 38682
L37917 38682
L37879 38663
L37860 38644
L37842 38607
L37823 38532
L37823 38438
L37842 38363
L37860 38325
L37879 38307
L37917 38288
" />
<path d="M38423 38682
L38198 38682
" />
<path d="M38310 38682
L38310 38288
L38273 38344
L38235 38382
L38198 38400
" />
<path d="M38554 38682
L38760 38419
" />
<path d="M38554 38419
L38760 38682
" />
<path d="M38985 38288
L39023 38288
L39060 38307
L39079 38325
L39098 38363
L39116 38438
L39116 38532
L39098 38607
L39079 38644
L39060 38663
L39023 38682
L38985 38682
L38948 38663
L38929 38644
L38910 38607
L38892 38532
L38892 38438
L38910 38363
L38929 38325
L38948 38307
L38985 38288
" />
<path d="M39454 38288
L39379 38288
L39341 38307
L39323 38325
L39285 38382
L39266 38457
L39266 38607
L39285 38644
L39304 38663
L39341 38682
L39416 38682
L39454 38663
L39473 38644
L39491 38607
L39491 38513
L39473 38475
L39454 38457
L39416 38438
L39341 38438
L39304 38457
L39285 38475
L39266 38513
" />
<path d="M39566 38719
L39866 38719
" />
<path d="M40091 38475
L39960 38475
" />
<path d="M39960 38682
L39960 38288
L40148 38288
" />
<path d="M40448 38663
L40410 38682
L40335 38682
L40298 38663
L40279 38625
L40279 38475
L40298 38438
L40335 38419
L40410 38419
L40448 38438
L40466 38475
L40466 38513
L40279 38550
" />
<path d="M40635 38682
L40635 38419
" />
<path d="M40635 38457
L40654 38438
L40691 38419
L40748 38419
L40785 38438
L40804 38475
L40804 38682
" />
<path d="M40804 38475
L40823 38438
L40860 38419
L40916 38419
L40954 38438
L40973 38475
L40973 38682
" />
<path d="M41329 38682
L41329 38475
L41310 38438
L41272 38419
L41197 38419
L41160 38438
" />
<path d="M41329 38663
L41291 38682
L41197 38682
L41160 38663
L41141 38625
L41141 38588
L41160 38550
L41197 38532
L41291 38532
L41329 38513
" />
<path d="M41572 38682
L41535 38663
L41516 38625
L41516 38288
" />
<path d="M41872 38663
L41835 38682
L41760 38682
L41722 38663
L41704 38625
L41704 38475
L41722 38438
L41760 38419
L41835 38419
L41872 38438
L41891 38475
L41891 38513
L41704 38550
" />
<path d="M36345 37382
L36345 37664
L36326 37720
L36288 37757
L36232 37776
L36195 37776
" />
<path d="M36738 37776
L36513 37776
" />
<path d="M36626 37776
L36626 37382
L36588 37439
L36551 37476
L36513 37495
" />
<path d="M22043 36004
L22287 36004
L22155 36154
L22212 36154
L22249 36173
L22268 36192
L22287 36229
L22287 36323
L22268 36361
L22249 36379
L22212 36398
L22099 36398
L22062 36379
L22043 36361
" />
<path d="M22418 36004
L22662 36004
L22530 36154
L22587 36154
L22624 36173
L22643 36192
L22662 36229
L22662 36323
L22643 36361
L22624 36379
L22587 36398
L22474 36398
L22437 36379
L22418 36361
" />
<path d="M21115 36083
L20984 35896
" />
<path d="M20890 36083
L20890 35689
L21040 35689
L21077 35708
L21096 35727
L21115 35764
L21115 35821
L21096 35858
L21077 35877
L21040 35896
L20890 35896
" />
<path d="M21246 35689
L21509 35689
L21340 36083
" />
<path d="M25630 20330
L25630 20555
" />
<path d="M25630 20443
L25237 20443
L25293 20480
L25330 20518
L25349 20555
" />
<path d="M25237 20087
L25237 20049
L25255 20012
L25274 19993
L25312 19974
L25387 19955
L25480 19955
L25555 19974
L25593 19993
L25612 20012
L25630 20049
L25630 20087
L25612 20124
L25593 20143
L25555 20162
L25480 20180
L25387 20180
L25312 20162
L25274 20143
L25255 20124
L25237 20087
" />
<path d="M25630 19787
L25237 19787
" />
<path d="M25630 19562
L25405 19730
" />
<path d="M25237 19562
L25462 19787
" />
<path d="M18213 22619
L18213 22225
L18363 22225
L18400 22244
L18419 22262
L18438 22300
L18438 22356
L18419 22394
L18400 22412
L18363 22431
L18213 22431
" />
<path d="M18738 22412
L18794 22431
L18813 22450
L18832 22487
L18832 22544
L18813 22581
L18794 22600
L18757 22619
L18607 22619
L18607 22225
L18738 22225
L18775 22244
L18794 22262
L18813 22300
L18813 22337
L18794 22375
L18775 22394
L18738 22412
L18607 22412
" />
<path d="M19206 22619
L18982 22619
" />
<path d="M19094 22619
L19094 22225
L19056 22281
L19019 22319
L18982 22337
" />
<path d="M24056 13244
L24056 13469
" />
<path d="M24056 13356
L23662 13356
L23718 13394
L23756 13431
L23774 13469
" />
<path d="M23662 13000
L23662 12963
L23681 12925
L23699 12906
L23737 12888
L23812 12869
L23906 12869
L23981 12888
L24018 12906
L24037 12925
L24056 12963
L24056 13000
L24037 13038
L24018 13056
L23981 13075
L23906 13094
L23812 13094
L23737 13075
L23699 13056
L23681 13038
L23662 13000
" />
<path d="M24056 12700
L23662 12700
" />
<path d="M24056 12475
L23831 12644
" />
<path d="M23662 12475
L23887 12700
" />
<path d="M17622 16713
L17622 16319
L17772 16319
L17810 16338
L17829 16357
L17847 16394
L17847 16451
L17829 16488
L17810 16507
L17772 16526
L17622 16526
" />
<path d="M18147 16507
L18203 16526
L18222 16544
L18241 16582
L18241 16638
L18222 16676
L18203 16694
L18166 16713
L18016 16713
L18016 16319
L18147 16319
L18185 16338
L18203 16357
L18222 16394
L18222 16432
L18203 16469
L18185 16488
L18147 16507
L18016 16507
" />
<path d="M18485 16319
L18522 16319
L18560 16338
L18578 16357
L18597 16394
L18616 16469
L18616 16563
L18597 16638
L18578 16676
L18560 16694
L18522 16713
L18485 16713
L18447 16694
L18428 16676
L18410 16638
L18391 16563
L18391 16469
L18410 16394
L18428 16357
L18447 16338
L18485 16319
" />
<path d="M37107 32443
L37107 32518
L37125 32556
L37144 32575
L37200 32612
L37275 32631
L37425 32631
L37463 32612
L37482 32593
L37500 32556
L37500 32481
L37482 32443
L37463 32425
L37425 32406
L37332 32406
L37294 32425
L37275 32443
L37257 32481
L37257 32556
L37275 32593
L37294 32612
L37332 32631
" />
<path d="M37500 32237
L37107 32237
L37500 32012
L37107 32012
" />
<path d="M37500 31618
L37500 31843
" />
<path d="M37500 31731
L37107 31731
L37163 31768
L37200 31806
L37219 31843
" />
<path d="M37107 31487
L37107 31244
L37257 31375
L37257 31319
L37275 31281
L37294 31262
L37332 31244
L37425 31244
L37463 31262
L37482 31281
L37500 31319
L37500 31431
L37482 31468
L37463 31487
" />
<path d="M37275 31019
L37257 31056
L37238 31075
L37200 31094
L37182 31094
L37144 31075
L37125 31056
L37107 31019
L37107 30944
L37125 30906
L37144 30887
L37182 30869
L37200 30869
L37238 30887
L37257 30906
L37275 30944
L37275 31019
L37294 31056
L37313 31075
L37350 31094
L37425 31094
L37463 31075
L37482 31056
L37500 31019
L37500 30944
L37482 30906
L37463 30887
L37425 30869
L37350 30869
L37313 30887
L37294 30906
L37275 30944
" />
<path d="M34717 32050
L35036 32050
L35073 32031
L35092 32012
L35111 31975
L35111 31900
L35092 31862
L35073 31843
L35036 31825
L34717 31825
" />
<path d="M34717 31675
L34717 31431
L34867 31562
L34867 31506
L34886 31468
L34905 31450
L34942 31431
L35036 31431
L35073 31450
L35092 31468
L35111 31506
L35111 31618
L35092 31656
L35073 31675
" />
<path d="M20363 30414
L20138 30414
" />
<path d="M20251 30414
L20251 30020
L20213 30076
L20176 30114
L20138 30133
" />
<path d="M20607 30020
L20644 30020
L20682 30039
L20701 30058
L20719 30095
L20738 30170
L20738 30264
L20719 30339
L20701 30376
L20682 30395
L20644 30414
L20607 30414
L20569 30395
L20551 30376
L20532 30339
L20513 30264
L20513 30170
L20532 30095
L20551 30058
L20569 30039
L20607 30020
" />
<path d="M20982 30020
L21019 30020
L21057 30039
L21076 30058
L21094 30095
L21113 30170
L21113 30264
L21094 30339
L21076 30376
L21057 30395
L21019 30414
L20982 30414
L20944 30395
L20926 30376
L20907 30339
L20888 30264
L20888 30170
L20907 30095
L20926 30058
L20944 30039
L20982 30020
" />
<path d="M21451 30151
L21451 30414
" />
<path d="M21282 30151
L21282 30358
L21301 30395
L21338 30414
L21394 30414
L21432 30395
L21451 30376
" />
<path d="M21544 30451
L21844 30451
" />
<path d="M22107 30395
L22069 30414
L21994 30414
L21957 30395
L21938 30376
L21919 30339
L21919 30226
L21938 30189
L21957 30170
L21994 30151
L22069 30151
L22107 30170
" />
<path d="M22275 30414
L22275 30020
" />
<path d="M22444 30414
L22444 30208
L22425 30170
L22388 30151
L22332 30151
L22294 30170
L22275 30189
" />
<path d="M22782 30395
L22744 30414
L22669 30414
L22632 30395
L22613 30358
L22613 30208
L22632 30170
L22669 30151
L22744 30151
L22782 30170
L22800 30208
L22800 30245
L22613 30283
" />
<path d="M22969 30414
L22969 30151
" />
<path d="M22969 30189
L22988 30170
L23025 30151
L23082 30151
L23119 30170
L23138 30208
L23138 30414
" />
<path d="M23138 30208
L23157 30170
L23194 30151
L23250 30151
L23288 30170
L23307 30208
L23307 30414
" />
<path d="M24707 30203
L24726 30222
L24745 30278
L24745 30315
L24726 30372
L24688 30409
L24651 30428
L24576 30447
L24520 30447
L24445 30428
L24407 30409
L24370 30372
L24351 30315
L24351 30278
L24370 30222
L24388 30203
" />
<path d="M24745 29828
L24745 30053
" />
<path d="M24745 29940
L24351 29940
L24407 29978
L24445 30015
L24463 30053
" />
<path d="M53406 35292
L53406 35517
" />
<path d="M53406 35404
L53012 35404
L53068 35442
L53106 35479
L53125 35517
" />
<path d="M53012 35048
L53012 35011
L53031 34973
L53050 34955
L53087 34936
L53162 34917
L53256 34917
L53331 34936
L53368 34955
L53387 34973
L53406 35011
L53406 35048
L53387 35086
L53368 35104
L53331 35123
L53256 35142
L53162 35142
L53087 35123
L53050 35104
L53031 35086
L53012 35048
" />
<path d="M53143 34580
L53406 34580
" />
<path d="M53143 34748
L53350 34748
L53387 34730
L53406 34692
L53406 34636
L53387 34598
L53368 34580
" />
<path d="M54668 35006
L54686 35025
L54705 35081
L54705 35119
L54686 35175
L54649 35212
L54611 35231
L54536 35250
L54480 35250
L54405 35231
L54368 35212
L54330 35175
L54311 35119
L54311 35081
L54330 35025
L54349 35006
" />
<path d="M54443 34669
L54705 34669
" />
<path d="M54293 34762
L54574 34856
L54574 34612
" />
<path d="M53485 32930
L53485 33155
" />
<path d="M53485 33042
L53091 33042
L53147 33080
L53185 33117
L53203 33155
" />
<path d="M53091 32686
L53091 32649
L53110 32611
L53128 32592
L53166 32574
L53241 32555
L53335 32555
L53410 32574
L53447 32592
L53466 32611
L53485 32649
L53485 32686
L53466 32724
L53447 32742
L53410 32761
L53335 32780
L53241 32780
L53166 32761
L53128 32742
L53110 32724
L53091 32686
" />
<path d="M53222 32217
L53485 32217
" />
<path d="M53222 32386
L53428 32386
L53466 32367
L53485 32330
L53485 32274
L53466 32236
L53447 32217
" />
<path d="M54668 32644
L54686 32663
L54705 32719
L54705 32756
L54686 32813
L54649 32850
L54611 32869
L54536 32888
L54480 32888
L54405 32869
L54368 32850
L54330 32813
L54311 32756
L54311 32719
L54330 32663
L54349 32644
" />
<path d="M54311 32288
L54311 32475
L54499 32494
L54480 32475
L54461 32438
L54461 32344
L54480 32306
L54499 32288
L54536 32269
L54630 32269
L54668 32288
L54686 32306
L54705 32344
L54705 32438
L54686 32475
L54668 32494
" />
<path d="M54351 28333
L54351 28558
" />
<path d="M54351 28445
L53957 28445
L54013 28483
L54051 28520
L54070 28558
" />
<path d="M53957 28089
L53957 28052
L53976 28014
L53995 27995
L54032 27977
L54107 27958
L54201 27958
L54276 27977
L54313 27995
L54332 28014
L54351 28052
L54351 28089
L54332 28127
L54313 28145
L54276 28164
L54201 28183
L54107 28183
L54032 28164
L53995 28145
L53976 28127
L53957 28089
" />
<path d="M53957 27714
L53957 27677
L53976 27639
L53995 27620
L54032 27602
L54107 27583
L54201 27583
L54276 27602
L54313 27620
L54332 27639
L54351 27677
L54351 27714
L54332 27752
L54313 27770
L54276 27789
L54201 27808
L54107 27808
L54032 27789
L53995 27770
L53976 27752
L53957 27714
" />
<path d="M54351 27189
L54163 27320
" />
<path d="M54351 27414
L53957 27414
L53957 27264
L53976 27227
L53995 27208
L54032 27189
L54088 27189
L54126 27208
L54145 27227
L54163 27264
L54163 27414
" />
<path d="M53957 28963
L53770 29094
" />
<path d="M53957 29188
L53563 29188
L53563 29038
L53582 29000
L53601 28982
L53638 28963
L53695 28963
L53732 28982
L53751 29000
L53770 29038
L53770 29188
" />
<path d="M53957 28775
L53957 28700
L53938 28663
L53920 28644
L53863 28607
L53788 28588
L53638 28588
L53601 28607
L53582 28625
L53563 28663
L53563 28738
L53582 28775
L53601 28794
L53638 28813
L53732 28813
L53770 28794
L53788 28775
L53807 28738
L53807 28663
L53788 28625
L53770 28607
L53732 28588
" />
<path d="M49999 31300
L49812 31300
L49812 30906
" />
<path d="M50131 31300
L50131 30906
L50262 31187
L50393 30906
L50393 31300
" />
<path d="M50543 30906
L50787 30906
L50655 31056
L50712 31056
L50749 31075
L50768 31093
L50787 31131
L50787 31225
L50768 31262
L50749 31281
L50712 31300
L50599 31300
L50562 31281
L50543 31262
" />
<path d="M51143 30906
L50955 30906
L50937 31093
L50955 31075
L50993 31056
L51087 31056
L51124 31075
L51143 31093
L51162 31131
L51162 31225
L51143 31262
L51124 31281
L51087 31300
L50993 31300
L50955 31281
L50937 31262
" />
<path d="M51387 31075
L51349 31056
L51330 31037
L51312 31000
L51312 30981
L51330 30943
L51349 30925
L51387 30906
L51462 30906
L51499 30925
L51518 30943
L51537 30981
L51537 31000
L51518 31037
L51499 31056
L51462 31075
L51387 31075
L51349 31093
L51330 31112
L51312 31150
L51312 31225
L51330 31262
L51349 31281
L51387 31300
L51462 31300
L51499 31281
L51518 31262
L51537 31225
L51537 31150
L51518 31112
L51499 31093
L51462 31075
" />
<path d="M50365 33323
L50365 33642
L50384 33679
L50402 33698
L50440 33717
L50515 33717
L50552 33698
L50571 33679
L50590 33642
L50590 33323
" />
<path d="M50946 33455
L50946 33717
" />
<path d="M50852 33305
L50759 33586
L51002 33586
" />
<path d="M43635 26121
L43653 26102
L43691 26083
L43785 26083
L43822 26102
L43841 26121
L43860 26158
L43860 26196
L43841 26252
L43616 26477
L43860 26477
" />
<path d="M44010 26121
L44028 26102
L44066 26083
L44160 26083
L44197 26102
L44216 26121
L44235 26158
L44235 26196
L44216 26252
L43991 26477
L44235 26477
" />
<path d="M44403 26477
L44403 26083
" />
<path d="M44441 26327
L44553 26477
" />
<path d="M44553 26214
L44403 26364
" />
<path d="M42739 26162
L42607 25974
" />
<path d="M42514 26162
L42514 25768
L42664 25768
L42701 25787
L42720 25806
L42739 25843
L42739 25899
L42720 25937
L42701 25956
L42664 25974
L42514 25974
" />
<path d="M43113 26162
L42889 26162
" />
<path d="M43001 26162
L43001 25768
L42964 25824
L42926 25862
L42889 25881
" />
<path d="M43357 25768
L43395 25768
L43432 25787
L43451 25806
L43470 25843
L43488 25918
L43488 26012
L43470 26087
L43451 26124
L43432 26143
L43395 26162
L43357 26162
L43320 26143
L43301 26124
L43282 26087
L43263 26012
L43263 25918
L43282 25843
L43301 25806
L43320 25787
L43357 25768
" />
<path d="M43556 27459
L43575 27440
L43612 27422
L43706 27422
L43743 27440
L43762 27459
L43781 27497
L43781 27534
L43762 27590
L43537 27815
L43781 27815
" />
<path d="M43931 27459
L43950 27440
L43987 27422
L44081 27422
L44118 27440
L44137 27459
L44156 27497
L44156 27534
L44137 27590
L43912 27815
L44156 27815
" />
<path d="M44325 27815
L44325 27422
" />
<path d="M44362 27665
L44475 27815
" />
<path d="M44475 27553
L44325 27703
" />
<path d="M42660 27422
L42529 27234
" />
<path d="M42435 27422
L42435 27028
L42585 27028
L42622 27047
L42641 27065
L42660 27103
L42660 27159
L42641 27197
L42622 27215
L42585 27234
L42435 27234
" />
<path d="M43035 27422
L42810 27422
" />
<path d="M42922 27422
L42922 27028
L42885 27084
L42847 27122
L42810 27140
" />
<path d="M43410 27422
L43185 27422
" />
<path d="M43297 27422
L43297 27028
L43260 27084
L43222 27122
L43185 27140
" />
<path d="M28454 24587
L28229 24587
" />
<path d="M28341 24587
L28341 24193
L28304 24250
L28266 24287
L28229 24306
" />
<path d="M28697 24193
L28735 24193
L28772 24212
L28791 24231
L28810 24268
L28829 24343
L28829 24437
L28810 24512
L28791 24550
L28772 24568
L28735 24587
L28697 24587
L28660 24568
L28641 24550
L28622 24512
L28604 24437
L28604 24343
L28622 24268
L28641 24231
L28660 24212
L28697 24193
" />
<path d="M29072 24193
L29110 24193
L29147 24212
L29166 24231
L29185 24268
L29204 24343
L29204 24437
L29185 24512
L29166 24550
L29147 24568
L29110 24587
L29072 24587
L29035 24568
L29016 24550
L28997 24512
L28979 24437
L28979 24343
L28997 24268
L29016 24231
L29035 24212
L29072 24193
" />
<path d="M29541 24325
L29541 24587
" />
<path d="M29372 24325
L29372 24531
L29391 24568
L29429 24587
L29485 24587
L29522 24568
L29541 24550
" />
<path d="M30197 24568
L30160 24587
L30085 24587
L30047 24568
L30029 24550
L30010 24512
L30010 24400
L30029 24362
L30047 24343
L30085 24325
L30160 24325
L30197 24343
" />
<path d="M30366 24587
L30366 24193
" />
<path d="M30535 24587
L30535 24381
L30516 24343
L30479 24325
L30422 24325
L30385 24343
L30366 24362
" />
<path d="M30872 24568
L30835 24587
L30760 24587
L30722 24568
L30703 24531
L30703 24381
L30722 24343
L30760 24325
L30835 24325
L30872 24343
L30891 24381
L30891 24418
L30703 24456
" />
<path d="M31060 24587
L31060 24325
" />
<path d="M31060 24362
L31078 24343
L31116 24325
L31172 24325
L31210 24343
L31228 24381
L31228 24587
" />
<path d="M31228 24381
L31247 24343
L31285 24325
L31341 24325
L31378 24343
L31397 24381
L31397 24587
" />
<path d="M29757 25809
L29738 25828
L29682 25847
L29644 25847
L29588 25828
L29550 25791
L29532 25753
L29513 25678
L29513 25622
L29532 25547
L29550 25509
L29588 25472
L29644 25453
L29682 25453
L29738 25472
L29757 25491
" />
<path d="M30094 25453
L30019 25453
L29982 25472
L29963 25491
L29925 25547
L29907 25622
L29907 25772
L29925 25809
L29944 25828
L29982 25847
L30057 25847
L30094 25828
L30113 25809
L30132 25772
L30132 25678
L30113 25641
L30094 25622
L30057 25603
L29982 25603
L29944 25622
L29925 25641
L29907 25678
" />
<path d="M28157 27658
L28194 27658
L28232 27677
L28250 27695
L28269 27733
L28288 27808
L28288 27902
L28269 27977
L28250 28014
L28232 28033
L28194 28052
L28157 28052
L28119 28033
L28100 28014
L28082 27977
L28063 27902
L28063 27808
L28082 27733
L28100 27695
L28119 27677
L28157 27658
" />
<path d="M28457 28014
L28475 28033
L28457 28052
L28438 28033
L28457 28014
L28457 28052
" />
<path d="M28850 28052
L28625 28052
" />
<path d="M28738 28052
L28738 27658
L28700 27714
L28663 27752
L28625 27770
" />
<path d="M29188 27789
L29188 28052
" />
<path d="M29019 27789
L29019 27995
L29038 28033
L29075 28052
L29131 28052
L29169 28033
L29188 28014
" />
<path d="M29844 28033
L29806 28052
L29731 28052
L29694 28033
L29675 28014
L29656 27977
L29656 27864
L29675 27827
L29694 27808
L29731 27789
L29806 27789
L29844 27808
" />
<path d="M30163 28033
L30125 28052
L30050 28052
L30013 28033
L29994 27995
L29994 27845
L30013 27808
L30050 27789
L30125 27789
L30163 27808
L30181 27845
L30181 27883
L29994 27920
" />
<path d="M30350 28052
L30350 27789
" />
<path d="M30350 27864
L30369 27827
L30388 27808
L30425 27789
L30463 27789
" />
<path d="M30763 28052
L30763 27845
L30744 27808
L30706 27789
L30631 27789
L30594 27808
" />
<path d="M30763 28033
L30725 28052
L30631 28052
L30594 28033
L30575 27995
L30575 27958
L30594 27920
L30631 27902
L30725 27902
L30763 27883
" />
<path d="M30950 28052
L30950 27789
" />
<path d="M30950 27827
L30969 27808
L31006 27789
L31062 27789
L31100 27808
L31119 27845
L31119 28052
" />
<path d="M31119 27845
L31137 27808
L31175 27789
L31231 27789
L31269 27808
L31287 27845
L31287 28052
" />
</g>
<g style="fill:#000000; fill-opacity:0.0; 
stroke:#000000; stroke-width:35.4331; stroke-opacity:1; 
stroke-linecap:round; stroke-linejoin:round;">
<path d="M29625 27328
L29614 27339
L29580 27350
L29558 27350
L29524 27339
L29502 27317
L29491 27294
L29479 27249
L29479 27215
L29491 27170
L29502 27148
L29524 27125
L29558 27114
L29580 27114
L29614 27125
L29625 27137
" />
<path d="M29704 27114
L29862 27114
L29760 27350
" />
</g>
<g style="fill:#000000; fill-opacity:0.0; 
stroke:#000000; stroke-width:59.0551; stroke-opacity:1; 
stroke-linecap:round; stroke-linejoin:round;">
<path d="M43747 33800
L43785 33800
L43822 33818
L43841 33837
L43860 33875
L43878 33950
L43878 34043
L43860 34118
L43841 34156
L43822 34175
L43785 34193
L43747 34193
L43710 34175
L43691 34156
L43672 34118
L43653 34043
L43653 33950
L43672 33875
L43691 33837
L43710 33818
L43747 33800
" />
<path d="M44047 34156
L44066 34175
L44047 34193
L44028 34175
L44047 34156
L44047 34193
" />
<path d="M44441 34193
L44216 34193
" />
<path d="M44328 34193
L44328 33800
L44291 33856
L44253 33893
L44216 33912
" />
<path d="M44778 33931
L44778 34193
" />
<path d="M44610 33931
L44610 34137
L44628 34175
L44666 34193
L44722 34193
L44760 34175
L44778 34156
" />
<path d="M45434 34175
L45397 34193
L45322 34193
L45284 34175
L45266 34156
L45247 34118
L45247 34006
L45266 33968
L45284 33950
L45322 33931
L45397 33931
L45434 33950
" />
<path d="M45753 34175
L45716 34193
L45641 34193
L45603 34175
L45584 34137
L45584 33987
L45603 33950
L45641 33931
L45716 33931
L45753 33950
L45772 33987
L45772 34025
L45584 34062
" />
<path d="M45941 34193
L45941 33931
" />
<path d="M45941 34006
L45959 33968
L45978 33950
L46016 33931
L46053 33931
" />
<path d="M46353 34193
L46353 33987
L46334 33950
L46297 33931
L46222 33931
L46184 33950
" />
<path d="M46353 34175
L46316 34193
L46222 34193
L46184 34175
L46166 34137
L46166 34100
L46184 34062
L46222 34043
L46316 34043
L46353 34025
" />
<path d="M46541 34193
L46541 33931
" />
<path d="M46541 33968
L46559 33950
L46597 33931
L46653 33931
L46691 33950
L46709 33987
L46709 34193
" />
<path d="M46709 33987
L46728 33950
L46766 33931
L46822 33931
L46859 33950
L46878 33987
L46878 34193
" />
</g>
<g style="fill:#000000; fill-opacity:0.0; 
stroke:#000000; stroke-width:35.4331; stroke-opacity:1; 
stroke-linecap:round; stroke-linejoin:round;">
<path d="M45177 33548
L45165 33560
L45132 33571
L45109 33571
L45075 33560
L45053 33537
L45042 33515
L45030 33470
L45030 33436
L45042 33391
L45053 33368
L45075 33346
L45109 33335
L45132 33335
L45165 33346
L45177 33357
" />
<path d="M45267 33357
L45278 33346
L45300 33335
L45357 33335
L45379 33346
L45390 33357
L45402 33380
L45402 33402
L45390 33436
L45255 33571
L45402 33571
" />
</g>
<g style="fill:#000000; fill-opacity:0.0; 
stroke:#000000; stroke-width:59.0551; stroke-opacity:1; 
stroke-linecap:round; stroke-linejoin:round;">
<path d="M39469 32310
L39469 32535
" />
<path d="M39469 32423
L39075 32423
L39131 32460
L39169 32498
L39188 32535
" />
<path d="M39075 32066
L39075 32029
L39094 31991
L39113 31973
L39150 31954
L39225 31935
L39319 31935
L39394 31954
L39431 31973
L39450 31991
L39469 32029
L39469 32066
L39450 32104
L39431 32123
L39394 32141
L39319 32160
L39225 32160
L39150 32141
L39113 32123
L39094 32104
L39075 32066
" />
<path d="M39075 31691
L39075 31654
L39094 31616
L39113 31598
L39150 31579
L39225 31560
L39319 31560
L39394 31579
L39431 31598
L39450 31616
L39469 31654
L39469 31691
L39450 31729
L39431 31748
L39394 31766
L39319 31785
L39225 31785
L39150 31766
L39113 31748
L39094 31729
L39075 31691
" />
<path d="M39206 31392
L39469 31392
" />
<path d="M39244 31392
L39225 31373
L39206 31335
L39206 31279
L39225 31242
L39263 31223
L39469 31223
" />
</g>
<g style="fill:#000000; fill-opacity:0.0; 
stroke:#000000; stroke-width:35.4331; stroke-opacity:1; 
stroke-linecap:round; stroke-linejoin:round;">
<path d="M38745 31909
L38757 31920
L38768 31954
L38768 31976
L38757 32010
L38734 32033
L38712 32044
L38667 32055
L38633 32055
L38588 32044
L38565 32033
L38543 32010
L38532 31976
L38532 31954
L38543 31920
L38554 31909
" />
<path d="M38633 31774
L38622 31796
L38610 31808
L38588 31819
L38577 31819
L38554 31808
L38543 31796
L38532 31774
L38532 31729
L38543 31706
L38554 31695
L38577 31684
L38588 31684
L38610 31695
L38622 31706
L38633 31729
L38633 31774
L38644 31796
L38655 31808
L38678 31819
L38723 31819
L38745 31808
L38757 31796
L38768 31774
L38768 31729
L38757 31706
L38745 31695
L38723 31684
L38678 31684
L38655 31695
L38644 31706
L38633 31729
" />
</g>
<g style="fill:#000000; fill-opacity:0.0; 
stroke:#000000; stroke-width:59.0551; stroke-opacity:1; 
stroke-linecap:round; stroke-linejoin:round;">
<path d="M47797 35926
L47572 35926
" />
<path d="M47684 35926
L47684 35532
L47647 35588
L47609 35626
L47572 35644
" />
<path d="M48040 35532
L48078 35532
L48115 35551
L48134 35569
L48153 35607
L48172 35682
L48172 35776
L48153 35851
L48134 35888
L48115 35907
L48078 35926
L48040 35926
L48003 35907
L47984 35888
L47965 35851
L47947 35776
L47947 35682
L47965 35607
L47984 35569
L48003 35551
L48040 35532
" />
<path d="M48415 35532
L48453 35532
L48490 35551
L48509 35569
L48528 35607
L48547 35682
L48547 35776
L48528 35851
L48509 35888
L48490 35907
L48453 35926
L48415 35926
L48378 35907
L48359 35888
L48340 35851
L48322 35776
L48322 35682
L48340 35607
L48359 35569
L48378 35551
L48415 35532
" />
<path d="M48790 35532
L48828 35532
L48865 35551
L48884 35569
L48903 35607
L48922 35682
L48922 35776
L48903 35851
L48884 35888
L48865 35907
L48828 35926
L48790 35926
L48753 35907
L48734 35888
L48715 35851
L48697 35776
L48697 35682
L48715 35607
L48734 35569
L48753 35551
L48790 35532
" />
<path d="M49090 35663
L49090 36057
" />
<path d="M49090 35682
L49128 35663
L49203 35663
L49240 35682
L49259 35701
L49278 35738
L49278 35851
L49259 35888
L49240 35907
L49203 35926
L49128 35926
L49090 35907
" />
</g>
<g style="fill:#000000; fill-opacity:0.0; 
stroke:#000000; stroke-width:35.4331; stroke-opacity:1; 
stroke-linecap:round; stroke-linejoin:round;">
<path d="M49271 36501
L49260 36512
L49226 36524
L49204 36524
L49170 36512
L49147 36490
L49136 36467
L49125 36422
L49125 36389
L49136 36344
L49147 36321
L49170 36299
L49204 36287
L49226 36287
L49260 36299
L49271 36310
" />
<path d="M49384 36524
L49429 36524
L49451 36512
L49462 36501
L49485 36467
L49496 36422
L49496 36332
L49485 36310
L49474 36299
L49451 36287
L49406 36287
L49384 36299
L49372 36310
L49361 36332
L49361 36389
L49372 36411
L49384 36422
L49406 36434
L49451 36434
L49474 36422
L49485 36411
L49496 36389
" />
</g>
<g style="fill:#000000; fill-opacity:0.0; 
stroke:#000000; stroke-width:59.0551; stroke-opacity:1; 
stroke-linecap:round; stroke-linejoin:round;">
<path d="M53773 30729
L53698 30729
L53661 30748
L53642 30766
L53605 30823
L53586 30898
L53586 31047
L53605 31085
L53623 31104
L53661 31122
L53736 31122
L53773 31104
L53792 31085
L53811 31047
L53811 30954
L53792 30916
L53773 30898
L53736 30879
L53661 30879
L53623 30898
L53605 30916
L53586 30954
" />
<path d="M54036 30898
L53998 30879
L53980 30860
L53961 30823
L53961 30804
L53980 30766
L53998 30748
L54036 30729
L54111 30729
L54148 30748
L54167 30766
L54186 30804
L54186 30823
L54167 30860
L54148 30879
L54111 30898
L54036 30898
L53998 30916
L53980 30935
L53961 30973
L53961 31047
L53980 31085
L53998 31104
L54036 31122
L54111 31122
L54148 31104
L54167 31085
L54186 31047
L54186 30973
L54167 30935
L54148 30916
L54111 30898
" />
<path d="M54430 30729
L54467 30729
L54505 30748
L54523 30766
L54542 30804
L54561 30879
L54561 30973
L54542 31047
L54523 31085
L54505 31104
L54467 31122
L54430 31122
L54392 31104
L54373 31085
L54355 31047
L54336 30973
L54336 30879
L54355 30804
L54373 30766
L54392 30748
L54430 30729
" />
<path d="M54730 30860
L54730 31254
" />
<path d="M54730 30879
L54767 30860
L54842 30860
L54880 30879
L54898 30898
L54917 30935
L54917 31047
L54898 31085
L54880 31104
L54842 31122
L54767 31122
L54730 31104
" />
</g>
<g style="fill:#000000; fill-opacity:0.0; 
stroke:#000000; stroke-width:35.4331; stroke-opacity:1; 
stroke-linecap:round; stroke-linejoin:round;">
<path d="M53233 31155
L53245 31167
L53256 31200
L53256 31223
L53245 31257
L53222 31279
L53200 31290
L53155 31302
L53121 31302
L53076 31290
L53053 31279
L53031 31257
L53020 31223
L53020 31200
L53031 31167
L53042 31155
" />
<path d="M53256 30930
L53256 31065
" />
<path d="M53256 30998
L53020 30998
L53053 31020
L53076 31043
L53087 31065
" />
<path d="M53020 30784
L53020 30762
L53031 30739
L53042 30728
L53065 30717
L53110 30705
L53166 30705
L53211 30717
L53233 30728
L53245 30739
L53256 30762
L53256 30784
L53245 30807
L53233 30818
L53211 30829
L53166 30840
L53110 30840
L53065 30829
L53042 30818
L53031 30807
L53020 30784
" />
</g>
<g style="fill:#000000; fill-opacity:0.0; 
stroke:#000000; stroke-width:59.0551; stroke-opacity:1; 
stroke-linecap:round; stroke-linejoin:round;">
<path d="M50395 30178
L50170 30178
" />
<path d="M50283 30178
L50283 29784
L50245 29840
L50208 29878
L50170 29896
" />
<path d="M50639 29784
L50676 29784
L50714 29803
L50733 29821
L50751 29859
L50770 29934
L50770 30028
L50751 30103
L50733 30140
L50714 30159
L50676 30178
L50639 30178
L50601 30159
L50583 30140
L50564 30103
L50545 30028
L50545 29934
L50564 29859
L50583 29821
L50601 29803
L50639 29784
" />
<path d="M50939 30178
L50939 29784
" />
<path d="M50976 30028
L51089 30178
" />
<path d="M51089 29915
L50939 30065
" />
<path d="M49353 29705
L49221 29518
" />
<path d="M49128 29705
L49128 29311
L49278 29311
L49315 29330
L49334 29349
L49353 29386
L49353 29443
L49334 29480
L49315 29499
L49278 29518
L49128 29518
" />
<path d="M49728 29705
L49503 29705
" />
<path d="M49615 29705
L49615 29311
L49578 29368
L49540 29405
L49503 29424
" />
<path d="M49878 29349
L49896 29330
L49934 29311
L50028 29311
L50065 29330
L50084 29349
L50103 29386
L50103 29424
L50084 29480
L49859 29705
L50103 29705
" />
<circle cx="54175.8" cy="8716.64" r="656.168" /> 
<path d="M53191 8716
L55160 8716
" />
<path d="M54175 7732
L54175 9700
" />
<circle cx="19155.9" cy="8805.26" r="656.168" /> 
<path d="M18171 8805
L20140 8805
" />
<path d="M19155 7821
L19155 9789
" />
<circle cx="19171.9" cy="37651.1" r="656.168" /> 
<path d="M18187 37651
L20156 37651
" />
<path d="M19171 36666
L19171 38635
" />
<circle cx="54135.7" cy="37665.3" r="656.168" /> 
<path d="M53151 37665
L55119 37665
" />
<path d="M54135 36681
L54135 38649
" />
</g> 
</svg>
